<svg width="18" height="18" viewBox="0 0 18 18" fill="none" xmlns="http://www.w3.org/2000/svg">
<path d="M0 18V10.125H7.875L4.25588 13.7475C5.50458 15.0243 7.21402 15.7459 9 15.7499C11.8569 15.7457 14.4017 13.9435 15.354 11.25H15.3743C15.5031 10.8839 15.6006 10.5076 15.6656 10.125H17.9291C17.3622 14.6248 13.5355 17.9998 9 18H8.98875C6.60236 18.0071 4.31231 17.0591 2.62912 15.3674L0 18ZM2.33325 7.87502H0.06975C0.636468 3.37687 4.46062 0.00250297 8.99438 4.5787e-05H9C11.3868 -0.00759119 13.6774 0.940403 15.3608 2.63257L18 4.5787e-05V7.87502H10.125L13.7498 4.25255C12.4998 2.97417 10.788 2.25248 9 2.25007C6.14312 2.25429 3.59829 4.05656 2.646 6.75003H2.62575C2.49588 7.11577 2.39838 7.49221 2.33438 7.87502H2.33325Z" fill="#F87A11"/>
</svg>
