<svg width="57" height="84" viewBox="0 0 57 84" fill="none" xmlns="http://www.w3.org/2000/svg">
<path d="M1.86823 80C1.74823 80 1.64623 79.958 1.56223 79.874C1.47823 79.79 1.43623 79.688 1.43623 79.568V67.85C1.43623 67.718 1.47223 67.61 1.54423 67.526C1.62823 67.442 1.73623 67.4 1.86823 67.4H6.53023C7.99423 67.4 9.14023 67.742 9.96823 68.426C10.8082 69.11 11.2282 70.082 11.2282 71.342C11.2282 72.218 11.0122 72.956 10.5802 73.556C10.1602 74.144 9.57223 74.57 8.81623 74.834L11.4442 79.424C11.4802 79.496 11.4982 79.562 11.4982 79.622C11.4982 79.73 11.4562 79.82 11.3722 79.892C11.3002 79.964 11.2162 80 11.1202 80H9.48223C9.29023 80 9.14023 79.958 9.03223 79.874C8.93623 79.79 8.84623 79.67 8.76223 79.514L6.44023 75.248H3.93823V79.568C3.93823 79.688 3.89623 79.79 3.81223 79.874C3.74023 79.958 3.63823 80 3.50623 80H1.86823ZM6.47623 73.214C7.19623 73.214 7.73623 73.052 8.09623 72.728C8.46823 72.404 8.65423 71.936 8.65423 71.324C8.65423 70.712 8.46823 70.238 8.09623 69.902C7.73623 69.566 7.19623 69.398 6.47623 69.398H3.93823V73.214H6.47623ZM17.2581 80.18C15.9261 80.18 14.8641 79.796 14.0721 79.028C13.2921 78.248 12.8781 77.156 12.8301 75.752L12.8121 75.302L12.8301 74.852C12.8901 73.484 13.3101 72.41 14.0901 71.63C14.8821 70.85 15.9381 70.46 17.2581 70.46C18.6741 70.46 19.7661 70.892 20.5341 71.756C21.3141 72.62 21.7041 73.772 21.7041 75.212V75.59C21.7041 75.71 21.6621 75.812 21.5781 75.896C21.4941 75.98 21.3861 76.022 21.2541 76.022H15.2781V76.166C15.3021 76.826 15.4821 77.384 15.8181 77.84C16.1661 78.284 16.6401 78.506 17.2401 78.506C17.9481 78.506 18.5181 78.23 18.9501 77.678C19.0581 77.546 19.1421 77.462 19.2021 77.426C19.2741 77.39 19.3761 77.372 19.5081 77.372H21.0561C21.1641 77.372 21.2541 77.408 21.3261 77.48C21.4101 77.54 21.4521 77.618 21.4521 77.714C21.4521 78.002 21.2781 78.344 20.9301 78.74C20.5941 79.124 20.1081 79.46 19.4721 79.748C18.8361 80.036 18.0981 80.18 17.2581 80.18ZM19.2561 74.51V74.456C19.2561 73.748 19.0761 73.178 18.7161 72.746C18.3681 72.314 17.8821 72.098 17.2581 72.098C16.6341 72.098 16.1481 72.314 15.8001 72.746C15.4521 73.178 15.2781 73.748 15.2781 74.456V74.51H19.2561ZM27.0888 80.18C25.8768 80.18 24.9468 79.79 24.2988 79.01C23.6508 78.23 23.3028 77.192 23.2548 75.896L23.2368 75.302L23.2548 74.726C23.2908 73.466 23.6328 72.44 24.2808 71.648C24.9408 70.856 25.8768 70.46 27.0888 70.46C28.2528 70.46 29.1768 70.856 29.8608 71.648V67.652C29.8608 67.52 29.9028 67.418 29.9868 67.346C30.0708 67.262 30.1728 67.22 30.2928 67.22H31.8228C31.9548 67.22 32.0568 67.262 32.1288 67.346C32.2128 67.418 32.2548 67.52 32.2548 67.652V79.568C32.2548 79.688 32.2128 79.79 32.1288 79.874C32.0568 79.958 31.9548 80 31.8228 80H30.4008C30.2808 80 30.1788 79.958 30.0948 79.874C30.0108 79.79 29.9688 79.688 29.9688 79.568V78.902C29.2848 79.754 28.3248 80.18 27.0888 80.18ZM27.7548 78.254C28.4508 78.254 28.9668 78.032 29.3028 77.588C29.6388 77.144 29.8248 76.598 29.8608 75.95C29.8728 75.806 29.8788 75.572 29.8788 75.248C29.8788 74.936 29.8728 74.708 29.8608 74.564C29.8368 73.964 29.6448 73.454 29.2848 73.034C28.9368 72.602 28.4268 72.386 27.7548 72.386C26.4588 72.386 25.7688 73.184 25.6848 74.78L25.6668 75.32L25.6848 75.86C25.7688 77.456 26.4588 78.254 27.7548 78.254ZM38.1278 80.18C36.9158 80.18 35.9858 79.79 35.3378 79.01C34.6898 78.23 34.3418 77.192 34.2938 75.896L34.2758 75.302L34.2938 74.726C34.3298 73.466 34.6718 72.44 35.3198 71.648C35.9798 70.856 36.9158 70.46 38.1278 70.46C39.2918 70.46 40.2158 70.856 40.8998 71.648V67.652C40.8998 67.52 40.9418 67.418 41.0258 67.346C41.1098 67.262 41.2118 67.22 41.3318 67.22H42.8618C42.9938 67.22 43.0958 67.262 43.1678 67.346C43.2518 67.418 43.2938 67.52 43.2938 67.652V79.568C43.2938 79.688 43.2518 79.79 43.1678 79.874C43.0958 79.958 42.9938 80 42.8618 80H41.4398C41.3198 80 41.2178 79.958 41.1338 79.874C41.0498 79.79 41.0078 79.688 41.0078 79.568V78.902C40.3238 79.754 39.3638 80.18 38.1278 80.18ZM38.7938 78.254C39.4898 78.254 40.0058 78.032 40.3418 77.588C40.6778 77.144 40.8638 76.598 40.8998 75.95C40.9118 75.806 40.9178 75.572 40.9178 75.248C40.9178 74.936 40.9118 74.708 40.8998 74.564C40.8758 73.964 40.6838 73.454 40.3238 73.034C39.9758 72.602 39.4658 72.386 38.7938 72.386C37.4978 72.386 36.8078 73.184 36.7238 74.78L36.7058 75.32L36.7238 75.86C36.8078 77.456 37.4978 78.254 38.7938 78.254ZM46.0529 69.092C45.9329 69.092 45.8309 69.05 45.7469 68.966C45.6629 68.882 45.6209 68.78 45.6209 68.66V67.364C45.6209 67.244 45.6629 67.142 45.7469 67.058C45.8309 66.974 45.9329 66.932 46.0529 66.932H47.6909C47.8109 66.932 47.9129 66.974 47.9969 67.058C48.0929 67.142 48.1409 67.244 48.1409 67.364V68.66C48.1409 68.78 48.0989 68.882 48.0149 68.966C47.9309 69.05 47.8229 69.092 47.6909 69.092H46.0529ZM46.1249 80C46.0049 80 45.9029 79.958 45.8189 79.874C45.7349 79.79 45.6929 79.688 45.6929 79.568V71.072C45.6929 70.952 45.7349 70.85 45.8189 70.766C45.9029 70.682 46.0049 70.64 46.1249 70.64H47.6189C47.7509 70.64 47.8529 70.682 47.9249 70.766C48.0089 70.838 48.0509 70.94 48.0509 71.072V79.568C48.0509 79.688 48.0089 79.79 47.9249 79.874C47.8529 79.958 47.7509 80 47.6189 80H46.1249ZM54.669 80C53.577 80 52.755 79.718 52.203 79.154C51.663 78.578 51.393 77.738 51.393 76.634V72.548H49.971C49.851 72.548 49.749 72.506 49.665 72.422C49.581 72.326 49.539 72.218 49.539 72.098V71.072C49.539 70.952 49.581 70.85 49.665 70.766C49.749 70.682 49.851 70.64 49.971 70.64H51.393V67.652C51.393 67.52 51.435 67.418 51.519 67.346C51.603 67.262 51.705 67.22 51.825 67.22H53.283C53.415 67.22 53.517 67.262 53.589 67.346C53.673 67.418 53.715 67.52 53.715 67.652V70.64H55.965C56.097 70.64 56.199 70.682 56.271 70.766C56.355 70.838 56.397 70.94 56.397 71.072V72.098C56.397 72.23 56.355 72.338 56.271 72.422C56.187 72.506 56.085 72.548 55.965 72.548H53.715V76.454C53.715 76.97 53.805 77.36 53.985 77.624C54.165 77.888 54.465 78.02 54.885 78.02H56.127C56.247 78.02 56.349 78.062 56.433 78.146C56.517 78.23 56.559 78.332 56.559 78.452V79.568C56.559 79.688 56.517 79.79 56.433 79.874C56.361 79.958 56.259 80 56.127 80H54.669Z" fill="white"/>
<path d="M28.9998 45.8334C17.4939 45.8334 8.1665 36.506 8.1665 25.0001C8.1665 13.4941 17.4939 4.16675 28.9998 4.16675C40.5058 4.16675 49.8332 13.4941 49.8332 25.0001C49.8205 36.5008 40.5005 45.8208 28.9998 45.8334ZM18.1811 21.9647C16.9345 21.9654 15.8145 22.7267 15.3551 23.8856C14.8958 25.0445 15.1901 26.3664 16.0978 27.2209C16.3377 27.4482 16.6137 27.634 16.9144 27.7709C16.8883 28.0752 16.8883 28.3812 16.9144 28.6855C16.9144 33.3522 22.3623 37.148 29.0582 37.148C35.754 37.148 41.204 33.3522 41.204 28.6855C41.2283 28.3811 41.2283 28.0753 41.204 27.7709C42.4685 27.1566 43.1373 25.747 42.8134 24.379C42.4895 23.011 41.2597 22.051 39.854 22.0688H39.7436C38.9973 22.0964 38.2874 22.3983 37.7498 22.9167C35.3801 21.3053 32.5941 20.4152 29.729 20.3542L31.0832 13.8542L35.5373 14.7917C35.6521 15.8481 36.5435 16.6489 37.6061 16.6501C37.682 16.65 37.7578 16.6458 37.8332 16.6376C38.9378 16.5267 39.7614 15.5691 39.7058 14.4604C39.6502 13.3516 38.735 12.4813 37.6248 12.4813C37.5461 12.4832 37.4675 12.4895 37.3894 12.5001C36.7291 12.5702 36.1418 12.9509 35.8082 13.5251L30.7082 12.5001C30.663 12.4904 30.6169 12.4855 30.5707 12.4855C30.2695 12.4891 30.0105 12.6997 29.9457 12.9938L28.3873 20.2292C25.487 20.2703 22.6622 21.1604 20.2623 22.7897C19.6999 22.2583 18.9549 21.963 18.1811 21.9647ZM29.3748 34.4251C29.2582 34.4251 29.1394 34.4251 29.0228 34.4251C28.9061 34.4251 28.7873 34.4251 28.6707 34.4251C26.9417 34.4185 25.261 33.8536 23.879 32.8147C23.7837 32.6997 23.7383 32.5514 23.7527 32.4028C23.7672 32.2542 23.8404 32.1174 23.9561 32.023C24.0569 31.9412 24.1826 31.8964 24.3123 31.8959C24.4422 31.8959 24.5681 31.9408 24.6686 32.023C25.8365 32.8788 27.2478 33.338 28.6957 33.3334C28.7971 33.3334 28.8985 33.3334 28.9998 33.3334C29.1228 33.3334 29.2478 33.3334 29.3707 33.3334C30.7998 33.3358 32.1935 32.8883 33.354 32.0542C33.4637 31.9423 33.6139 31.8792 33.7707 31.8792C33.9274 31.8792 34.0776 31.9423 34.1873 32.0542C34.4133 32.2878 34.4086 32.6598 34.1769 32.8876V32.8043C32.7941 33.8504 31.1087 34.4185 29.3748 34.423V34.4251ZM33.8061 29.3334H33.7728L33.7894 29.2522C32.873 29.1896 32.1236 28.4979 31.9879 27.5894C31.8522 26.681 32.3668 25.8005 33.2249 25.4729C34.083 25.1453 35.0535 25.4588 35.5578 26.2265C36.062 26.9942 35.9643 28.0094 35.3228 28.6667C34.9497 29.0739 34.4288 29.3141 33.8769 29.3334H33.804H33.8061ZM24.1457 29.1667C22.9951 29.1667 22.0623 28.234 22.0623 27.0834C22.0623 25.9328 22.9951 25.0001 24.1457 25.0001C25.2963 25.0001 26.229 25.9328 26.229 27.0834C26.229 28.234 25.2963 29.1667 24.1457 29.1667Z" fill="#F87A11"/>
</svg>
