<svg width="74" height="84" viewBox="0 0 74 84" fill="none" xmlns="http://www.w3.org/2000/svg">
<path d="M2.1944 80C2.0744 80 1.9724 79.958 1.8884 79.874C1.8044 79.79 1.7624 79.688 1.7624 79.568V67.832C1.7624 67.7 1.8044 67.598 1.8884 67.526C1.9724 67.442 2.0744 67.4 2.1944 67.4H3.8684C4.0004 67.4 4.1024 67.442 4.1744 67.526C4.2584 67.598 4.3004 67.7 4.3004 67.832V77.858H10.0064C10.1384 77.858 10.2464 77.9 10.3304 77.984C10.4144 78.068 10.4564 78.176 10.4564 78.308V79.568C10.4564 79.7 10.4144 79.808 10.3304 79.892C10.2464 79.964 10.1384 80 10.0064 80H2.1944ZM12.3478 69.092C12.2278 69.092 12.1258 69.05 12.0418 68.966C11.9578 68.882 11.9158 68.78 11.9158 68.66V67.364C11.9158 67.244 11.9578 67.142 12.0418 67.058C12.1258 66.974 12.2278 66.932 12.3478 66.932H13.9858C14.1058 66.932 14.2078 66.974 14.2918 67.058C14.3878 67.142 14.4358 67.244 14.4358 67.364V68.66C14.4358 68.78 14.3938 68.882 14.3098 68.966C14.2258 69.05 14.1178 69.092 13.9858 69.092H12.3478ZM12.4198 80C12.2998 80 12.1978 79.958 12.1138 79.874C12.0298 79.79 11.9878 79.688 11.9878 79.568V71.072C11.9878 70.952 12.0298 70.85 12.1138 70.766C12.1978 70.682 12.2998 70.64 12.4198 70.64H13.9138C14.0458 70.64 14.1478 70.682 14.2198 70.766C14.3038 70.838 14.3458 70.94 14.3458 71.072V79.568C14.3458 79.688 14.3038 79.79 14.2198 79.874C14.1478 79.958 14.0458 80 13.9138 80H12.4198ZM17.1659 80C17.0459 80 16.9439 79.958 16.8599 79.874C16.7759 79.79 16.7339 79.688 16.7339 79.568V71.072C16.7339 70.952 16.7759 70.85 16.8599 70.766C16.9439 70.682 17.0459 70.64 17.1659 70.64H18.6419C18.7619 70.64 18.8639 70.682 18.9479 70.766C19.0319 70.85 19.0739 70.952 19.0739 71.072V71.81C19.7819 70.91 20.7839 70.46 22.0799 70.46C23.1839 70.46 24.0599 70.826 24.7079 71.558C25.3559 72.278 25.6799 73.262 25.6799 74.51V79.568C25.6799 79.688 25.6379 79.79 25.5539 79.874C25.4819 79.958 25.3799 80 25.2479 80H23.6639C23.5439 80 23.4419 79.958 23.3579 79.874C23.2739 79.79 23.2319 79.688 23.2319 79.568V74.618C23.2319 73.91 23.0579 73.364 22.7099 72.98C22.3739 72.584 21.8819 72.386 21.2339 72.386C20.5979 72.386 20.0939 72.584 19.7219 72.98C19.3619 73.376 19.1819 73.922 19.1819 74.618V79.568C19.1819 79.688 19.1399 79.79 19.0559 79.874C18.9839 79.958 18.8819 80 18.7499 80H17.1659ZM28.4163 80C28.2963 80 28.1943 79.958 28.1103 79.874C28.0263 79.79 27.9843 79.688 27.9843 79.568V67.652C27.9843 67.52 28.0263 67.418 28.1103 67.346C28.1943 67.262 28.2963 67.22 28.4163 67.22H29.8743C30.0063 67.22 30.1083 67.262 30.1803 67.346C30.2643 67.418 30.3063 67.52 30.3063 67.652V73.808L33.3303 70.946C33.3663 70.922 33.4263 70.874 33.5103 70.802C33.5823 70.742 33.6543 70.7 33.7263 70.676C33.7983 70.652 33.8883 70.64 33.9963 70.64H35.6703C35.7903 70.64 35.8863 70.676 35.9583 70.748C36.0303 70.82 36.0663 70.916 36.0663 71.036C36.0663 71.144 36.0063 71.252 35.8863 71.36L32.1783 74.834L36.3363 79.298C36.4563 79.418 36.5163 79.52 36.5163 79.604C36.5163 79.724 36.4743 79.82 36.3903 79.892C36.3183 79.964 36.2283 80 36.1203 80H34.4103C34.2423 80 34.1163 79.982 34.0323 79.946C33.9603 79.898 33.8643 79.814 33.7443 79.694L30.3063 76.076V79.568C30.3063 79.688 30.2643 79.79 30.1803 79.874C30.1083 79.958 30.0063 80 29.8743 80H28.4163ZM41.4554 80.18C40.1234 80.18 39.0614 79.796 38.2694 79.028C37.4894 78.248 37.0754 77.156 37.0274 75.752L37.0094 75.302L37.0274 74.852C37.0874 73.484 37.5074 72.41 38.2874 71.63C39.0794 70.85 40.1354 70.46 41.4554 70.46C42.8714 70.46 43.9634 70.892 44.7314 71.756C45.5114 72.62 45.9014 73.772 45.9014 75.212V75.59C45.9014 75.71 45.8594 75.812 45.7754 75.896C45.6914 75.98 45.5834 76.022 45.4514 76.022H39.4754V76.166C39.4994 76.826 39.6794 77.384 40.0154 77.84C40.3634 78.284 40.8374 78.506 41.4374 78.506C42.1454 78.506 42.7154 78.23 43.1474 77.678C43.2554 77.546 43.3394 77.462 43.3994 77.426C43.4714 77.39 43.5734 77.372 43.7054 77.372H45.2534C45.3614 77.372 45.4514 77.408 45.5234 77.48C45.6074 77.54 45.6494 77.618 45.6494 77.714C45.6494 78.002 45.4754 78.344 45.1274 78.74C44.7914 79.124 44.3054 79.46 43.6694 79.748C43.0334 80.036 42.2954 80.18 41.4554 80.18ZM43.4534 74.51V74.456C43.4534 73.748 43.2734 73.178 42.9134 72.746C42.5654 72.314 42.0794 72.098 41.4554 72.098C40.8314 72.098 40.3454 72.314 39.9974 72.746C39.6494 73.178 39.4754 73.748 39.4754 74.456V74.51H43.4534ZM51.286 80.18C50.074 80.18 49.144 79.79 48.496 79.01C47.848 78.23 47.5 77.192 47.452 75.896L47.434 75.302L47.452 74.726C47.488 73.466 47.83 72.44 48.478 71.648C49.138 70.856 50.074 70.46 51.286 70.46C52.45 70.46 53.374 70.856 54.058 71.648V67.652C54.058 67.52 54.1 67.418 54.184 67.346C54.268 67.262 54.37 67.22 54.49 67.22H56.02C56.152 67.22 56.254 67.262 56.326 67.346C56.41 67.418 56.452 67.52 56.452 67.652V79.568C56.452 79.688 56.41 79.79 56.326 79.874C56.254 79.958 56.152 80 56.02 80H54.598C54.478 80 54.376 79.958 54.292 79.874C54.208 79.79 54.166 79.688 54.166 79.568V78.902C53.482 79.754 52.522 80.18 51.286 80.18ZM51.952 78.254C52.648 78.254 53.164 78.032 53.5 77.588C53.836 77.144 54.022 76.598 54.058 75.95C54.07 75.806 54.076 75.572 54.076 75.248C54.076 74.936 54.07 74.708 54.058 74.564C54.034 73.964 53.842 73.454 53.482 73.034C53.134 72.602 52.624 72.386 51.952 72.386C50.656 72.386 49.966 73.184 49.882 74.78L49.864 75.32L49.882 75.86C49.966 77.456 50.656 78.254 51.952 78.254ZM59.2111 69.092C59.0911 69.092 58.9891 69.05 58.9051 68.966C58.8211 68.882 58.7791 68.78 58.7791 68.66V67.364C58.7791 67.244 58.8211 67.142 58.9051 67.058C58.9891 66.974 59.0911 66.932 59.2111 66.932H60.8491C60.9691 66.932 61.0711 66.974 61.1551 67.058C61.2511 67.142 61.2991 67.244 61.2991 67.364V68.66C61.2991 68.78 61.2571 68.882 61.1731 68.966C61.0891 69.05 60.9811 69.092 60.8491 69.092H59.2111ZM59.2831 80C59.1631 80 59.0611 79.958 58.9771 79.874C58.8931 79.79 58.8511 79.688 58.8511 79.568V71.072C58.8511 70.952 58.8931 70.85 58.9771 70.766C59.0611 70.682 59.1631 70.64 59.2831 70.64H60.7771C60.9091 70.64 61.0111 70.682 61.0831 70.766C61.1671 70.838 61.2091 70.94 61.2091 71.072V79.568C61.2091 79.688 61.1671 79.79 61.0831 79.874C61.0111 79.958 60.9091 80 60.7771 80H59.2831ZM64.0292 80C63.9092 80 63.8072 79.958 63.7232 79.874C63.6392 79.79 63.5972 79.688 63.5972 79.568V71.072C63.5972 70.952 63.6392 70.85 63.7232 70.766C63.8072 70.682 63.9092 70.64 64.0292 70.64H65.5052C65.6252 70.64 65.7272 70.682 65.8112 70.766C65.8952 70.85 65.9372 70.952 65.9372 71.072V71.81C66.6452 70.91 67.6472 70.46 68.9432 70.46C70.0472 70.46 70.9232 70.826 71.5712 71.558C72.2192 72.278 72.5432 73.262 72.5432 74.51V79.568C72.5432 79.688 72.5012 79.79 72.4172 79.874C72.3452 79.958 72.2432 80 72.1112 80H70.5272C70.4072 80 70.3052 79.958 70.2212 79.874C70.1372 79.79 70.0952 79.688 70.0952 79.568V74.618C70.0952 73.91 69.9212 73.364 69.5732 72.98C69.2372 72.584 68.7452 72.386 68.0972 72.386C67.4612 72.386 66.9572 72.584 66.5852 72.98C66.2252 73.376 66.0452 73.922 66.0452 74.618V79.568C66.0452 79.688 66.0032 79.79 65.9192 79.874C65.8472 79.958 65.7452 80 65.6132 80H64.0292Z" fill="white"/>
<path d="M23.6491 17.5415C25.6946 17.5415 27.3528 15.8833 27.3528 13.8378C27.3528 11.7923 25.6946 10.134 23.6491 10.134C21.6035 10.134 19.9453 11.7923 19.9453 13.8378C19.9453 15.8833 21.6035 17.5415 23.6491 17.5415Z" fill="#F87A11"/>
<path d="M30.7448 20.2787H36.8831V23.0907C36.8831 23.0907 38.5488 19.7593 43.081 19.7593C47.1239 19.7593 50.4729 21.7509 50.4729 27.8215V40.6228H44.1119V29.3727C44.1119 25.7916 42.2001 25.3977 40.7432 25.3977C37.7197 25.3977 37.2021 28.0057 37.2021 29.8398V40.6228H30.7448V20.2787Z" fill="#F87A11"/>
<path d="M20.4204 20.2787H26.8777V40.6227H20.4204V20.2787Z" fill="#F87A11"/>
</svg>
