<svg width="48" height="55" viewBox="0 0 48 55" fill="none" xmlns="http://www.w3.org/2000/svg">
<path fill-rule="evenodd" clip-rule="evenodd" d="M23.8159 0L35.7234 6.87535L47.6309 13.7507V41.2502L35.7234 48.1246L23.8159 55L11.9075 48.1246L0 41.2502V13.7498L11.9075 6.87535L23.8159 0Z" fill="#F85E11"/>
<path fill-rule="evenodd" clip-rule="evenodd" d="M18.0242 27.622V21.5883L14.2993 17.8633V27.622C14.2993 30.1457 15.3018 32.5659 17.0863 34.3505C18.8709 36.135 21.2911 37.1375 23.8148 37.1375C26.3385 37.1375 28.7588 36.135 30.5433 34.3505C32.3279 32.5659 33.3304 30.1457 33.3304 27.622V19.7225C33.3194 19.2358 33.1184 18.7727 32.7703 18.4323C32.4222 18.092 31.9548 17.9014 31.4679 17.9014C30.9811 17.9014 30.5135 18.092 30.1654 18.4323C29.8173 18.7727 29.6164 19.2358 29.6055 19.7225V27.622C29.6055 29.1578 28.9953 30.6306 27.9093 31.7166C26.8234 32.8025 25.3505 33.4126 23.8148 33.4126C22.279 33.4126 20.8062 32.8025 19.7202 31.7166C18.6343 30.6306 18.0242 29.1578 18.0242 27.622Z" fill="#1F1C2B"/>
</svg>
