<svg width="83" height="73" viewBox="0 0 83 73" fill="none" xmlns="http://www.w3.org/2000/svg">
<path d="M52.5915 60.5607C69.3856 60.5607 83 47.0037 83 30.2803C83 13.557 69.3856 0 52.5915 0C35.7974 0 22.1831 13.557 22.1831 30.2803C22.1831 47.0037 35.7974 60.5607 52.5915 60.5607Z" fill="#312F3A"/>
<path fill-rule="evenodd" clip-rule="evenodd" d="M30.3239 73C30.3239 73 25.9917 73 25.9917 68.6861C25.9917 64.3721 30.3239 51.431 47.6512 51.431C64.9785 51.431 69.3107 64.3721 69.3107 68.6861C69.3107 73 64.9785 73 64.9785 73H30.3239ZM47.652 47.1178C50.2223 47.1178 52.7349 46.3588 54.8721 44.9368C57.0092 43.5149 58.675 41.4937 59.6586 39.1291C60.6422 36.7644 60.8996 34.1623 60.3981 31.652C59.8967 29.1417 58.6589 26.8358 56.8414 25.026C55.0239 23.2161 52.7083 21.9836 50.1873 21.4843C47.6664 20.9849 45.0534 21.2412 42.6787 22.2207C40.304 23.2002 38.2743 24.8589 36.8463 26.987C35.4183 29.1152 34.6561 31.6172 34.6561 34.1767C34.657 37.6087 36.0264 40.8998 38.4635 43.3265C40.9005 45.7533 44.2055 47.117 47.652 47.1178ZM22.5939 73C21.9479 71.6546 21.6279 70.177 21.6595 68.6861C21.6595 62.8353 24.6103 56.8233 30.053 52.6414C27.3348 51.8081 24.5034 51.3988 21.6595 51.4278C4.33221 51.4318 0 64.3729 0 68.6869C0 73.0008 4.33221 73.0008 4.33221 73.0008L22.5939 73ZM19.4938 47.1178C21.6359 47.1178 23.7299 46.4852 25.511 45.3001C27.2921 44.1149 28.6802 42.4304 29.4998 40.4596C30.3194 38.4888 30.5337 36.3203 30.1156 34.2282C29.6974 32.1361 28.6657 30.2145 27.1507 28.7064C25.6358 27.1983 23.7057 26.1714 21.6047 25.7556C19.5036 25.3398 17.326 25.5539 15.3471 26.3706C13.3682 27.1873 11.677 28.5701 10.4873 30.344C9.29766 32.1179 8.66301 34.2033 8.66364 36.3364C8.66364 37.7525 8.94379 39.1548 9.48809 40.463C10.0324 41.7713 10.8302 42.96 11.8359 43.9611C12.8416 44.9623 14.0355 45.7564 15.3495 46.298C16.6635 46.8397 18.0717 47.1182 19.4938 47.1178Z" fill="url(#paint0_linear_173_419)"/>
<defs>
<linearGradient id="paint0_linear_173_419" x1="34.6553" y1="21.2356" x2="34.6553" y2="73.0008" gradientUnits="userSpaceOnUse">
<stop stop-color="#F88311"/>
<stop offset="1" stop-color="#F83811"/>
</linearGradient>
</defs>
</svg>
