<svg width="59" height="84" viewBox="0 0 59 84" fill="none" xmlns="http://www.w3.org/2000/svg">
<path d="M6.49727 80.18C4.85327 80.18 3.56927 79.754 2.64527 78.902C1.73327 78.05 1.24727 76.862 1.18727 75.338C1.17527 74.99 1.16927 74.432 1.16927 73.664C1.16927 72.896 1.17527 72.338 1.18727 71.99C1.24727 70.502 1.73927 69.338 2.66327 68.498C3.59927 67.646 4.87727 67.22 6.49727 67.22C7.60127 67.22 8.54927 67.406 9.34127 67.778C10.1333 68.15 10.7333 68.618 11.1413 69.182C11.5493 69.734 11.7653 70.28 11.7893 70.82V70.856C11.7893 70.952 11.7533 71.036 11.6813 71.108C11.6093 71.168 11.5193 71.198 11.4113 71.198H9.55727C9.43727 71.198 9.34727 71.18 9.28727 71.144C9.22727 71.096 9.17327 71.018 9.12527 70.91C8.95727 70.466 8.66327 70.088 8.24327 69.776C7.82327 69.452 7.24127 69.29 6.49727 69.29C5.65727 69.29 4.99727 69.518 4.51727 69.974C4.04927 70.43 3.79727 71.132 3.76127 72.08C3.74927 72.428 3.74327 72.956 3.74327 73.664C3.74327 74.36 3.74927 74.888 3.76127 75.248C3.83327 77.156 4.75727 78.11 6.53327 78.11C7.38527 78.11 8.06927 77.882 8.58527 77.426C9.10127 76.958 9.35927 76.268 9.35927 75.356V74.798H7.16327C7.03127 74.798 6.92327 74.756 6.83927 74.672C6.76727 74.588 6.73127 74.48 6.73127 74.348V73.394C6.73127 73.262 6.76727 73.154 6.83927 73.07C6.92327 72.986 7.03127 72.944 7.16327 72.944H11.4653C11.5973 72.944 11.6993 72.986 11.7713 73.07C11.8553 73.154 11.8973 73.262 11.8973 73.394V75.284C11.8973 76.28 11.6753 77.15 11.2313 77.894C10.7993 78.626 10.1753 79.19 9.35927 79.586C8.54327 79.982 7.58927 80.18 6.49727 80.18ZM14.3488 69.092C14.2288 69.092 14.1268 69.05 14.0428 68.966C13.9588 68.882 13.9168 68.78 13.9168 68.66V67.364C13.9168 67.244 13.9588 67.142 14.0428 67.058C14.1268 66.974 14.2288 66.932 14.3488 66.932H15.9868C16.1068 66.932 16.2088 66.974 16.2928 67.058C16.3888 67.142 16.4368 67.244 16.4368 67.364V68.66C16.4368 68.78 16.3948 68.882 16.3108 68.966C16.2268 69.05 16.1188 69.092 15.9868 69.092H14.3488ZM14.4208 80C14.3008 80 14.1988 79.958 14.1148 79.874C14.0308 79.79 13.9888 79.688 13.9888 79.568V71.072C13.9888 70.952 14.0308 70.85 14.1148 70.766C14.1988 70.682 14.3008 70.64 14.4208 70.64H15.9148C16.0468 70.64 16.1488 70.682 16.2208 70.766C16.3048 70.838 16.3468 70.94 16.3468 71.072V79.568C16.3468 79.688 16.3048 79.79 16.2208 79.874C16.1488 79.958 16.0468 80 15.9148 80H14.4208ZM22.9649 80C21.8729 80 21.0509 79.718 20.4989 79.154C19.9589 78.578 19.6889 77.738 19.6889 76.634V72.548H18.2669C18.1469 72.548 18.0449 72.506 17.9609 72.422C17.8769 72.326 17.8349 72.218 17.8349 72.098V71.072C17.8349 70.952 17.8769 70.85 17.9609 70.766C18.0449 70.682 18.1469 70.64 18.2669 70.64H19.6889V67.652C19.6889 67.52 19.7309 67.418 19.8149 67.346C19.8989 67.262 20.0009 67.22 20.1209 67.22H21.5789C21.7109 67.22 21.8129 67.262 21.8849 67.346C21.9689 67.418 22.0109 67.52 22.0109 67.652V70.64H24.2609C24.3929 70.64 24.4949 70.682 24.5669 70.766C24.6509 70.838 24.6929 70.94 24.6929 71.072V72.098C24.6929 72.23 24.6509 72.338 24.5669 72.422C24.4829 72.506 24.3809 72.548 24.2609 72.548H22.0109V76.454C22.0109 76.97 22.1009 77.36 22.2809 77.624C22.4609 77.888 22.7609 78.02 23.1809 78.02H24.4229C24.5429 78.02 24.6449 78.062 24.7289 78.146C24.8129 78.23 24.8549 78.332 24.8549 78.452V79.568C24.8549 79.688 24.8129 79.79 24.7289 79.874C24.6569 79.958 24.5549 80 24.4229 80H22.9649ZM26.9017 80C26.7817 80 26.6797 79.958 26.5957 79.874C26.5117 79.79 26.4697 79.688 26.4697 79.568V67.652C26.4697 67.52 26.5117 67.418 26.5957 67.346C26.6797 67.262 26.7817 67.22 26.9017 67.22H28.5037C28.6357 67.22 28.7377 67.262 28.8097 67.346C28.8937 67.418 28.9357 67.52 28.9357 67.652V71.756C29.6557 70.892 30.6277 70.46 31.8517 70.46C32.9557 70.46 33.8377 70.826 34.4977 71.558C35.1577 72.278 35.4877 73.262 35.4877 74.51V79.568C35.4877 79.688 35.4457 79.79 35.3617 79.874C35.2897 79.958 35.1877 80 35.0557 80H33.4357C33.3157 80 33.2137 79.958 33.1297 79.874C33.0457 79.79 33.0037 79.688 33.0037 79.568V74.618C33.0037 73.91 32.8297 73.364 32.4817 72.98C32.1457 72.584 31.6537 72.386 31.0057 72.386C30.3697 72.386 29.8657 72.584 29.4937 72.98C29.1217 73.376 28.9357 73.922 28.9357 74.618V79.568C28.9357 79.688 28.8937 79.79 28.8097 79.874C28.7377 79.958 28.6357 80 28.5037 80H26.9017ZM41.246 80.18C40.142 80.18 39.272 79.82 38.636 79.1C38 78.368 37.682 77.378 37.682 76.13V71.072C37.682 70.952 37.724 70.85 37.808 70.766C37.892 70.682 37.994 70.64 38.114 70.64H39.698C39.83 70.64 39.932 70.682 40.004 70.766C40.088 70.838 40.13 70.94 40.13 71.072V76.022C40.13 77.51 40.784 78.254 42.092 78.254C42.716 78.254 43.208 78.056 43.568 77.66C43.94 77.264 44.126 76.718 44.126 76.022V71.072C44.126 70.952 44.168 70.85 44.252 70.766C44.336 70.682 44.438 70.64 44.558 70.64H46.142C46.274 70.64 46.376 70.682 46.448 70.766C46.532 70.838 46.574 70.94 46.574 71.072V79.568C46.574 79.688 46.532 79.79 46.448 79.874C46.376 79.958 46.274 80 46.142 80H44.684C44.564 80 44.462 79.958 44.378 79.874C44.294 79.79 44.252 79.688 44.252 79.568V78.83C43.58 79.73 42.578 80.18 41.246 80.18ZM54.1357 80.18C52.8997 80.18 51.9397 79.754 51.2557 78.902V79.568C51.2557 79.688 51.2137 79.79 51.1297 79.874C51.0577 79.958 50.9557 80 50.8237 80H49.4017C49.2817 80 49.1797 79.958 49.0957 79.874C49.0117 79.79 48.9697 79.688 48.9697 79.568V67.652C48.9697 67.52 49.0117 67.418 49.0957 67.346C49.1797 67.262 49.2817 67.22 49.4017 67.22H50.9317C51.0637 67.22 51.1657 67.262 51.2377 67.346C51.3217 67.418 51.3637 67.52 51.3637 67.652V71.648C52.0477 70.856 52.9717 70.46 54.1357 70.46C55.3477 70.46 56.2777 70.856 56.9257 71.648C57.5737 72.44 57.9217 73.466 57.9697 74.726C57.9817 74.87 57.9877 75.062 57.9877 75.302C57.9877 75.554 57.9817 75.752 57.9697 75.896C57.9217 77.192 57.5737 78.23 56.9257 79.01C56.2777 79.79 55.3477 80.18 54.1357 80.18ZM53.4697 78.254C54.7657 78.254 55.4557 77.456 55.5397 75.86C55.5517 75.74 55.5577 75.56 55.5577 75.32C55.5577 75.08 55.5517 74.9 55.5397 74.78C55.4557 73.184 54.7657 72.386 53.4697 72.386C52.7977 72.386 52.2817 72.602 51.9217 73.034C51.5737 73.454 51.3877 73.964 51.3637 74.564L51.3457 75.248L51.3637 75.95C51.3997 76.598 51.5857 77.144 51.9217 77.588C52.2577 78.032 52.7737 78.254 53.4697 78.254Z" fill="white"/>
<path d="M29.0544 4.16675C18.8605 4.16544 10.1706 11.5584 8.53853 21.6208C6.90641 31.6832 12.8139 41.4438 22.4856 44.6647C23.5273 44.8522 23.9002 44.2126 23.9002 43.6626C23.9002 43.1688 23.8835 41.8605 23.8773 40.1209C18.096 41.3709 16.8752 37.3334 16.8752 37.3334C16.4946 36.0771 15.6764 34.9987 14.5689 34.2938C12.6939 33.0042 14.7127 33.0334 14.7127 33.0334C16.0474 33.2164 17.2222 34.0073 17.8939 35.1751C18.4626 36.2089 19.4205 36.9729 20.555 37.2972C21.6895 37.6215 22.9065 37.4793 23.9356 36.9022C24.0323 35.848 24.5013 34.8628 25.2585 34.123C20.646 33.6001 15.796 31.8167 15.796 23.8522C15.7704 21.7922 16.5354 19.8007 17.9335 18.2876C17.3009 16.4945 17.3754 14.5277 18.1419 12.7876C18.1419 12.7876 19.8856 12.2272 23.8544 14.9147C27.2582 13.9813 30.8505 13.9813 34.2544 14.9147C38.2252 12.2251 39.9669 12.7876 39.9669 12.7876C40.7369 14.5269 40.8114 16.495 40.1752 18.2876C41.5784 19.8006 42.3428 21.7972 42.3085 23.8605C42.3085 31.8459 37.4544 33.6001 32.8252 34.1147C33.8238 35.1356 34.3359 36.5362 34.2314 37.9605C34.2314 40.7397 34.2064 42.9813 34.2064 43.6626C34.2064 44.2188 34.5773 44.8647 35.6377 44.6605C45.3053 41.4342 51.2065 31.673 49.5711 21.6132C47.9356 11.5535 39.2462 4.16442 29.0544 4.16675Z" fill="#F87A11"/>
</svg>
