<svg width="67" height="84" viewBox="0 0 67 84" fill="none" xmlns="http://www.w3.org/2000/svg">
<path d="M2.17487 80C2.05487 80 1.95287 79.958 1.86887 79.874C1.78487 79.79 1.74287 79.688 1.74287 79.568V67.85C1.74287 67.718 1.77887 67.61 1.85087 67.526C1.93487 67.442 2.04287 67.4 2.17487 67.4H6.56687C10.0949 67.4 11.8949 69.032 11.9669 72.296C11.9909 72.992 12.0029 73.46 12.0029 73.7C12.0029 73.928 11.9909 74.39 11.9669 75.086C11.9189 76.766 11.4689 78.008 10.6169 78.812C9.76487 79.604 8.44487 80 6.65687 80H2.17487ZM6.56687 77.93C7.57487 77.93 8.30087 77.708 8.74487 77.264C9.18887 76.808 9.42287 76.064 9.44687 75.032C9.47087 74.312 9.48287 73.862 9.48287 73.682C9.48287 73.49 9.47087 73.046 9.44687 72.35C9.42287 71.366 9.17087 70.64 8.69087 70.172C8.22287 69.704 7.48487 69.47 6.47687 69.47H4.24487V77.93H6.56687ZM14.5431 69.092C14.4231 69.092 14.3211 69.05 14.2371 68.966C14.1531 68.882 14.1111 68.78 14.1111 68.66V67.364C14.1111 67.244 14.1531 67.142 14.2371 67.058C14.3211 66.974 14.4231 66.932 14.5431 66.932H16.1811C16.3011 66.932 16.4031 66.974 16.4871 67.058C16.5831 67.142 16.6311 67.244 16.6311 67.364V68.66C16.6311 68.78 16.5891 68.882 16.5051 68.966C16.4211 69.05 16.3131 69.092 16.1811 69.092H14.5431ZM14.6151 80C14.4951 80 14.3931 79.958 14.3091 79.874C14.2251 79.79 14.1831 79.688 14.1831 79.568V71.072C14.1831 70.952 14.2251 70.85 14.3091 70.766C14.3931 70.682 14.4951 70.64 14.6151 70.64H16.1091C16.2411 70.64 16.3431 70.682 16.4151 70.766C16.4991 70.838 16.5411 70.94 16.5411 71.072V79.568C16.5411 79.688 16.4991 79.79 16.4151 79.874C16.3431 79.958 16.2411 80 16.1091 80H14.6151ZM22.4752 80.18C21.5752 80.18 20.8192 80.048 20.2072 79.784C19.5952 79.508 19.1392 79.19 18.8392 78.83C18.5512 78.458 18.4072 78.14 18.4072 77.876C18.4072 77.756 18.4492 77.66 18.5332 77.588C18.6172 77.516 18.7132 77.48 18.8212 77.48H20.2432C20.3512 77.48 20.4412 77.522 20.5132 77.606C20.5612 77.642 20.6872 77.75 20.8912 77.93C21.0952 78.122 21.3352 78.272 21.6112 78.38C21.8872 78.488 22.1932 78.542 22.5292 78.542C23.0092 78.542 23.4052 78.446 23.7172 78.254C24.0292 78.062 24.1852 77.798 24.1852 77.462C24.1852 77.21 24.1132 77.006 23.9692 76.85C23.8372 76.694 23.5912 76.556 23.2312 76.436C22.8712 76.304 22.3372 76.166 21.6292 76.022C20.6092 75.806 19.8532 75.476 19.3612 75.032C18.8812 74.588 18.6412 74 18.6412 73.268C18.6412 72.788 18.7852 72.338 19.0732 71.918C19.3612 71.486 19.7872 71.138 20.3512 70.874C20.9272 70.598 21.6112 70.46 22.4032 70.46C23.2072 70.46 23.9032 70.592 24.4912 70.856C25.0792 71.108 25.5232 71.414 25.8232 71.774C26.1352 72.122 26.2912 72.434 26.2912 72.71C26.2912 72.818 26.2492 72.914 26.1652 72.998C26.0932 73.07 26.0032 73.106 25.8952 73.106H24.5632C24.4672 73.106 24.3652 73.064 24.2572 72.98C24.1732 72.92 24.0412 72.806 23.8612 72.638C23.6812 72.47 23.4712 72.338 23.2312 72.242C22.9912 72.146 22.7092 72.098 22.3852 72.098C21.9412 72.098 21.5932 72.194 21.3412 72.386C21.1012 72.578 20.9812 72.83 20.9812 73.142C20.9812 73.37 21.0412 73.556 21.1612 73.7C21.2812 73.844 21.5152 73.982 21.8632 74.114C22.2112 74.246 22.7332 74.378 23.4292 74.51C24.5812 74.738 25.4032 75.092 25.8952 75.572C26.3992 76.052 26.6512 76.64 26.6512 77.336C26.6512 78.176 26.2852 78.86 25.5532 79.388C24.8212 79.916 23.7952 80.18 22.4752 80.18ZM32.5593 80.18C31.2393 80.18 30.1833 79.814 29.3913 79.082C28.6113 78.35 28.1973 77.336 28.1493 76.04L28.1313 75.32L28.1493 74.6C28.1973 73.304 28.6113 72.29 29.3913 71.558C30.1833 70.826 31.2393 70.46 32.5593 70.46C33.4953 70.46 34.2873 70.628 34.9353 70.964C35.5953 71.3 36.0813 71.714 36.3933 72.206C36.7173 72.686 36.8913 73.142 36.9153 73.574C36.9273 73.694 36.8853 73.796 36.7893 73.88C36.7053 73.964 36.6033 74.006 36.4833 74.006H34.8993C34.7793 74.006 34.6833 73.982 34.6113 73.934C34.5513 73.874 34.4913 73.778 34.4313 73.646C34.2513 73.178 34.0113 72.842 33.7113 72.638C33.4233 72.434 33.0513 72.332 32.5953 72.332C31.9833 72.332 31.5033 72.53 31.1553 72.926C30.8073 73.31 30.6213 73.898 30.5973 74.69L30.5793 75.356L30.5973 75.95C30.6453 77.522 31.3113 78.308 32.5953 78.308C33.0633 78.308 33.4413 78.206 33.7293 78.002C34.0173 77.798 34.2513 77.462 34.4313 76.994C34.4913 76.862 34.5513 76.772 34.6113 76.724C34.6833 76.664 34.7793 76.634 34.8993 76.634H36.4833C36.6033 76.634 36.7053 76.676 36.7893 76.76C36.8853 76.844 36.9273 76.946 36.9153 77.066C36.8913 77.486 36.7233 77.936 36.4113 78.416C36.0993 78.896 35.6193 79.31 34.9713 79.658C34.3233 80.006 33.5193 80.18 32.5593 80.18ZM42.9325 80.18C41.5285 80.18 40.4425 79.82 39.6745 79.1C38.9065 78.368 38.4925 77.372 38.4325 76.112L38.4145 75.32L38.4325 74.528C38.4925 73.28 38.9125 72.29 39.6925 71.558C40.4725 70.826 41.5525 70.46 42.9325 70.46C44.3125 70.46 45.3925 70.826 46.1725 71.558C46.9525 72.29 47.3725 73.28 47.4325 74.528C47.4445 74.672 47.4505 74.936 47.4505 75.32C47.4505 75.704 47.4445 75.968 47.4325 76.112C47.3725 77.372 46.9585 78.368 46.1905 79.1C45.4225 79.82 44.3365 80.18 42.9325 80.18ZM42.9325 78.398C43.5685 78.398 44.0605 78.2 44.4085 77.804C44.7565 77.396 44.9485 76.802 44.9845 76.022C44.9965 75.902 45.0025 75.668 45.0025 75.32C45.0025 74.972 44.9965 74.738 44.9845 74.618C44.9485 73.838 44.7565 73.25 44.4085 72.854C44.0605 72.446 43.5685 72.242 42.9325 72.242C42.2965 72.242 41.8045 72.446 41.4565 72.854C41.1085 73.25 40.9165 73.838 40.8805 74.618L40.8625 75.32L40.8805 76.022C40.9165 76.802 41.1085 77.396 41.4565 77.804C41.8045 78.2 42.2965 78.398 42.9325 78.398ZM49.8768 80C49.7568 80 49.6548 79.958 49.5708 79.874C49.4868 79.79 49.4448 79.688 49.4448 79.568V71.09C49.4448 70.97 49.4868 70.868 49.5708 70.784C49.6548 70.688 49.7568 70.64 49.8768 70.64H51.3348C51.4668 70.64 51.5748 70.682 51.6588 70.766C51.7428 70.85 51.7848 70.958 51.7848 71.09V71.828C52.0728 71.444 52.4328 71.15 52.8648 70.946C53.3088 70.742 53.8128 70.64 54.3768 70.64H55.1148C55.2468 70.64 55.3488 70.682 55.4208 70.766C55.5048 70.838 55.5468 70.94 55.5468 71.072V72.368C55.5468 72.488 55.5048 72.59 55.4208 72.674C55.3488 72.758 55.2468 72.8 55.1148 72.8H53.7108C53.1468 72.8 52.7028 72.962 52.3788 73.286C52.0548 73.61 51.8928 74.054 51.8928 74.618V79.568C51.8928 79.688 51.8508 79.79 51.7668 79.874C51.6828 79.958 51.5748 80 51.4428 80H49.8768ZM60.2841 80.18C59.0721 80.18 58.1421 79.79 57.4941 79.01C56.8461 78.23 56.4981 77.192 56.4501 75.896L56.4321 75.302L56.4501 74.726C56.4861 73.466 56.8281 72.44 57.4761 71.648C58.1361 70.856 59.0721 70.46 60.2841 70.46C61.4481 70.46 62.3721 70.856 63.0561 71.648V67.652C63.0561 67.52 63.0981 67.418 63.1821 67.346C63.2661 67.262 63.3681 67.22 63.4881 67.22H65.0181C65.1501 67.22 65.2521 67.262 65.3241 67.346C65.4081 67.418 65.4501 67.52 65.4501 67.652V79.568C65.4501 79.688 65.4081 79.79 65.3241 79.874C65.2521 79.958 65.1501 80 65.0181 80H63.5961C63.4761 80 63.3741 79.958 63.2901 79.874C63.2061 79.79 63.1641 79.688 63.1641 79.568V78.902C62.4801 79.754 61.5201 80.18 60.2841 80.18ZM60.9501 78.254C61.6461 78.254 62.1621 78.032 62.4981 77.588C62.8341 77.144 63.0201 76.598 63.0561 75.95C63.0681 75.806 63.0741 75.572 63.0741 75.248C63.0741 74.936 63.0681 74.708 63.0561 74.564C63.0321 73.964 62.8401 73.454 62.4801 73.034C62.1321 72.602 61.6221 72.386 60.9501 72.386C59.6541 72.386 58.9641 73.184 58.8801 74.78L58.8621 75.32L58.8801 75.86C58.9641 77.456 59.6541 78.254 60.9501 78.254Z" fill="white"/>
<path d="M47.8854 45.8333L43.6313 42.0833L41.2334 39.8542L38.6979 37.5L39.7396 41.1646H17.3063C15.0596 41.1565 13.2443 39.33 13.25 37.0833V10.3271C13.2466 8.08207 15.0613 6.25804 17.3063 6.25H43.8292C46.0742 6.25804 47.8889 8.08207 47.8854 10.3271V45.8333ZM38.4584 28.1417C37.5799 29.3198 36.3152 30.1517 34.8854 30.4917C35.4729 31.2417 36.1813 32.0896 36.1875 32.0979C38.5773 32.1484 40.8402 31.0244 42.2438 29.0896C42.1719 25.0786 41.1978 21.1352 39.3938 17.5521C37.8055 16.3058 35.8722 15.5784 33.8563 15.4688H33.8334L33.5563 15.7854C35.3569 16.2691 37.0361 17.125 38.4854 18.2979C36.6413 17.2842 34.6176 16.6389 32.5271 16.3979C31.1984 16.2503 29.8568 16.2636 28.5313 16.4375C28.4376 16.4394 28.3442 16.4491 28.2521 16.4667H28.1938C26.6403 16.6455 25.1246 17.0673 23.7021 17.7167C22.9896 18.0438 22.5521 18.2813 22.5334 18.2896C22.5146 18.2979 22.5334 18.2896 22.5334 18.275C24.0706 17.0659 25.8441 16.1923 27.7396 15.7104L27.5313 15.4729H27.5188C25.5029 15.5828 23.5697 16.3102 21.9813 17.5563C20.1707 21.1369 19.1962 25.0818 19.1313 29.0938C20.5174 31.0414 22.7834 32.1697 25.1729 32.1021C25.1729 32.1021 25.9188 31.1938 26.5 30.4583C25.1063 30.1081 23.8782 29.283 23.0271 28.125C23.0417 28.1354 23.2479 28.275 23.5813 28.4583C23.6037 28.4846 23.6314 28.5059 23.6625 28.5208C23.6889 28.5391 23.7168 28.5551 23.7459 28.5688C23.7788 28.5837 23.8102 28.6018 23.8396 28.6229C24.3044 28.8791 24.7869 29.1019 25.2834 29.2896C26.2273 29.6633 27.2036 29.9493 28.2 30.1438C29.0724 30.3082 29.9581 30.3919 30.8459 30.3938C31.6782 30.3937 32.5088 30.317 33.3271 30.1646C34.3126 29.9915 35.2751 29.7063 36.1959 29.3146C36.9912 29.0087 37.75 28.6153 38.4584 28.1417ZM34.2125 27.2521C33.3061 27.3311 32.4442 26.8457 32.0419 26.0296C31.6397 25.2135 31.7797 24.2341 32.3945 23.5634C33.0092 22.8927 33.9727 22.6682 34.8206 22.998C35.6686 23.3278 36.2271 24.1443 36.2271 25.0542C36.273 26.2165 35.3724 27.198 34.2104 27.2521H34.2125ZM26.9875 27.2521C25.8476 27.1527 24.9729 26.1984 24.9729 25.0542C24.9729 23.9099 25.8476 22.9556 26.9875 22.8563C27.5126 22.8578 28.0147 23.072 28.3792 23.45C28.7928 23.8793 29.0178 24.4561 29.0042 25.0521C29.0524 26.2164 28.1496 27.2003 26.9854 27.2521H26.9875Z" fill="#F87A11"/>
</svg>
