<svg width="74" height="73" viewBox="0 0 74 73" fill="none" xmlns="http://www.w3.org/2000/svg">
<path d="M44.7707 59.0255C60.9136 59.0255 73.9999 45.8122 73.9999 29.5128C73.9999 13.2133 60.9136 0 44.7707 0C28.6279 0 15.5415 13.2133 15.5415 29.5128C15.5415 45.8122 28.6279 59.0255 44.7707 59.0255Z" fill="#312F3A"/>
<path fill-rule="evenodd" clip-rule="evenodd" d="M0 63.2439C0 64.3654 0.7592 64.8606 1.90711 64.8537L12.5298 64.8498C12.4175 64.3623 12.0113 63.4348 11.8147 62.3555C11.6079 61.3774 11.4918 60.3819 11.4677 59.382V47.9095C11.5119 47.1483 11.735 46.4087 12.1187 45.7519C12.5024 45.0951 13.0355 44.54 13.674 44.1327C14.5227 43.5961 18.8927 42.2017 20.2501 41.659C20.6297 41.5057 21.0093 41.393 21.3571 41.2757C21.7936 41.1301 22.1239 40.979 22.5232 40.8449C28.7684 38.7453 26.3511 39.035 33.9666 41.5954L39.5141 43.6069C39.9044 43.7187 40.2785 43.8816 40.6271 44.0913C41.2815 44.4967 41.8296 45.0553 42.2251 45.7198C42.6206 46.3842 42.8519 47.135 42.8994 47.9088V59.3812C42.8375 61.0244 42.5566 62.6516 42.0642 64.219C41.9743 64.4236 41.8982 64.6341 41.8365 64.8491H52.3514C53.576 64.8575 54.3663 64.4329 54.3663 63.2393V30.8596H0V63.2393V63.2439Z" fill="url(#paint0_linear_173_393)"/>
<path fill-rule="evenodd" clip-rule="evenodd" d="M26.9678 61.9576C25.9595 61.9576 25.2216 60.889 24.6583 60.3225C24.12 59.779 22.168 58.3111 23.4435 56.8967C23.751 56.628 24.1258 56.4502 24.5269 56.3825C25.6315 56.3825 26.2586 57.6174 26.9692 58.0981L30.022 55.0685C31.6505 53.3966 33.0224 54.9321 33.0224 55.8466C33.0224 56.6837 32.3262 57.2463 31.8836 57.6962L28.8573 60.7526C28.3456 61.2693 27.9418 61.9584 26.9723 61.9584L26.9678 61.9576ZM14.5435 48.3412V58.5264C14.5186 61.7501 15.5533 64.8913 17.4854 67.4578C18.1952 68.4113 19.0266 69.266 19.958 69.9997C21.815 71.463 24.8123 73.0008 27.1795 73.0008C29.1535 73.0008 31.9093 71.7536 33.3602 70.7716C35.3579 69.4318 36.994 67.6108 38.1206 65.4731C39.2472 63.3353 39.8289 60.948 39.8134 58.5264V48.3412C39.8134 46.8257 38.585 46.5842 37.4599 46.2109C36.3211 45.8322 35.2361 45.3906 34.0882 45.0051C32.9844 44.634 31.8866 44.1994 30.7167 43.7993C26.1493 42.2324 28.1354 42.3076 23.71 43.7717L16.9676 46.1841C15.8182 46.5674 14.5381 46.8142 14.5381 48.3412H14.5435Z" fill="url(#paint1_linear_173_393)"/>
<path fill-rule="evenodd" clip-rule="evenodd" d="M47.8911 23.0375C47.8879 22.6171 48.0409 22.2107 48.3199 21.8985C48.5988 21.5863 48.9835 21.391 49.3981 21.3511C49.8063 21.3408 50.2025 21.4914 50.5025 21.7711C50.8025 22.0508 50.9828 22.4375 51.0051 22.8492C51.0274 23.2609 50.89 23.6652 50.622 23.9762C50.3541 24.2873 49.9766 24.4808 49.5697 24.5155C49.3631 24.5264 49.1564 24.4946 48.9624 24.4219C48.7684 24.3493 48.5911 24.2374 48.4415 24.0931C48.1526 23.8097 47.9599 23.4413 47.8911 23.0406V23.0375ZM41.5199 23.0375C41.5165 22.617 41.6694 22.2105 41.9484 21.8983C42.2275 21.586 42.6123 21.3908 43.0269 21.3511C43.4405 21.3359 43.8439 21.4833 44.1522 21.7622C44.4604 22.0411 44.6495 22.4299 44.6797 22.8467C44.6939 23.2638 44.5476 23.6703 44.2715 23.9809C43.9953 24.2914 43.6108 24.4819 43.1985 24.5124C42.7872 24.521 42.3876 24.3748 42.0773 24.1021C41.767 23.8295 41.5683 23.45 41.5199 23.0375ZM35.1487 23.0375C35.1455 22.6171 35.2985 22.2107 35.5774 21.8985C35.8564 21.5863 36.2411 21.391 36.6557 21.3511C37.0693 21.3359 37.4727 21.4833 37.7809 21.7622C38.0892 22.0411 38.2783 22.4299 38.3085 22.8467C38.3197 23.2614 38.1709 23.6643 37.8934 23.9703C37.616 24.2763 37.2316 24.4614 36.8215 24.4866C36.4114 24.5117 36.0076 24.375 35.6955 24.1052C35.3833 23.8354 35.1873 23.4537 35.1487 23.0406V23.0375ZM0 19.4991V27.7565H54.3686V19.4991C54.3311 19.1423 54.1736 18.8093 53.9222 18.5557C53.6709 18.302 53.341 18.1431 52.9876 18.1055H1.38099C1.02761 18.1431 0.69771 18.302 0.446376 18.5557C0.195043 18.8093 0.037482 19.1423 0 19.4991H0Z" fill="url(#paint2_linear_173_393)"/>
<defs>
<linearGradient id="paint0_linear_173_393" x1="27.1832" y1="30.8596" x2="27.1832" y2="64.8538" gradientUnits="userSpaceOnUse">
<stop stop-color="#F88311"/>
<stop offset="1" stop-color="#F83811"/>
</linearGradient>
<linearGradient id="paint1_linear_173_393" x1="27.1759" y1="42.6488" x2="27.1759" y2="73.0008" gradientUnits="userSpaceOnUse">
<stop stop-color="#F88311"/>
<stop offset="1" stop-color="#F83811"/>
</linearGradient>
<linearGradient id="paint2_linear_173_393" x1="27.1843" y1="18.1055" x2="27.1843" y2="27.7565" gradientUnits="userSpaceOnUse">
<stop stop-color="#F88311"/>
<stop offset="1" stop-color="#F83811"/>
</linearGradient>
</defs>
</svg>
