<svg width="170" height="49" viewBox="0 0 170 49" fill="none" xmlns="http://www.w3.org/2000/svg">
<path fill-rule="evenodd" clip-rule="evenodd" d="M62.2974 12.6282V26.6944H48.0797V14.4376C48.0797 13.4383 47.2492 12.6282 46.2251 12.6282H41.4263V46.1483C41.4263 47.1479 42.2563 47.9582 43.2809 47.9582H48.0797V32.3673H62.2974V46.1483C62.2974 47.1479 63.1275 47.9582 64.1521 47.9582H68.9506V14.4376C68.9506 13.4383 68.1204 12.6282 67.0957 12.6282H62.2974Z" fill="white"/>
<path fill-rule="evenodd" clip-rule="evenodd" d="M90.2059 20.9575V37.6995C90.2059 39.2207 89.4109 40.6629 88.0611 41.4239C84.2936 43.5481 80.3948 40.8945 80.3948 37.396V22.767C80.3948 21.7676 79.5645 20.9575 78.5401 20.9575H73.7222V37.9924C73.7222 43.4738 78.3178 47.9582 83.9349 47.9582H86.6657C92.283 47.9582 96.8785 43.4738 96.8785 37.9924V22.767C96.8785 21.7676 96.0484 20.9575 95.0243 20.9575H90.2059Z" fill="white"/>
<path fill-rule="evenodd" clip-rule="evenodd" d="M164.213 47.9581H169.012V24.2497C169.012 23.2498 168.181 22.4397 167.157 22.4397H162.358V46.1482C162.358 47.148 163.189 47.9581 164.213 47.9581Z" fill="#2483FF"/>
<path fill-rule="evenodd" clip-rule="evenodd" d="M165.685 19.8705C167.736 19.8705 169.398 18.2482 169.398 16.2471C169.398 14.2459 167.736 12.624 165.685 12.624C163.634 12.624 161.972 14.2459 161.972 16.2471C161.972 18.2482 163.634 19.8705 165.685 19.8705Z" fill="#2483FF"/>
<path fill-rule="evenodd" clip-rule="evenodd" d="M120.293 36.7478C120.293 39.9688 117.593 42.1129 114.292 42.1129C110.991 42.1129 108.29 39.9688 108.29 36.7478V32.1514C108.29 28.9302 110.991 26.7861 114.292 26.7861C117.593 26.7861 120.293 28.9302 120.293 32.1514V36.7478ZM114.292 20.9409C107.313 20.9409 101.603 25.8124 101.603 32.6223V36.3057C101.603 43.1156 107.313 47.9581 114.292 47.9581C121.27 47.9581 126.981 43.1156 126.981 36.3057V32.6223C126.981 25.8124 121.27 20.9409 114.292 20.9409Z" fill="white"/>
<path fill-rule="evenodd" clip-rule="evenodd" d="M150.493 36.7477C150.493 39.9689 147.792 42.113 144.491 42.113C141.191 42.113 138.49 39.9689 138.49 36.7477V32.1515C138.49 28.9302 141.191 26.7862 144.491 26.7862C147.792 26.7862 150.493 28.9302 150.493 32.1515V36.7477ZM144.491 20.941C142.31 20.941 140.254 21.4169 138.456 22.2791V14.4075C138.456 13.4078 137.625 12.5977 136.601 12.5977H131.802V36.3058C131.802 43.1159 137.513 47.9582 144.491 47.9582C151.471 47.9582 157.181 43.1159 157.181 36.3058V32.6224C157.181 25.8125 151.471 20.941 144.491 20.941Z" fill="#2483FF"/>
<path fill-rule="evenodd" clip-rule="evenodd" d="M21.5046 15.0804C21.5046 8.04501 17.9924 1.99489 15.3209 0.0247198C15.3099 0.0185231 15.1164 -0.0876485 15.1329 0.193686L15.1291 0.202361C14.9073 13.7861 7.79557 17.4678 3.88579 22.4273C-5.13701 33.8723 3.25413 46.4205 11.7989 48.7397C16.58 50.0374 10.6948 46.4437 9.93697 38.853C9.02038 29.6783 21.5046 22.6753 21.5046 15.0804Z" fill="white"/>
<path fill-rule="evenodd" clip-rule="evenodd" d="M25.6044 19.7053C25.5497 19.669 25.4716 19.6442 25.4181 19.731C25.2711 21.4409 23.481 25.0986 21.2123 28.4573C13.5171 39.8499 17.9024 45.3418 20.3681 48.2915C21.7999 50.0039 20.3681 48.2915 23.9468 46.5415C24.2271 46.4045 30.9294 42.7367 31.6551 34.3803C32.3578 26.288 27.3768 21.1872 25.6044 19.7053Z" fill="#2483FF"/>
</svg>
