<svg width="84" height="84" viewBox="0 0 84 84" fill="none" xmlns="http://www.w3.org/2000/svg">
<path d="M2.06159 80C1.94159 80 1.83959 79.958 1.75559 79.874C1.67159 79.79 1.62959 79.688 1.62959 79.568V67.85C1.62959 67.718 1.66559 67.61 1.73759 67.526C1.82159 67.442 1.92959 67.4 2.06159 67.4H9.87359C10.0056 67.4 10.1136 67.442 10.1976 67.526C10.2816 67.61 10.3236 67.718 10.3236 67.85V69.11C10.3236 69.242 10.2816 69.35 10.1976 69.434C10.1136 69.506 10.0056 69.542 9.87359 69.542H4.09559V72.962H9.51359C9.64559 72.962 9.75359 73.004 9.83759 73.088C9.92159 73.172 9.96359 73.28 9.96359 73.412V74.672C9.96359 74.804 9.92159 74.912 9.83759 74.996C9.75359 75.068 9.64559 75.104 9.51359 75.104H4.09559V79.568C4.09559 79.7 4.05359 79.808 3.96959 79.892C3.88559 79.964 3.77759 80 3.64559 80H2.06159ZM14.4851 80.18C13.8731 80.18 13.3091 80.06 12.7931 79.82C12.2891 79.568 11.8871 79.232 11.5871 78.812C11.2991 78.392 11.1551 77.93 11.1551 77.426C11.1551 76.61 11.4851 75.95 12.1451 75.446C12.8051 74.942 13.7111 74.6 14.8631 74.42L17.3291 74.06V73.682C17.3291 73.154 17.1971 72.758 16.9331 72.494C16.6691 72.23 16.2431 72.098 15.6551 72.098C15.2591 72.098 14.9351 72.176 14.6831 72.332C14.4431 72.476 14.2511 72.62 14.1071 72.764C13.9631 72.92 13.8671 73.022 13.8191 73.07C13.7711 73.214 13.6811 73.286 13.5491 73.286H12.1631C12.0551 73.286 11.9591 73.25 11.8751 73.178C11.8031 73.106 11.7671 73.01 11.7671 72.89C11.7791 72.59 11.9231 72.248 12.1991 71.864C12.4871 71.48 12.9251 71.15 13.5131 70.874C14.1011 70.598 14.8211 70.46 15.6731 70.46C17.0891 70.46 18.1211 70.778 18.7691 71.414C19.4171 72.05 19.7411 72.884 19.7411 73.916V79.568C19.7411 79.688 19.6991 79.79 19.6151 79.874C19.5431 79.958 19.4411 80 19.3091 80H17.8511C17.7311 80 17.6291 79.958 17.5451 79.874C17.4611 79.79 17.4191 79.688 17.4191 79.568V78.866C17.1551 79.25 16.7771 79.568 16.2851 79.82C15.8051 80.06 15.2051 80.18 14.4851 80.18ZM15.0971 78.47C15.7571 78.47 16.2971 78.254 16.7171 77.822C17.1371 77.39 17.3471 76.76 17.3471 75.932V75.554L15.5471 75.842C14.8511 75.95 14.3231 76.124 13.9631 76.364C13.6151 76.604 13.4411 76.898 13.4411 77.246C13.4411 77.63 13.6031 77.93 13.9271 78.146C14.2511 78.362 14.6411 78.47 15.0971 78.47ZM26.1003 80.18C24.7803 80.18 23.7243 79.814 22.9323 79.082C22.1523 78.35 21.7383 77.336 21.6903 76.04L21.6723 75.32L21.6903 74.6C21.7383 73.304 22.1523 72.29 22.9323 71.558C23.7243 70.826 24.7803 70.46 26.1003 70.46C27.0363 70.46 27.8283 70.628 28.4763 70.964C29.1363 71.3 29.6223 71.714 29.9343 72.206C30.2583 72.686 30.4323 73.142 30.4563 73.574C30.4683 73.694 30.4263 73.796 30.3303 73.88C30.2463 73.964 30.1443 74.006 30.0243 74.006H28.4403C28.3203 74.006 28.2243 73.982 28.1523 73.934C28.0923 73.874 28.0323 73.778 27.9723 73.646C27.7923 73.178 27.5523 72.842 27.2523 72.638C26.9643 72.434 26.5923 72.332 26.1363 72.332C25.5243 72.332 25.0443 72.53 24.6963 72.926C24.3483 73.31 24.1623 73.898 24.1383 74.69L24.1203 75.356L24.1383 75.95C24.1863 77.522 24.8523 78.308 26.1363 78.308C26.6043 78.308 26.9823 78.206 27.2703 78.002C27.5583 77.798 27.7923 77.462 27.9723 76.994C28.0323 76.862 28.0923 76.772 28.1523 76.724C28.2243 76.664 28.3203 76.634 28.4403 76.634H30.0243C30.1443 76.634 30.2463 76.676 30.3303 76.76C30.4263 76.844 30.4683 76.946 30.4563 77.066C30.4323 77.486 30.2643 77.936 29.9523 78.416C29.6403 78.896 29.1603 79.31 28.5123 79.658C27.8643 80.006 27.0603 80.18 26.1003 80.18ZM36.3655 80.18C35.0335 80.18 33.9715 79.796 33.1795 79.028C32.3995 78.248 31.9855 77.156 31.9375 75.752L31.9195 75.302L31.9375 74.852C31.9975 73.484 32.4175 72.41 33.1975 71.63C33.9895 70.85 35.0455 70.46 36.3655 70.46C37.7815 70.46 38.8735 70.892 39.6415 71.756C40.4215 72.62 40.8115 73.772 40.8115 75.212V75.59C40.8115 75.71 40.7695 75.812 40.6855 75.896C40.6015 75.98 40.4935 76.022 40.3615 76.022H34.3855V76.166C34.4095 76.826 34.5895 77.384 34.9255 77.84C35.2735 78.284 35.7475 78.506 36.3475 78.506C37.0555 78.506 37.6255 78.23 38.0575 77.678C38.1655 77.546 38.2495 77.462 38.3095 77.426C38.3815 77.39 38.4835 77.372 38.6155 77.372H40.1635C40.2715 77.372 40.3615 77.408 40.4335 77.48C40.5175 77.54 40.5595 77.618 40.5595 77.714C40.5595 78.002 40.3855 78.344 40.0375 78.74C39.7015 79.124 39.2155 79.46 38.5795 79.748C37.9435 80.036 37.2055 80.18 36.3655 80.18ZM38.3635 74.51V74.456C38.3635 73.748 38.1835 73.178 37.8235 72.746C37.4755 72.314 36.9895 72.098 36.3655 72.098C35.7415 72.098 35.2555 72.314 34.9075 72.746C34.5595 73.178 34.3855 73.748 34.3855 74.456V74.51H38.3635ZM47.9062 80.18C46.6702 80.18 45.7102 79.754 45.0262 78.902V79.568C45.0262 79.688 44.9842 79.79 44.9002 79.874C44.8282 79.958 44.7262 80 44.5942 80H43.1722C43.0522 80 42.9502 79.958 42.8662 79.874C42.7822 79.79 42.7402 79.688 42.7402 79.568V67.652C42.7402 67.52 42.7822 67.418 42.8662 67.346C42.9502 67.262 43.0522 67.22 43.1722 67.22H44.7022C44.8342 67.22 44.9362 67.262 45.0082 67.346C45.0922 67.418 45.1342 67.52 45.1342 67.652V71.648C45.8182 70.856 46.7422 70.46 47.9062 70.46C49.1182 70.46 50.0482 70.856 50.6962 71.648C51.3442 72.44 51.6922 73.466 51.7402 74.726C51.7522 74.87 51.7582 75.062 51.7582 75.302C51.7582 75.554 51.7522 75.752 51.7402 75.896C51.6922 77.192 51.3442 78.23 50.6962 79.01C50.0482 79.79 49.1182 80.18 47.9062 80.18ZM47.2402 78.254C48.5362 78.254 49.2262 77.456 49.3102 75.86C49.3222 75.74 49.3282 75.56 49.3282 75.32C49.3282 75.08 49.3222 74.9 49.3102 74.78C49.2262 73.184 48.5362 72.386 47.2402 72.386C46.5682 72.386 46.0522 72.602 45.6922 73.034C45.3442 73.454 45.1582 73.964 45.1342 74.564L45.1162 75.248L45.1342 75.95C45.1702 76.598 45.3562 77.144 45.6922 77.588C46.0282 78.032 46.5442 78.254 47.2402 78.254ZM57.9012 80.18C56.4972 80.18 55.4112 79.82 54.6432 79.1C53.8752 78.368 53.4612 77.372 53.4012 76.112L53.3832 75.32L53.4012 74.528C53.4612 73.28 53.8812 72.29 54.6612 71.558C55.4412 70.826 56.5212 70.46 57.9012 70.46C59.2812 70.46 60.3612 70.826 61.1412 71.558C61.9212 72.29 62.3412 73.28 62.4012 74.528C62.4132 74.672 62.4192 74.936 62.4192 75.32C62.4192 75.704 62.4132 75.968 62.4012 76.112C62.3412 77.372 61.9272 78.368 61.1592 79.1C60.3912 79.82 59.3052 80.18 57.9012 80.18ZM57.9012 78.398C58.5372 78.398 59.0292 78.2 59.3772 77.804C59.7252 77.396 59.9172 76.802 59.9532 76.022C59.9652 75.902 59.9712 75.668 59.9712 75.32C59.9712 74.972 59.9652 74.738 59.9532 74.618C59.9172 73.838 59.7252 73.25 59.3772 72.854C59.0292 72.446 58.5372 72.242 57.9012 72.242C57.2652 72.242 56.7732 72.446 56.4252 72.854C56.0772 73.25 55.8852 73.838 55.8492 74.618L55.8312 75.32L55.8492 76.022C55.8852 76.802 56.0772 77.396 56.4252 77.804C56.7732 78.2 57.2652 78.398 57.9012 78.398ZM68.5536 80.18C67.1496 80.18 66.0636 79.82 65.2956 79.1C64.5276 78.368 64.1136 77.372 64.0536 76.112L64.0356 75.32L64.0536 74.528C64.1136 73.28 64.5336 72.29 65.3136 71.558C66.0936 70.826 67.1736 70.46 68.5536 70.46C69.9336 70.46 71.0136 70.826 71.7936 71.558C72.5736 72.29 72.9936 73.28 73.0536 74.528C73.0656 74.672 73.0716 74.936 73.0716 75.32C73.0716 75.704 73.0656 75.968 73.0536 76.112C72.9936 77.372 72.5796 78.368 71.8116 79.1C71.0436 79.82 69.9576 80.18 68.5536 80.18ZM68.5536 78.398C69.1896 78.398 69.6816 78.2 70.0296 77.804C70.3776 77.396 70.5696 76.802 70.6056 76.022C70.6176 75.902 70.6236 75.668 70.6236 75.32C70.6236 74.972 70.6176 74.738 70.6056 74.618C70.5696 73.838 70.3776 73.25 70.0296 72.854C69.6816 72.446 69.1896 72.242 68.5536 72.242C67.9176 72.242 67.4256 72.446 67.0776 72.854C66.7296 73.25 66.5376 73.838 66.5016 74.618L66.4836 75.32L66.5016 76.022C66.5376 76.802 66.7296 77.396 67.0776 77.804C67.4256 78.2 67.9176 78.398 68.5536 78.398ZM75.5159 80C75.3959 80 75.2939 79.958 75.2099 79.874C75.1259 79.79 75.0839 79.688 75.0839 79.568V67.652C75.0839 67.52 75.1259 67.418 75.2099 67.346C75.2939 67.262 75.3959 67.22 75.5159 67.22H76.9739C77.1059 67.22 77.2079 67.262 77.2799 67.346C77.3639 67.418 77.4059 67.52 77.4059 67.652V73.808L80.4299 70.946C80.4659 70.922 80.5259 70.874 80.6099 70.802C80.6819 70.742 80.7539 70.7 80.8259 70.676C80.8979 70.652 80.9879 70.64 81.0959 70.64H82.7699C82.8899 70.64 82.9859 70.676 83.0579 70.748C83.1299 70.82 83.1659 70.916 83.1659 71.036C83.1659 71.144 83.1059 71.252 82.9859 71.36L79.2779 74.834L83.4359 79.298C83.5559 79.418 83.6159 79.52 83.6159 79.604C83.6159 79.724 83.5739 79.82 83.4899 79.892C83.4179 79.964 83.3279 80 83.2199 80H81.5099C81.3419 80 81.2159 79.982 81.1319 79.946C81.0599 79.898 80.9639 79.814 80.8439 79.694L77.4059 76.076V79.568C77.4059 79.688 77.3639 79.79 77.2799 79.874C77.2079 79.958 77.1059 80 76.9739 80H75.5159Z" fill="white"/>
<path fill-rule="evenodd" clip-rule="evenodd" d="M19.25 25C19.25 34.2708 26.0208 41.9792 34.875 43.5417L34.9795 43.4581C34.9447 43.4513 34.9098 43.4445 34.875 43.4375V30.2083H30.1875V25H34.875V20.8333C34.875 16.1458 37.8958 13.5417 42.1667 13.5417C43.5208 13.5417 44.9792 13.75 46.3333 13.9583V18.75H43.9375C41.6458 18.75 41.125 19.8958 41.125 21.3542V25H46.125L45.2917 30.2083H41.125V43.4375C41.0902 43.4445 41.0553 43.4513 41.0205 43.4581L41.125 43.5417C49.9792 41.9792 56.75 34.2708 56.75 25C56.75 14.6875 48.3125 6.25 38 6.25C27.6875 6.25 19.25 14.6875 19.25 25Z" fill="#F87A11"/>
</svg>
