<svg width="440" height="367" viewBox="0 0 440 367" fill="none" xmlns="http://www.w3.org/2000/svg">
<path d="M72.5068 0H8.27741C3.70592 0 0 3.7151 0 8.29791V72.6864C0 77.2692 3.70592 80.9843 8.27741 80.9843H72.5068C77.0783 80.9843 80.7842 77.2692 80.7842 72.6864V8.29791C80.7842 3.7151 77.0783 0 72.5068 0Z" fill="#FFD3A2"/>
<path fill-rule="evenodd" clip-rule="evenodd" d="M49.8989 57.4172L44.0658 58.9863V56.9235L43.6006 56.4505H40.2656V60.5555H43.8357L48.2302 58.6212L49.8989 57.4172Z" fill="#CDBDB2"/>
<path fill-rule="evenodd" clip-rule="evenodd" d="M30.8857 57.4172L36.5897 58.9863V56.9235L37.0756 56.4505H40.3924V60.5555H36.8223L32.4278 58.6212L30.8857 57.4172Z" fill="#CDBDB2"/>
<path fill-rule="evenodd" clip-rule="evenodd" d="M43.6036 52.9463L44.0688 56.9227L43.477 56.4497H37.3078L36.5894 56.9227L37.0752 52.9463L38.028 52.3447L42.7817 52.4526L43.6036 52.9463Z" fill="white"/>
<path fill-rule="evenodd" clip-rule="evenodd" d="M46.8197 25.9731L43.964 32.7434L42.6537 52.4517H38.0266L36.5905 32.7434L33.9707 25.9731H46.8197Z" fill="#F89C35"/>
<path fill-rule="evenodd" clip-rule="evenodd" d="M59.2803 40.8465L62.6185 50.6471L54.2948 50.1493H48.9492V45.9173L49.1818 37.2344L50.3895 38.1803L59.2803 40.8465Z" fill="#F89D35"/>
<path fill-rule="evenodd" clip-rule="evenodd" d="M52.9829 41.9429L43.2437 42.1794L44.3197 47.2519L48.9468 46.0487L52.9829 41.9429Z" fill="#D87C30"/>
<path fill-rule="evenodd" clip-rule="evenodd" d="M52.983 42.0503L48.9478 45.9188V49.7873L52.983 42.0503Z" fill="#EA8D3A"/>
<path fill-rule="evenodd" clip-rule="evenodd" d="M48.9477 46.0464L44.1939 47.2496L42.6519 52.4507L43.7279 53.0523L48.9427 49.914L48.9477 46.0464Z" fill="#F89D35"/>
<path fill-rule="evenodd" clip-rule="evenodd" d="M48.9487 49.9167L49.8998 57.4172L43.604 52.9471L48.9487 49.9167Z" fill="#EB8F35"/>
<path fill-rule="evenodd" clip-rule="evenodd" d="M43.2477 42.1792L42.6567 52.452L44.4298 47.2077L43.2477 42.1792Z" fill="#EA8E3A"/>
<path fill-rule="evenodd" clip-rule="evenodd" d="M54.4214 50.0454L48.9492 49.9167L49.9003 57.4172L54.4214 50.0454Z" fill="#D87C30"/>
<path fill-rule="evenodd" clip-rule="evenodd" d="M59.9988 60.6833L49.9004 57.4164L54.4215 50.0445L62.6161 50.6461L59.9988 60.6833Z" fill="#EB8F35"/>
<path fill-rule="evenodd" clip-rule="evenodd" d="M43.9613 32.7437L49.0767 37.1067L52.9853 41.9427L43.2461 42.3078L43.9613 32.7437Z" fill="#E8821E"/>
<path fill-rule="evenodd" clip-rule="evenodd" d="M49.8998 57.4167L43.604 52.9458L44.0692 56.8143V58.985L48.3577 58.1469L49.8998 57.4167Z" fill="#DFCEC3"/>
<path fill-rule="evenodd" clip-rule="evenodd" d="M30.8857 57.4167L37.0756 52.9458L36.5897 56.8143V58.985L32.3219 58.1469L30.8857 57.4167Z" fill="#DFCEC3"/>
<path fill-rule="evenodd" clip-rule="evenodd" d="M45.8659 44.3488L44.5581 47.1427L49.1852 45.918L45.8659 44.3488Z" fill="white"/>
<path fill-rule="evenodd" clip-rule="evenodd" d="M60.1295 20.2998L43.9653 32.7467L46.6911 25.9764L60.1295 20.2998Z" fill="#E88F35"/>
<path fill-rule="evenodd" clip-rule="evenodd" d="M60.1253 20.2998L62.2593 26.9381L61.0764 34.2021L61.9042 34.6751L60.7213 35.7713L61.6724 36.6094L60.3629 37.8126L61.1907 38.5436L59.2868 40.95L50.3646 38.1818C46.0124 34.6353 43.8569 32.8297 43.9414 32.7467C44.0258 32.6637 49.4351 28.5098 60.1253 20.2998Z" fill="#8E5A30"/>
<path fill-rule="evenodd" clip-rule="evenodd" d="M21.5048 40.8465L18.1665 50.6471L26.4903 50.1493H31.8358V45.9173L31.6032 37.2344L30.4171 38.1803L21.5048 40.8465Z" fill="#F89D35"/>
<path fill-rule="evenodd" clip-rule="evenodd" d="M27.8013 41.9429L37.5405 42.1794L36.4843 47.2519L31.8365 46.0487L27.8013 41.9429Z" fill="#D87C30"/>
<path fill-rule="evenodd" clip-rule="evenodd" d="M27.8013 42.0503L31.8365 45.9188V49.7873L27.8013 42.0503Z" fill="#EA8D3A"/>
<path fill-rule="evenodd" clip-rule="evenodd" d="M31.8369 46.0464L36.5906 47.2496L38.1327 52.4507L37.0765 53.0523L31.8369 49.914V46.0464Z" fill="#F89D35"/>
<path fill-rule="evenodd" clip-rule="evenodd" d="M31.8324 49.9167L30.8813 57.4172L37.072 53.0542L31.8324 49.9167Z" fill="#EB8F35"/>
<path fill-rule="evenodd" clip-rule="evenodd" d="M37.5389 42.1792L38.13 52.4528L36.3569 47.2086L37.5389 42.1792Z" fill="#EA8E3A"/>
<path fill-rule="evenodd" clip-rule="evenodd" d="M26.3638 50.0454L31.836 49.9167L30.8849 57.4172L26.3638 50.0454Z" fill="#D87C30"/>
<path fill-rule="evenodd" clip-rule="evenodd" d="M20.7863 60.6833L30.8847 57.4164L26.3611 50.0445L18.1665 50.6461L20.7863 60.6833Z" fill="#EB8F35"/>
<path fill-rule="evenodd" clip-rule="evenodd" d="M36.8228 32.7437L31.7099 37.1067L27.8013 41.9427L37.5405 42.3078L36.8228 32.7437Z" fill="#E8821E"/>
<path fill-rule="evenodd" clip-rule="evenodd" d="M34.9201 44.3488L36.2296 47.1427L31.6025 45.918L34.9201 44.3488Z" fill="white"/>
<path fill-rule="evenodd" clip-rule="evenodd" d="M20.6646 20.2998L36.8229 32.7467L34.0971 25.9764L20.6646 20.2998Z" fill="#E88F35"/>
<path fill-rule="evenodd" clip-rule="evenodd" d="M20.6588 20.2998L18.5249 26.9381L19.7077 34.2021L18.88 34.6751L20.0628 35.7713L19.1118 36.6094L20.4213 37.8126L19.5935 38.5436L21.4973 40.95L30.4195 38.1818C34.7718 34.6353 36.9272 32.8297 36.8428 32.7467C36.7584 32.6637 31.3706 28.5098 20.6588 20.2998Z" fill="#8E5A30"/>
<path d="M9.1709 91.6672L12.6572 100.368L16.1436 91.6672H17.9673V102.331H16.561V98.1785L16.6929 93.696L13.1919 102.331H12.1152L8.62158 93.718L8.76074 98.1785V102.331H7.35449V91.6672H9.1709ZM23.5264 102.478C22.4521 102.478 21.5781 102.126 20.9043 101.423C20.2305 100.715 19.8936 99.7703 19.8936 98.5886V98.3396C19.8936 97.5535 20.0425 96.8528 20.3403 96.2375C20.6431 95.6174 21.063 95.134 21.6001 94.7874C22.1421 94.4358 22.728 94.26 23.3579 94.26C24.3882 94.26 25.189 94.5994 25.7603 95.2781C26.3315 95.9568 26.6172 96.9285 26.6172 98.1931V98.7571H21.2485C21.2681 99.5383 21.4951 100.171 21.9297 100.654C22.3691 101.133 22.9258 101.372 23.5996 101.372C24.0781 101.372 24.4834 101.274 24.8154 101.079C25.1475 100.884 25.438 100.625 25.687 100.302L26.5146 100.947C25.8506 101.968 24.8545 102.478 23.5264 102.478ZM23.3579 95.3733C22.811 95.3733 22.3521 95.5735 21.981 95.9739C21.6099 96.3694 21.3804 96.926 21.2925 97.6438H25.2622V97.5413C25.2231 96.8528 25.0376 96.3206 24.7056 95.9446C24.3735 95.5637 23.9243 95.3733 23.3579 95.3733ZM30.0303 92.4875V94.4065H31.5098V95.4539H30.0303V100.368C30.0303 100.686 30.0962 100.925 30.228 101.086C30.3599 101.242 30.5845 101.321 30.9019 101.321C31.0581 101.321 31.2729 101.291 31.5464 101.233V102.331C31.1899 102.429 30.8433 102.478 30.5063 102.478C29.9009 102.478 29.4443 102.295 29.1367 101.928C28.8291 101.562 28.6753 101.042 28.6753 100.368V95.4539H27.2324V94.4065H28.6753V92.4875H30.0303ZM37.9917 102.331C37.9136 102.175 37.8501 101.897 37.8013 101.496C37.1714 102.151 36.4194 102.478 35.5454 102.478C34.7642 102.478 34.1221 102.258 33.6191 101.819C33.1211 101.374 32.8721 100.813 32.8721 100.134C32.8721 99.3088 33.1846 98.6692 33.8096 98.2151C34.4395 97.7561 35.3232 97.5266 36.4609 97.5266H37.7793V96.9041C37.7793 96.4304 37.6377 96.0544 37.3545 95.7761C37.0713 95.4929 36.6538 95.3513 36.1021 95.3513C35.6187 95.3513 35.2134 95.4734 34.8862 95.7175C34.5591 95.9617 34.3955 96.2571 34.3955 96.6038H33.0332C33.0332 96.2083 33.1724 95.8274 33.4507 95.4612C33.7339 95.0901 34.1147 94.7971 34.5933 94.5823C35.0767 94.3674 35.6064 94.26 36.1826 94.26C37.0957 94.26 37.811 94.4895 38.3286 94.9485C38.8462 95.4026 39.1147 96.03 39.1343 96.8308V100.478C39.1343 101.206 39.2271 101.784 39.4126 102.214V102.331H37.9917ZM35.7432 101.299C36.168 101.299 36.5708 101.189 36.9517 100.969C37.3325 100.749 37.6084 100.464 37.7793 100.112V98.4861H36.7173C35.0571 98.4861 34.2271 98.9719 34.2271 99.9436C34.2271 100.368 34.3687 100.7 34.6519 100.94C34.9351 101.179 35.2988 101.299 35.7432 101.299ZM42.5327 94.4065L42.5693 95.2854C43.1504 94.6018 43.9341 94.26 44.9204 94.26C46.0288 94.26 46.7832 94.6848 47.1836 95.5344C47.4473 95.1536 47.7891 94.8459 48.209 94.6116C48.6338 94.3772 49.1343 94.26 49.7104 94.26C51.4487 94.26 52.3325 95.1804 52.3618 97.0212V102.331H51.0068V97.1018C51.0068 96.5354 50.8774 96.113 50.6187 95.8347C50.3599 95.5515 49.9253 95.4099 49.3149 95.4099C48.812 95.4099 48.3945 95.5613 48.0625 95.864C47.7305 96.1619 47.5376 96.5647 47.4839 97.0725V102.331H46.1216V97.1384C46.1216 95.9861 45.5576 95.4099 44.4297 95.4099C43.541 95.4099 42.9331 95.7883 42.606 96.5452V102.331H41.251V94.4065H42.5327ZM59.3052 102.331C59.2271 102.175 59.1636 101.897 59.1147 101.496C58.4849 102.151 57.7329 102.478 56.8589 102.478C56.0776 102.478 55.4355 102.258 54.9326 101.819C54.4346 101.374 54.1855 100.813 54.1855 100.134C54.1855 99.3088 54.498 98.6692 55.123 98.2151C55.7529 97.7561 56.6367 97.5266 57.7744 97.5266H59.0928V96.9041C59.0928 96.4304 58.9512 96.0544 58.668 95.7761C58.3848 95.4929 57.9673 95.3513 57.4155 95.3513C56.9321 95.3513 56.5269 95.4734 56.1997 95.7175C55.8726 95.9617 55.709 96.2571 55.709 96.6038H54.3467C54.3467 96.2083 54.4858 95.8274 54.7642 95.4612C55.0474 95.0901 55.4282 94.7971 55.9067 94.5823C56.3901 94.3674 56.9199 94.26 57.4961 94.26C58.4092 94.26 59.1245 94.4895 59.6421 94.9485C60.1597 95.4026 60.4282 96.03 60.4478 96.8308V100.478C60.4478 101.206 60.5405 101.784 60.7261 102.214V102.331H59.3052ZM57.0566 101.299C57.4814 101.299 57.8843 101.189 58.2651 100.969C58.646 100.749 58.9219 100.464 59.0928 100.112V98.4861H58.0308C56.3706 98.4861 55.5405 98.9719 55.5405 99.9436C55.5405 100.368 55.6821 100.7 55.9653 100.94C56.2485 101.179 56.6123 101.299 57.0566 101.299ZM67.186 100.229C67.186 99.863 67.0469 99.5798 66.7686 99.3796C66.4951 99.1746 66.0142 98.9988 65.3257 98.8523C64.6421 98.7058 64.0977 98.53 63.6924 98.325C63.292 98.1199 62.9941 97.8757 62.7988 97.5925C62.6084 97.3093 62.5132 96.9724 62.5132 96.5818C62.5132 95.9324 62.7866 95.3831 63.3335 94.9338C63.8853 94.4846 64.5884 94.26 65.4429 94.26C66.3413 94.26 67.0688 94.4919 67.6255 94.9558C68.187 95.4197 68.4678 96.0129 68.4678 96.7356H67.1055C67.1055 96.3645 66.9468 96.0447 66.6294 95.7761C66.3169 95.5076 65.9214 95.3733 65.4429 95.3733C64.9497 95.3733 64.564 95.4807 64.2856 95.6956C64.0073 95.9104 63.8682 96.1912 63.8682 96.5378C63.8682 96.865 63.9976 97.1116 64.2563 97.2776C64.5151 97.4436 64.9814 97.6023 65.6553 97.7537C66.334 97.905 66.8833 98.0857 67.3032 98.2957C67.7231 98.5056 68.0332 98.7595 68.2334 99.0574C68.4385 99.3503 68.541 99.7092 68.541 100.134C68.541 100.842 68.2578 101.411 67.6914 101.841C67.125 102.265 66.3901 102.478 65.4868 102.478C64.8521 102.478 64.2905 102.365 63.8022 102.141C63.314 101.916 62.9307 101.604 62.6523 101.203C62.3789 100.798 62.2422 100.361 62.2422 99.8923H63.5972C63.6216 100.346 63.8022 100.708 64.1392 100.976C64.481 101.24 64.9302 101.372 65.4868 101.372C65.9995 101.372 66.4097 101.269 66.7173 101.064C67.0298 100.854 67.186 100.576 67.186 100.229ZM72.5181 98.6619L71.6685 99.5481V102.331H70.3135V91.0813H71.6685V97.8855L72.3936 97.0139L74.8618 94.4065H76.5098L73.4263 97.717L76.8687 102.331H75.2793L72.5181 98.6619Z" fill="white"/>
<path d="M195.507 125H131.277C126.706 125 123 128.715 123 133.298V197.686C123 202.269 126.706 205.984 131.277 205.984H195.507C200.078 205.984 203.784 202.269 203.784 197.686V133.298C203.784 128.715 200.078 125 195.507 125Z" fill="#D9ECFF"/>
<path fill-rule="evenodd" clip-rule="evenodd" d="M163.392 157.78C159.005 157.78 155.625 160.27 153.74 162.012C153.606 162.138 153.429 162.208 153.245 162.206C153.061 162.204 152.884 162.132 152.752 162.004L149.79 159.089C149.722 159.024 149.669 158.947 149.633 158.861C149.596 158.775 149.578 158.683 149.578 158.59C149.579 158.497 149.598 158.405 149.635 158.319C149.672 158.234 149.726 158.157 149.794 158.093C152.053 155.985 156.806 152.27 163.392 152.27C169.978 152.27 174.732 155.985 176.986 158.095C177.054 158.159 177.108 158.235 177.145 158.321C177.182 158.406 177.201 158.498 177.201 158.592C177.202 158.685 177.183 158.777 177.147 158.863C177.111 158.949 177.057 159.026 176.99 159.09L174.032 162.003C173.9 162.131 173.723 162.204 173.539 162.205C173.355 162.207 173.178 162.137 173.043 162.011C171.159 160.268 167.777 157.78 163.392 157.78ZM141.506 167.638C141.437 167.576 141.381 167.5 141.342 167.416C141.302 167.331 141.28 167.24 141.276 167.147C141.272 167.054 141.286 166.961 141.318 166.873C141.351 166.786 141.4 166.706 141.463 166.637L144.289 163.602C144.414 163.467 144.587 163.386 144.77 163.377C144.954 163.368 145.133 163.432 145.27 163.555L153.615 171.086C153.743 171.201 153.909 171.266 154.081 171.266C154.253 171.267 154.42 171.204 154.548 171.09L162.928 163.665C163.056 163.552 163.221 163.489 163.392 163.489C163.563 163.489 163.728 163.552 163.856 163.665L172.236 171.09C172.365 171.204 172.532 171.267 172.704 171.266C172.876 171.266 173.041 171.201 173.169 171.086L181.514 163.555C181.65 163.431 181.829 163.367 182.013 163.375C182.196 163.383 182.369 163.462 182.495 163.597L185.32 166.632C185.384 166.701 185.433 166.781 185.466 166.868C185.498 166.956 185.512 167.049 185.508 167.142C185.504 167.235 185.482 167.326 185.442 167.411C185.403 167.495 185.347 167.571 185.277 167.633L173.202 178.535C173.074 178.65 172.909 178.715 172.737 178.715C172.565 178.716 172.398 178.653 172.269 178.539L163.855 171.083C163.727 170.97 163.562 170.907 163.392 170.907C163.221 170.907 163.056 170.97 162.928 171.083L154.514 178.539C154.385 178.653 154.218 178.716 154.046 178.715C153.874 178.715 153.709 178.65 153.581 178.535L141.506 167.638Z" fill="#278FFC"/>
<path d="M119.805 223.969L120.01 225.376L120.311 224.109L122.42 216.667H123.606L125.665 224.109L125.958 225.398L126.185 223.962L127.84 216.667H129.253L126.668 227.331H125.386L123.189 219.56L123.021 218.747L122.852 219.56L120.574 227.331H119.292L116.714 216.667H118.121L119.805 223.969ZM135.252 227.331C135.174 227.175 135.11 226.897 135.062 226.496C134.432 227.151 133.68 227.478 132.806 227.478C132.024 227.478 131.382 227.258 130.879 226.819C130.381 226.374 130.132 225.813 130.132 225.134C130.132 224.309 130.445 223.669 131.07 223.215C131.7 222.756 132.583 222.527 133.721 222.527H135.04V221.904C135.04 221.43 134.898 221.054 134.615 220.776C134.332 220.493 133.914 220.351 133.362 220.351C132.879 220.351 132.474 220.473 132.146 220.718C131.819 220.962 131.656 221.257 131.656 221.604H130.293C130.293 221.208 130.433 220.827 130.711 220.461C130.994 220.09 131.375 219.797 131.854 219.582C132.337 219.367 132.867 219.26 133.443 219.26C134.356 219.26 135.071 219.49 135.589 219.948C136.106 220.403 136.375 221.03 136.395 221.831V225.478C136.395 226.206 136.487 226.784 136.673 227.214V227.331H135.252ZM133.003 226.299C133.428 226.299 133.831 226.189 134.212 225.969C134.593 225.749 134.869 225.464 135.04 225.112V223.486H133.978C132.317 223.486 131.487 223.972 131.487 224.944C131.487 225.368 131.629 225.7 131.912 225.94C132.195 226.179 132.559 226.299 133.003 226.299ZM139.991 227.331H138.636V216.081H139.991V227.331ZM143.638 227.331H142.283V216.081H143.638V227.331ZM149.102 227.478C148.028 227.478 147.154 227.126 146.48 226.423C145.806 225.715 145.469 224.77 145.469 223.589V223.34C145.469 222.553 145.618 221.853 145.916 221.238C146.219 220.617 146.639 220.134 147.176 219.787C147.718 219.436 148.304 219.26 148.934 219.26C149.964 219.26 150.765 219.599 151.336 220.278C151.907 220.957 152.193 221.928 152.193 223.193V223.757H146.824C146.844 224.538 147.071 225.171 147.505 225.654C147.945 226.133 148.501 226.372 149.175 226.372C149.654 226.372 150.059 226.274 150.391 226.079C150.723 225.884 151.014 225.625 151.263 225.302L152.09 225.947C151.426 226.968 150.43 227.478 149.102 227.478ZM148.934 220.373C148.387 220.373 147.928 220.573 147.557 220.974C147.186 221.369 146.956 221.926 146.868 222.644H150.838V222.541C150.799 221.853 150.613 221.321 150.281 220.945C149.949 220.564 149.5 220.373 148.934 220.373ZM155.606 217.488V219.406H157.085V220.454H155.606V225.368C155.606 225.686 155.672 225.925 155.804 226.086C155.936 226.242 156.16 226.321 156.478 226.321C156.634 226.321 156.849 226.291 157.122 226.233V227.331C156.766 227.429 156.419 227.478 156.082 227.478C155.477 227.478 155.02 227.295 154.712 226.928C154.405 226.562 154.251 226.042 154.251 225.368V220.454H152.808V219.406H154.251V217.488H155.606ZM166.731 223.948C166.6 225.075 166.182 225.947 165.479 226.562C164.781 227.173 163.851 227.478 162.688 227.478C161.429 227.478 160.418 227.026 159.656 226.123C158.899 225.219 158.521 224.011 158.521 222.497V221.472C158.521 220.481 158.697 219.609 159.048 218.857C159.405 218.105 159.908 217.529 160.557 217.129C161.207 216.723 161.958 216.521 162.813 216.521C163.946 216.521 164.854 216.838 165.538 217.473C166.221 218.103 166.619 218.977 166.731 220.095H165.318C165.196 219.245 164.93 218.63 164.52 218.249C164.114 217.868 163.545 217.678 162.813 217.678C161.915 217.678 161.209 218.01 160.696 218.674C160.188 219.338 159.935 220.283 159.935 221.509V222.541C159.935 223.698 160.176 224.619 160.66 225.302C161.143 225.986 161.819 226.328 162.688 226.328C163.47 226.328 164.068 226.152 164.483 225.801C164.903 225.444 165.181 224.826 165.318 223.948H166.731ZM168.086 223.296C168.086 222.519 168.238 221.821 168.541 221.201C168.848 220.581 169.273 220.102 169.815 219.765C170.362 219.428 170.984 219.26 171.683 219.26C172.762 219.26 173.633 219.634 174.297 220.381C174.966 221.128 175.301 222.121 175.301 223.362V223.457C175.301 224.228 175.152 224.922 174.854 225.537C174.561 226.147 174.139 226.623 173.587 226.965C173.04 227.307 172.41 227.478 171.697 227.478C170.623 227.478 169.751 227.104 169.083 226.357C168.418 225.61 168.086 224.621 168.086 223.391V223.296ZM169.449 223.457C169.449 224.336 169.651 225.041 170.057 225.573C170.467 226.106 171.014 226.372 171.697 226.372C172.386 226.372 172.933 226.103 173.338 225.566C173.743 225.024 173.946 224.267 173.946 223.296C173.946 222.427 173.738 221.723 173.323 221.186C172.913 220.644 172.366 220.373 171.683 220.373C171.014 220.373 170.474 220.639 170.064 221.172C169.654 221.704 169.449 222.466 169.449 223.457ZM178.282 219.406L178.326 220.403C178.931 219.641 179.722 219.26 180.699 219.26C182.374 219.26 183.218 220.205 183.233 222.094V227.331H181.878V222.087C181.873 221.516 181.741 221.094 181.482 220.82C181.229 220.547 180.831 220.41 180.289 220.41C179.849 220.41 179.463 220.527 179.131 220.761C178.799 220.996 178.541 221.303 178.355 221.684V227.331H177V219.406H178.282ZM186.558 219.406L186.602 220.403C187.208 219.641 187.999 219.26 188.975 219.26C190.65 219.26 191.495 220.205 191.509 222.094V227.331H190.154V222.087C190.149 221.516 190.018 221.094 189.759 220.82C189.505 220.547 189.107 220.41 188.565 220.41C188.125 220.41 187.74 220.527 187.408 220.761C187.076 220.996 186.817 221.303 186.631 221.684V227.331H185.276V219.406H186.558ZM196.841 227.478C195.767 227.478 194.893 227.126 194.219 226.423C193.545 225.715 193.208 224.77 193.208 223.589V223.34C193.208 222.553 193.357 221.853 193.655 221.238C193.958 220.617 194.378 220.134 194.915 219.787C195.457 219.436 196.043 219.26 196.673 219.26C197.703 219.26 198.504 219.599 199.075 220.278C199.646 220.957 199.932 221.928 199.932 223.193V223.757H194.563C194.583 224.538 194.81 225.171 195.245 225.654C195.684 226.133 196.241 226.372 196.915 226.372C197.393 226.372 197.798 226.274 198.13 226.079C198.462 225.884 198.753 225.625 199.002 225.302L199.83 225.947C199.166 226.968 198.169 227.478 196.841 227.478ZM196.673 220.373C196.126 220.373 195.667 220.573 195.296 220.974C194.925 221.369 194.695 221.926 194.607 222.644H198.577V222.541C198.538 221.853 198.353 221.321 198.021 220.945C197.688 220.564 197.239 220.373 196.673 220.373ZM204.686 226.372C205.169 226.372 205.591 226.225 205.953 225.932C206.314 225.639 206.514 225.273 206.553 224.834H207.835C207.811 225.288 207.654 225.72 207.366 226.13C207.078 226.54 206.692 226.867 206.209 227.112C205.73 227.356 205.223 227.478 204.686 227.478C203.606 227.478 202.747 227.119 202.107 226.401C201.473 225.678 201.155 224.692 201.155 223.442V223.215C201.155 222.444 201.297 221.758 201.58 221.157C201.863 220.556 202.269 220.09 202.796 219.758C203.328 219.426 203.956 219.26 204.678 219.26C205.567 219.26 206.304 219.526 206.89 220.058C207.481 220.591 207.796 221.281 207.835 222.131H206.553C206.514 221.618 206.319 221.198 205.967 220.871C205.621 220.539 205.191 220.373 204.678 220.373C203.99 220.373 203.455 220.622 203.074 221.12C202.698 221.614 202.51 222.329 202.51 223.266V223.523C202.51 224.436 202.698 225.139 203.074 225.632C203.45 226.125 203.987 226.372 204.686 226.372ZM211.197 217.488V219.406H212.676V220.454H211.197V225.368C211.197 225.686 211.263 225.925 211.395 226.086C211.526 226.242 211.751 226.321 212.068 226.321C212.225 226.321 212.439 226.291 212.713 226.233V227.331C212.356 227.429 212.01 227.478 211.673 227.478C211.067 227.478 210.611 227.295 210.303 226.928C209.996 226.562 209.842 226.042 209.842 225.368V220.454H208.399V219.406H209.842V217.488H211.197Z" fill="white"/>
<path d="M72.5068 242.796H8.27741C3.70592 242.796 0 246.511 0 251.094V315.482C0 320.065 3.70592 323.78 8.27741 323.78H72.5068C77.0783 323.78 80.7842 320.065 80.7842 315.482V251.094C80.7842 246.511 77.0783 242.796 72.5068 242.796Z" fill="#DCECFF"/>
<path fill-rule="evenodd" clip-rule="evenodd" d="M46.8867 298.567C46.7687 298.685 46.6089 298.751 46.4422 298.751C46.2755 298.751 46.1156 298.685 45.9977 298.567L22.4369 274.95C22.3191 274.831 22.2529 274.671 22.2529 274.504C22.2529 274.337 22.3191 274.177 22.4369 274.058L29.8749 266.602C34.531 261.934 41.5833 261.199 46.5175 268.925C46.5875 269.033 46.6863 269.119 46.8027 269.173C46.9191 269.227 47.0483 269.247 47.1756 269.231C55.1351 268.227 65.9951 279.415 57.4768 287.953L46.8867 298.567ZM37.7343 278.331C37.6164 278.449 37.4565 278.515 37.2898 278.515C37.1232 278.515 36.9633 278.449 36.8453 278.331L34.4747 275.955C34.3569 275.837 34.2908 275.677 34.2908 275.51C34.2908 275.343 34.3569 275.182 34.4747 275.064L36.3951 273.139C37.9678 271.562 41.2316 274.826 39.6547 276.407L37.7343 278.331ZM45.8843 286.501C45.7663 286.619 45.6065 286.685 45.4398 286.685C45.2731 286.685 45.1132 286.619 44.9953 286.501L42.6246 284.125C42.5069 284.006 42.4407 283.846 42.4407 283.679C42.4407 283.512 42.5069 283.352 42.6246 283.233L47.6979 278.148C49.2706 276.571 52.5344 279.835 50.9575 281.415L45.8843 286.501Z" fill="#2926CF"/>
<path d="M25.8025 284.646L42.8423 301.728C42.9601 301.846 43.0263 302.006 43.0263 302.173C43.0263 302.34 42.9601 302.501 42.8423 302.619L40.5818 304.888C40.4638 305.006 40.304 305.073 40.1373 305.073C39.9706 305.073 39.8107 305.006 39.6928 304.888L22.6488 287.81C22.531 287.692 22.4648 287.532 22.4648 287.365C22.4648 287.198 22.531 287.037 22.6488 286.919L24.9126 284.65C24.9708 284.591 25.0399 284.544 25.1161 284.512C25.1923 284.48 25.2741 284.463 25.3567 284.463C25.4393 284.463 25.5212 284.478 25.5977 284.51C25.6742 284.541 25.7438 284.587 25.8025 284.646Z" fill="white"/>
<path d="M23.2954 345.127V334.463H26.7817C27.939 334.463 28.8081 334.702 29.3892 335.181C29.9751 335.659 30.2681 336.367 30.2681 337.305C30.2681 337.803 30.1265 338.245 29.8433 338.631C29.5601 339.011 29.1743 339.307 28.686 339.517C29.2622 339.678 29.7163 339.986 30.0483 340.44C30.3853 340.889 30.5537 341.426 30.5537 342.051C30.5537 343.008 30.2437 343.76 29.6235 344.307C29.0034 344.854 28.127 345.127 26.9941 345.127H23.2954ZM24.7017 340.139V343.977H27.0234C27.6777 343.977 28.1929 343.809 28.5688 343.472C28.9497 343.13 29.1401 342.661 29.1401 342.066C29.1401 340.781 28.4419 340.139 27.0454 340.139H24.7017ZM24.7017 339.011H26.8257C27.4409 339.011 27.9316 338.858 28.2979 338.55C28.6689 338.242 28.8545 337.825 28.8545 337.298C28.8545 336.712 28.6836 336.287 28.3418 336.023C28 335.755 27.48 335.62 26.7817 335.62H24.7017V339.011ZM33.9009 345.127H32.5459V337.202H33.9009V345.127ZM32.436 335.1C32.436 334.881 32.502 334.695 32.6338 334.544C32.7705 334.392 32.9707 334.317 33.2344 334.317C33.498 334.317 33.6982 334.392 33.835 334.544C33.9717 334.695 34.04 334.881 34.04 335.1C34.04 335.32 33.9717 335.503 33.835 335.65C33.6982 335.796 33.498 335.869 33.2344 335.869C32.9707 335.869 32.7705 335.796 32.6338 335.65C32.502 335.503 32.436 335.32 32.436 335.1ZM37.9146 335.283V337.202H39.394V338.25H37.9146V343.164C37.9146 343.482 37.9805 343.721 38.1123 343.882C38.2441 344.038 38.4688 344.116 38.7861 344.116C38.9424 344.116 39.1572 344.087 39.4307 344.029V345.127C39.0742 345.225 38.7275 345.274 38.3906 345.274C37.7852 345.274 37.3286 345.091 37.021 344.724C36.7134 344.358 36.5596 343.838 36.5596 343.164V338.25H35.1167V337.202H36.5596V335.283H37.9146ZM45.5977 343.025C45.5977 342.659 45.4585 342.376 45.1802 342.176C44.9067 341.97 44.4258 341.795 43.7373 341.648C43.0537 341.502 42.5093 341.326 42.104 341.121C41.7036 340.916 41.4058 340.672 41.2104 340.388C41.02 340.105 40.9248 339.768 40.9248 339.378C40.9248 338.728 41.1982 338.179 41.7451 337.73C42.2969 337.281 43 337.056 43.8545 337.056C44.7529 337.056 45.4805 337.288 46.0371 337.752C46.5986 338.216 46.8794 338.809 46.8794 339.531H45.5171C45.5171 339.16 45.3584 338.841 45.041 338.572C44.7285 338.303 44.333 338.169 43.8545 338.169C43.3613 338.169 42.9756 338.277 42.6973 338.491C42.4189 338.706 42.2798 338.987 42.2798 339.334C42.2798 339.661 42.4092 339.907 42.668 340.073C42.9268 340.24 43.3931 340.398 44.0669 340.55C44.7456 340.701 45.2949 340.882 45.7148 341.092C46.1348 341.302 46.4448 341.555 46.645 341.853C46.8501 342.146 46.9526 342.505 46.9526 342.93C46.9526 343.638 46.6694 344.207 46.103 344.636C45.5366 345.061 44.8018 345.274 43.8984 345.274C43.2637 345.274 42.7021 345.161 42.2139 344.937C41.7256 344.712 41.3423 344.4 41.064 343.999C40.7905 343.594 40.6538 343.157 40.6538 342.688H42.0088C42.0332 343.142 42.2139 343.504 42.5508 343.772C42.8926 344.036 43.3418 344.168 43.8984 344.168C44.4111 344.168 44.8213 344.065 45.1289 343.86C45.4414 343.65 45.5977 343.372 45.5977 343.025ZM50.9297 341.458L50.0801 342.344V345.127H48.7251V333.877H50.0801V340.681L50.8052 339.81L53.2734 337.202H54.9214L51.8379 340.513L55.2803 345.127H53.6909L50.9297 341.458ZM57.7925 345.127H56.4375V337.202H57.7925V345.127ZM56.3276 335.1C56.3276 334.881 56.3936 334.695 56.5254 334.544C56.6621 334.392 56.8623 334.317 57.126 334.317C57.3896 334.317 57.5898 334.392 57.7266 334.544C57.8633 334.695 57.9316 334.881 57.9316 335.1C57.9316 335.32 57.8633 335.503 57.7266 335.65C57.5898 335.796 57.3896 335.869 57.126 335.869C56.8623 335.869 56.6621 335.796 56.5254 335.65C56.3936 335.503 56.3276 335.32 56.3276 335.1Z" fill="white"/>
<path d="M194.507 242.796H130.277C125.706 242.796 122 246.511 122 251.094V315.482C122 320.065 125.706 323.78 130.277 323.78H194.507C199.078 323.78 202.784 320.065 202.784 315.482V251.094C202.784 246.511 199.078 242.796 194.507 242.796Z" fill="white"/>
<path fill-rule="evenodd" clip-rule="evenodd" d="M152.644 279.273L162.392 269.5L172.141 279.283L177.813 273.596L162.392 258.128L146.972 273.586L152.645 279.273H152.644ZM137.294 283.288L142.967 277.602L148.64 283.288L142.967 288.975L137.294 283.288ZM152.644 287.303L162.392 297.076L172.141 287.293L177.823 292.98L162.393 308.448L146.973 292.99L146.963 292.98L152.646 287.304L152.644 287.303ZM176.146 283.288L181.819 277.602L187.49 283.288L181.819 288.975L176.146 283.288Z" fill="#F3BA2F"/>
<path fill-rule="evenodd" clip-rule="evenodd" d="M168.717 283.288L162.393 276.928L157.714 281.628L157.172 282.171L156.058 283.288L156.048 283.298L156.058 283.308L162.383 289.648L168.717 283.298V283.288Z" fill="#F3BA2F"/>
<path d="M136.982 345V334.336H140.469C141.626 334.336 142.495 334.575 143.076 335.054C143.662 335.532 143.955 336.24 143.955 337.178C143.955 337.676 143.813 338.118 143.53 338.503C143.247 338.884 142.861 339.18 142.373 339.39C142.949 339.551 143.403 339.858 143.735 340.312C144.072 340.762 144.241 341.299 144.241 341.924C144.241 342.881 143.931 343.633 143.311 344.18C142.69 344.727 141.814 345 140.681 345H136.982ZM138.389 340.012V343.85H140.71C141.365 343.85 141.88 343.682 142.256 343.345C142.637 343.003 142.827 342.534 142.827 341.938C142.827 340.654 142.129 340.012 140.732 340.012H138.389ZM138.389 338.884H140.513C141.128 338.884 141.619 338.73 141.985 338.423C142.356 338.115 142.542 337.698 142.542 337.17C142.542 336.584 142.371 336.16 142.029 335.896C141.687 335.627 141.167 335.493 140.469 335.493H138.389V338.884ZM147.588 345H146.233V337.075H147.588V345ZM146.123 334.973C146.123 334.753 146.189 334.568 146.321 334.417C146.458 334.265 146.658 334.189 146.921 334.189C147.185 334.189 147.385 334.265 147.522 334.417C147.659 334.568 147.727 334.753 147.727 334.973C147.727 335.193 147.659 335.376 147.522 335.522C147.385 335.669 147.185 335.742 146.921 335.742C146.658 335.742 146.458 335.669 146.321 335.522C146.189 335.376 146.123 335.193 146.123 334.973ZM151.045 337.075L151.089 338.071C151.694 337.31 152.485 336.929 153.462 336.929C155.137 336.929 155.981 337.874 155.996 339.763V345H154.641V339.756C154.636 339.185 154.504 338.762 154.246 338.489C153.992 338.215 153.594 338.079 153.052 338.079C152.612 338.079 152.227 338.196 151.895 338.43C151.562 338.665 151.304 338.972 151.118 339.353V345H149.763V337.075H151.045ZM162.932 345C162.854 344.844 162.791 344.565 162.742 344.165C162.112 344.819 161.36 345.146 160.486 345.146C159.705 345.146 159.062 344.927 158.56 344.487C158.062 344.043 157.812 343.481 157.812 342.803C157.812 341.978 158.125 341.338 158.75 340.884C159.38 340.425 160.264 340.195 161.401 340.195H162.72V339.573C162.72 339.099 162.578 338.723 162.295 338.445C162.012 338.162 161.594 338.02 161.042 338.02C160.559 338.02 160.154 338.142 159.827 338.386C159.5 338.63 159.336 338.926 159.336 339.272H157.974C157.974 338.877 158.113 338.496 158.391 338.13C158.674 337.759 159.055 337.466 159.534 337.251C160.017 337.036 160.547 336.929 161.123 336.929C162.036 336.929 162.751 337.158 163.269 337.617C163.787 338.071 164.055 338.699 164.075 339.5V343.147C164.075 343.875 164.167 344.453 164.353 344.883V345H162.932ZM160.684 343.967C161.108 343.967 161.511 343.857 161.892 343.638C162.273 343.418 162.549 343.132 162.72 342.781V341.155H161.658C159.998 341.155 159.167 341.641 159.167 342.612C159.167 343.037 159.309 343.369 159.592 343.608C159.875 343.848 160.239 343.967 160.684 343.967ZM167.48 337.075L167.524 338.071C168.13 337.31 168.921 336.929 169.897 336.929C171.572 336.929 172.417 337.874 172.432 339.763V345H171.077V339.756C171.072 339.185 170.94 338.762 170.681 338.489C170.427 338.215 170.029 338.079 169.487 338.079C169.048 338.079 168.662 338.196 168.33 338.43C167.998 338.665 167.739 338.972 167.554 339.353V345H166.199V337.075H167.48ZM177.654 344.041C178.137 344.041 178.56 343.894 178.921 343.601C179.282 343.308 179.482 342.942 179.521 342.502H180.803C180.779 342.957 180.623 343.389 180.334 343.799C180.046 344.209 179.661 344.536 179.177 344.78C178.699 345.024 178.191 345.146 177.654 345.146C176.575 345.146 175.715 344.788 175.076 344.07C174.441 343.347 174.124 342.361 174.124 341.111V340.884C174.124 340.112 174.265 339.426 174.548 338.826C174.832 338.225 175.237 337.759 175.764 337.427C176.296 337.095 176.924 336.929 177.646 336.929C178.535 336.929 179.272 337.195 179.858 337.727C180.449 338.259 180.764 338.95 180.803 339.8H179.521C179.482 339.287 179.287 338.867 178.936 338.54C178.589 338.208 178.159 338.042 177.646 338.042C176.958 338.042 176.423 338.291 176.042 338.789C175.667 339.282 175.479 339.998 175.479 340.935V341.191C175.479 342.104 175.667 342.808 176.042 343.301C176.418 343.794 176.956 344.041 177.654 344.041ZM185.615 345.146C184.541 345.146 183.667 344.795 182.993 344.092C182.319 343.384 181.982 342.439 181.982 341.257V341.008C181.982 340.222 182.131 339.521 182.429 338.906C182.732 338.286 183.152 337.803 183.689 337.456C184.231 337.104 184.817 336.929 185.447 336.929C186.477 336.929 187.278 337.268 187.849 337.947C188.42 338.625 188.706 339.597 188.706 340.862V341.426H183.337C183.357 342.207 183.584 342.839 184.019 343.323C184.458 343.801 185.015 344.041 185.688 344.041C186.167 344.041 186.572 343.943 186.904 343.748C187.236 343.552 187.527 343.293 187.776 342.971L188.604 343.616C187.939 344.636 186.943 345.146 185.615 345.146ZM185.447 338.042C184.9 338.042 184.441 338.242 184.07 338.643C183.699 339.038 183.469 339.595 183.381 340.312H187.351V340.21C187.312 339.521 187.126 338.989 186.794 338.613C186.462 338.232 186.013 338.042 185.447 338.042ZM131.833 359.616C131.702 360.744 131.284 361.616 130.581 362.231C129.883 362.841 128.953 363.146 127.791 363.146C126.531 363.146 125.52 362.695 124.758 361.792C124.001 360.888 123.623 359.68 123.623 358.166V357.141C123.623 356.149 123.799 355.278 124.15 354.526C124.507 353.774 125.01 353.198 125.659 352.797C126.309 352.392 127.061 352.189 127.915 352.189C129.048 352.189 129.956 352.507 130.64 353.142C131.323 353.771 131.721 354.646 131.833 355.764H130.42C130.298 354.914 130.032 354.299 129.622 353.918C129.216 353.537 128.647 353.347 127.915 353.347C127.017 353.347 126.311 353.679 125.798 354.343C125.291 355.007 125.037 355.952 125.037 357.177V358.21C125.037 359.367 125.278 360.288 125.762 360.971C126.245 361.655 126.921 361.997 127.791 361.997C128.572 361.997 129.17 361.821 129.585 361.469C130.005 361.113 130.283 360.495 130.42 359.616H131.833ZM134.902 356.035C135.503 355.297 136.284 354.929 137.246 354.929C138.921 354.929 139.766 355.874 139.78 357.763V363H138.425V357.756C138.42 357.185 138.289 356.762 138.03 356.489C137.776 356.215 137.378 356.079 136.836 356.079C136.396 356.079 136.011 356.196 135.679 356.43C135.347 356.665 135.088 356.972 134.902 357.353V363H133.547V351.75H134.902V356.035ZM146.702 363C146.624 362.844 146.56 362.565 146.511 362.165C145.881 362.819 145.129 363.146 144.255 363.146C143.474 363.146 142.832 362.927 142.329 362.487C141.831 362.043 141.582 361.481 141.582 360.803C141.582 359.978 141.895 359.338 142.52 358.884C143.149 358.425 144.033 358.195 145.171 358.195H146.489V357.573C146.489 357.099 146.348 356.723 146.064 356.445C145.781 356.162 145.364 356.02 144.812 356.02C144.329 356.02 143.923 356.142 143.596 356.386C143.269 356.63 143.105 356.926 143.105 357.272H141.743C141.743 356.877 141.882 356.496 142.161 356.13C142.444 355.759 142.825 355.466 143.303 355.251C143.787 355.036 144.316 354.929 144.893 354.929C145.806 354.929 146.521 355.158 147.039 355.617C147.556 356.071 147.825 356.699 147.844 357.5V361.147C147.844 361.875 147.937 362.453 148.123 362.883V363H146.702ZM144.453 361.967C144.878 361.967 145.281 361.857 145.662 361.638C146.042 361.418 146.318 361.132 146.489 360.781V359.155H145.427C143.767 359.155 142.937 359.641 142.937 360.612C142.937 361.037 143.079 361.369 143.362 361.608C143.645 361.848 144.009 361.967 144.453 361.967ZM151.44 363H150.085V355.075H151.44V363ZM149.976 352.973C149.976 352.753 150.042 352.568 150.173 352.417C150.31 352.265 150.51 352.189 150.774 352.189C151.038 352.189 151.238 352.265 151.375 352.417C151.511 352.568 151.58 352.753 151.58 352.973C151.58 353.193 151.511 353.376 151.375 353.522C151.238 353.669 151.038 353.742 150.774 353.742C150.51 353.742 150.31 353.669 150.173 353.522C150.042 353.376 149.976 353.193 149.976 352.973ZM154.897 355.075L154.941 356.071C155.547 355.31 156.338 354.929 157.314 354.929C158.989 354.929 159.834 355.874 159.849 357.763V363H158.494V357.756C158.489 357.185 158.357 356.762 158.098 356.489C157.844 356.215 157.446 356.079 156.904 356.079C156.465 356.079 156.079 356.196 155.747 356.43C155.415 356.665 155.156 356.972 154.971 357.353V363H153.616V355.075H154.897ZM164.404 359.638L164.609 361.044L164.91 359.777L167.019 352.336H168.206L170.264 359.777L170.557 361.066L170.784 359.631L172.439 352.336H173.853L171.267 363H169.985L167.788 355.229L167.62 354.416L167.451 355.229L165.173 363H163.892L161.313 352.336H162.72L164.404 359.638ZM179.851 363C179.773 362.844 179.709 362.565 179.661 362.165C179.031 362.819 178.279 363.146 177.405 363.146C176.624 363.146 175.981 362.927 175.479 362.487C174.98 362.043 174.731 361.481 174.731 360.803C174.731 359.978 175.044 359.338 175.669 358.884C176.299 358.425 177.183 358.195 178.32 358.195H179.639V357.573C179.639 357.099 179.497 356.723 179.214 356.445C178.931 356.162 178.513 356.02 177.961 356.02C177.478 356.02 177.073 356.142 176.746 356.386C176.418 356.63 176.255 356.926 176.255 357.272H174.893C174.893 356.877 175.032 356.496 175.31 356.13C175.593 355.759 175.974 355.466 176.453 355.251C176.936 355.036 177.466 354.929 178.042 354.929C178.955 354.929 179.67 355.158 180.188 355.617C180.706 356.071 180.974 356.699 180.994 357.5V361.147C180.994 361.875 181.086 362.453 181.272 362.883V363H179.851ZM177.603 361.967C178.027 361.967 178.43 361.857 178.811 361.638C179.192 361.418 179.468 361.132 179.639 360.781V359.155H178.577C176.917 359.155 176.086 359.641 176.086 360.612C176.086 361.037 176.228 361.369 176.511 361.608C176.794 361.848 177.158 361.967 177.603 361.967ZM184.59 363H183.235V351.75H184.59V363ZM188.237 363H186.882V351.75H188.237V363ZM193.701 363.146C192.627 363.146 191.753 362.795 191.079 362.092C190.405 361.384 190.068 360.439 190.068 359.257V359.008C190.068 358.222 190.217 357.521 190.515 356.906C190.818 356.286 191.238 355.803 191.775 355.456C192.317 355.104 192.903 354.929 193.533 354.929C194.563 354.929 195.364 355.268 195.935 355.947C196.506 356.625 196.792 357.597 196.792 358.862V359.426H191.423C191.443 360.207 191.67 360.839 192.104 361.323C192.544 361.801 193.101 362.041 193.774 362.041C194.253 362.041 194.658 361.943 194.99 361.748C195.322 361.552 195.613 361.293 195.862 360.971L196.689 361.616C196.025 362.636 195.029 363.146 193.701 363.146ZM193.533 356.042C192.986 356.042 192.527 356.242 192.156 356.643C191.785 357.038 191.555 357.595 191.467 358.312H195.437V358.21C195.398 357.521 195.212 356.989 194.88 356.613C194.548 356.232 194.099 356.042 193.533 356.042ZM200.205 353.156V355.075H201.685V356.123H200.205V361.037C200.205 361.354 200.271 361.594 200.403 361.755C200.535 361.911 200.759 361.989 201.077 361.989C201.233 361.989 201.448 361.96 201.721 361.901V363C201.365 363.098 201.018 363.146 200.681 363.146C200.076 363.146 199.619 362.963 199.312 362.597C199.004 362.231 198.85 361.711 198.85 361.037V356.123H197.407V355.075H198.85V353.156H200.205Z" fill="white"/>
<path d="M319.566 242.796H255.337C250.765 242.796 247.06 246.511 247.06 251.094V315.482C247.06 320.065 250.765 323.78 255.337 323.78H319.566C324.138 323.78 327.844 320.065 327.844 315.482V251.094C327.844 246.511 324.138 242.796 319.566 242.796Z" fill="#FFDAFB"/>
<path d="M264.213 301.488L286.271 265.716C286.39 265.524 286.556 265.366 286.754 265.256C286.951 265.146 287.173 265.089 287.399 265.089C287.625 265.089 287.847 265.146 288.044 265.256C288.241 265.366 288.408 265.524 288.527 265.716L310.691 301.488H304.619L288.909 276.216C288.749 275.96 288.526 275.749 288.263 275.603C287.999 275.458 287.703 275.382 287.402 275.382C287.101 275.383 286.805 275.461 286.542 275.608C286.279 275.755 286.058 275.967 285.9 276.224L270.395 301.488H264.213Z" fill="#A53E99"/>
<path d="M285.3 281.59H289.491C289.957 281.59 290.403 281.776 290.732 282.106C291.061 282.435 291.246 282.883 291.246 283.349C291.246 283.816 291.061 284.263 290.732 284.593C290.403 284.923 289.957 285.109 289.491 285.109H285.3C284.834 285.109 284.388 284.923 284.059 284.593C283.73 284.263 283.545 283.816 283.545 283.349C283.545 282.883 283.73 282.435 284.059 282.106C284.388 281.776 284.834 281.59 285.3 281.59Z" fill="#A53E99"/>
<path d="M271.196 342.344H266.729L265.725 345.127H264.275L268.347 334.463H269.578L273.657 345.127H272.214L271.196 342.344ZM267.153 341.187H270.779L268.962 336.199L267.153 341.187ZM278.711 338.418C278.506 338.384 278.284 338.367 278.044 338.367C277.156 338.367 276.553 338.745 276.235 339.502V345.127H274.88V337.202H276.199L276.221 338.118C276.665 337.41 277.295 337.056 278.11 337.056C278.374 337.056 278.574 337.09 278.711 337.158V338.418ZM282.175 341.458L281.326 342.344V345.127H279.971V333.877H281.326V340.681L282.051 339.81L284.519 337.202H286.167L283.083 340.513L286.526 345.127H284.937L282.175 341.458ZM292.458 345.127C292.38 344.971 292.317 344.693 292.268 344.292C291.638 344.947 290.886 345.274 290.012 345.274C289.231 345.274 288.589 345.054 288.086 344.615C287.588 344.17 287.339 343.609 287.339 342.93C287.339 342.105 287.651 341.465 288.276 341.011C288.906 340.552 289.79 340.323 290.928 340.323H292.246V339.7C292.246 339.226 292.104 338.85 291.821 338.572C291.538 338.289 291.121 338.147 290.569 338.147C290.085 338.147 289.68 338.269 289.353 338.513C289.026 338.758 288.862 339.053 288.862 339.4H287.5C287.5 339.004 287.639 338.623 287.917 338.257C288.201 337.886 288.582 337.593 289.06 337.378C289.543 337.163 290.073 337.056 290.649 337.056C291.562 337.056 292.278 337.285 292.795 337.744C293.313 338.198 293.582 338.826 293.601 339.627V343.274C293.601 344.002 293.694 344.58 293.879 345.01V345.127H292.458ZM290.21 344.094C290.635 344.094 291.038 343.985 291.418 343.765C291.799 343.545 292.075 343.26 292.246 342.908V341.282H291.184C289.524 341.282 288.694 341.768 288.694 342.74C288.694 343.164 288.835 343.496 289.119 343.736C289.402 343.975 289.766 344.094 290.21 344.094ZM297.007 337.202L297.051 338.198C297.656 337.437 298.447 337.056 299.424 337.056C301.099 337.056 301.943 338.001 301.958 339.89V345.127H300.603V339.883C300.598 339.312 300.466 338.889 300.208 338.616C299.954 338.343 299.556 338.206 299.014 338.206C298.574 338.206 298.188 338.323 297.856 338.557C297.524 338.792 297.266 339.099 297.08 339.48V345.127H295.725V337.202H297.007ZM307.29 345.274C306.216 345.274 305.342 344.922 304.668 344.219C303.994 343.511 303.657 342.566 303.657 341.385V341.135C303.657 340.349 303.806 339.649 304.104 339.033C304.407 338.413 304.827 337.93 305.364 337.583C305.906 337.232 306.492 337.056 307.122 337.056C308.152 337.056 308.953 337.395 309.524 338.074C310.095 338.753 310.381 339.724 310.381 340.989V341.553H305.012C305.032 342.334 305.259 342.967 305.693 343.45C306.133 343.928 306.689 344.168 307.363 344.168C307.842 344.168 308.247 344.07 308.579 343.875C308.911 343.679 309.202 343.421 309.451 343.098L310.278 343.743C309.614 344.763 308.618 345.274 307.29 345.274ZM307.122 338.169C306.575 338.169 306.116 338.369 305.745 338.77C305.374 339.165 305.144 339.722 305.056 340.44H309.026V340.337C308.987 339.649 308.801 339.116 308.469 338.74C308.137 338.36 307.688 338.169 307.122 338.169Z" fill="white"/>
<path d="M195.625 0.40802H131.658C127.087 0.40802 123.381 4.12312 123.381 8.70594V72.8314C123.381 77.4142 127.087 81.1293 131.658 81.1293H195.625C200.197 81.1293 203.903 77.4142 203.903 72.8314V8.70594C203.903 4.12312 200.197 0.40802 195.625 0.40802Z" fill="#C4D4FF"/>
<path d="M187.451 40.8853C187.451 27.8582 176.917 17.2976 163.922 17.2976C150.927 17.2976 140.393 27.8582 140.393 40.8853C140.393 53.9124 150.927 64.4729 163.922 64.4729C176.917 64.4729 187.451 53.9124 187.451 40.8853Z" fill="#2760F0"/>
<path d="M164.315 26.7324H164.314C156.3 26.7324 149.804 33.2446 149.804 41.2778V41.2787C149.804 49.3119 156.3 55.8241 164.314 55.8241H164.315C172.328 55.8241 178.824 49.3119 178.824 41.2787V41.2778C178.824 33.2446 172.328 26.7324 164.315 26.7324Z" fill="white"/>
<path d="M167.015 36.9537H160.828C160.371 36.9537 160 37.3252 160 37.7835V43.9862C160 44.4445 160.371 44.816 160.828 44.816H167.015C167.472 44.816 167.843 44.4445 167.843 43.9862V37.7835C167.843 37.3252 167.472 36.9537 167.015 36.9537Z" fill="#2760F0"/>
<path d="M120.271 98.9481C120.139 100.076 119.722 100.948 119.019 101.563C118.32 102.173 117.39 102.478 116.228 102.478C114.968 102.478 113.958 102.027 113.196 101.123C112.439 100.22 112.061 99.0115 112.061 97.4979V96.4725C112.061 95.4813 112.236 94.6097 112.588 93.8577C112.944 93.1058 113.447 92.5296 114.097 92.1292C114.746 91.7239 115.498 91.5213 116.353 91.5213C117.485 91.5213 118.394 91.8387 119.077 92.4734C119.761 93.1033 120.159 93.9774 120.271 95.0955H118.857C118.735 94.2459 118.469 93.6307 118.059 93.2498C117.654 92.869 117.085 92.6785 116.353 92.6785C115.454 92.6785 114.749 93.0106 114.236 93.6746C113.728 94.3387 113.474 95.2835 113.474 96.5091V97.5418C113.474 98.699 113.716 99.6194 114.199 100.303C114.683 100.987 115.359 101.328 116.228 101.328C117.009 101.328 117.607 101.153 118.022 100.801C118.442 100.445 118.721 99.827 118.857 98.9481H120.271ZM121.626 98.2962C121.626 97.5198 121.777 96.8216 122.08 96.2015C122.388 95.5814 122.812 95.1028 123.354 94.7659C123.901 94.429 124.524 94.2606 125.222 94.2606C126.301 94.2606 127.173 94.6341 127.837 95.3812C128.506 96.1282 128.84 97.1219 128.84 98.3621V98.4573C128.84 99.2288 128.691 99.9222 128.394 100.537C128.101 101.148 127.678 101.624 127.126 101.966C126.58 102.307 125.95 102.478 125.237 102.478C124.163 102.478 123.291 102.105 122.622 101.358C121.958 100.611 121.626 99.6219 121.626 98.3914V98.2962ZM122.988 98.4573C122.988 99.3362 123.191 100.042 123.596 100.574C124.006 101.106 124.553 101.372 125.237 101.372C125.925 101.372 126.472 101.104 126.877 100.567C127.283 100.025 127.485 99.2679 127.485 98.2962C127.485 97.4271 127.278 96.7239 126.863 96.1868C126.453 95.6448 125.906 95.3738 125.222 95.3738C124.553 95.3738 124.014 95.64 123.604 96.1722C123.193 96.7044 122.988 97.4661 122.988 98.4573ZM132.012 102.332H130.657V94.407H132.012V102.332ZM130.547 92.305C130.547 92.0853 130.613 91.8997 130.745 91.7484C130.881 91.597 131.082 91.5213 131.345 91.5213C131.609 91.5213 131.809 91.597 131.946 91.7484C132.083 91.8997 132.151 92.0853 132.151 92.305C132.151 92.5247 132.083 92.7078 131.946 92.8543C131.809 93.0008 131.609 93.074 131.345 93.074C131.082 93.074 130.881 93.0008 130.745 92.8543C130.613 92.7078 130.547 92.5247 130.547 92.305ZM135.469 94.407L135.513 95.4031C136.118 94.6414 136.909 94.2606 137.886 94.2606C139.561 94.2606 140.405 95.2054 140.42 97.095V102.332H139.065V97.0877C139.06 96.5164 138.928 96.0941 138.669 95.8206C138.416 95.5472 138.018 95.4105 137.476 95.4105C137.036 95.4105 136.65 95.5276 136.318 95.762C135.986 95.9964 135.728 96.304 135.542 96.6849V102.332H134.187V94.407H135.469ZM149.172 98.4573C149.172 99.6683 148.894 100.642 148.337 101.38C147.781 102.112 147.034 102.478 146.096 102.478C145.095 102.478 144.321 102.124 143.774 101.416L143.708 102.332H142.463V91.0818H143.818V95.2786C144.365 94.5999 145.12 94.2606 146.082 94.2606C147.043 94.2606 147.798 94.6243 148.345 95.3519C148.896 96.0794 149.172 97.0755 149.172 98.3401V98.4573ZM147.817 98.3035C147.817 97.3807 147.639 96.6678 147.283 96.1649C146.926 95.6619 146.414 95.4105 145.745 95.4105C144.851 95.4105 144.209 95.8255 143.818 96.6556V100.083C144.233 100.913 144.88 101.328 145.759 101.328C146.409 101.328 146.914 101.077 147.275 100.574C147.637 100.071 147.817 99.3143 147.817 98.3035ZM155.779 102.332C155.701 102.176 155.637 101.897 155.588 101.497C154.958 102.151 154.207 102.478 153.333 102.478C152.551 102.478 151.909 102.259 151.406 101.819C150.908 101.375 150.659 100.813 150.659 100.135C150.659 99.3094 150.972 98.6697 151.597 98.2156C152.227 97.7567 153.11 97.5272 154.248 97.5272H155.566V96.9046C155.566 96.431 155.425 96.055 155.142 95.7767C154.858 95.4935 154.441 95.3519 153.889 95.3519C153.406 95.3519 153 95.4739 152.673 95.7181C152.346 95.9622 152.183 96.2576 152.183 96.6043H150.82C150.82 96.2088 150.959 95.8279 151.238 95.4617C151.521 95.0906 151.902 94.7977 152.38 94.5828C152.864 94.368 153.394 94.2606 153.97 94.2606C154.883 94.2606 155.598 94.4901 156.116 94.949C156.633 95.4031 156.902 96.0306 156.921 96.8314V100.479C156.921 101.206 157.014 101.785 157.2 102.215V102.332H155.779ZM153.53 101.299C153.955 101.299 154.358 101.189 154.739 100.97C155.12 100.75 155.396 100.464 155.566 100.113V98.4866H154.504C152.844 98.4866 152.014 98.9725 152.014 99.9442C152.014 100.369 152.156 100.701 152.439 100.94C152.722 101.18 153.086 101.299 153.53 101.299ZM163.66 100.23C163.66 99.8636 163.521 99.5804 163.242 99.3802C162.969 99.1751 162.488 98.9993 161.799 98.8528C161.116 98.7064 160.571 98.5306 160.166 98.3255C159.766 98.1204 159.468 97.8763 159.272 97.5931C159.082 97.3099 158.987 96.973 158.987 96.5823C158.987 95.9329 159.26 95.3836 159.807 94.9344C160.359 94.4852 161.062 94.2606 161.917 94.2606C162.815 94.2606 163.542 94.4925 164.099 94.9564C164.661 95.4202 164.941 96.0135 164.941 96.7361H163.579C163.579 96.3651 163.42 96.0452 163.103 95.7767C162.791 95.5081 162.395 95.3738 161.917 95.3738C161.423 95.3738 161.038 95.4813 160.759 95.6961C160.481 95.9109 160.342 96.1917 160.342 96.5384C160.342 96.8655 160.471 97.1121 160.73 97.2781C160.989 97.4442 161.455 97.6028 162.129 97.7542C162.808 97.9056 163.357 98.0862 163.777 98.2962C164.197 98.5062 164.507 98.7601 164.707 99.0579C164.912 99.3509 165.015 99.7098 165.015 100.135C165.015 100.843 164.731 101.411 164.165 101.841C163.599 102.266 162.864 102.478 161.96 102.478C161.326 102.478 160.764 102.366 160.276 102.141C159.788 101.917 159.404 101.604 159.126 101.204C158.853 100.799 158.716 100.362 158.716 99.8929H160.071C160.095 100.347 160.276 100.708 160.613 100.977C160.955 101.241 161.404 101.372 161.96 101.372C162.473 101.372 162.883 101.27 163.191 101.065C163.503 100.855 163.66 100.576 163.66 100.23ZM170.068 102.478C168.994 102.478 168.12 102.127 167.446 101.424C166.772 100.716 166.436 99.7708 166.436 98.5892V98.3401C166.436 97.554 166.584 96.8533 166.882 96.2381C167.185 95.618 167.605 95.1346 168.142 94.7879C168.684 94.4363 169.27 94.2606 169.9 94.2606C170.93 94.2606 171.731 94.5999 172.302 95.2786C172.874 95.9573 173.159 96.929 173.159 98.1937V98.7576H167.791C167.81 99.5389 168.037 100.171 168.472 100.655C168.911 101.133 169.468 101.372 170.142 101.372C170.62 101.372 171.025 101.275 171.357 101.079C171.689 100.884 171.98 100.625 172.229 100.303L173.057 100.948C172.393 101.968 171.396 102.478 170.068 102.478ZM169.9 95.3738C169.353 95.3738 168.894 95.574 168.523 95.9744C168.152 96.3699 167.922 96.9266 167.834 97.6443H171.804V97.5418C171.765 96.8533 171.58 96.3211 171.248 95.9451C170.916 95.5643 170.466 95.3738 169.9 95.3738ZM180.967 98.97L181.172 100.376L181.472 99.1092L183.582 91.6678H184.768L186.826 99.1092L187.119 100.398L187.346 98.9627L189.001 91.6678H190.415L187.83 102.332H186.548L184.351 94.5609L184.182 93.7479L184.014 94.5609L181.736 102.332H180.454L177.876 91.6678H179.282L180.967 98.97ZM196.414 102.332C196.335 102.176 196.272 101.897 196.223 101.497C195.593 102.151 194.841 102.478 193.967 102.478C193.186 102.478 192.544 102.259 192.041 101.819C191.543 101.375 191.294 100.813 191.294 100.135C191.294 99.3094 191.606 98.6697 192.231 98.2156C192.861 97.7567 193.745 97.5272 194.883 97.5272H196.201V96.9046C196.201 96.431 196.06 96.055 195.776 95.7767C195.493 95.4935 195.076 95.3519 194.524 95.3519C194.041 95.3519 193.635 95.4739 193.308 95.7181C192.981 95.9622 192.817 96.2576 192.817 96.6043H191.455C191.455 96.2088 191.594 95.8279 191.873 95.4617C192.156 95.0906 192.537 94.7977 193.015 94.5828C193.499 94.368 194.028 94.2606 194.604 94.2606C195.518 94.2606 196.233 94.4901 196.75 94.949C197.268 95.4031 197.537 96.0306 197.556 96.8314V100.479C197.556 101.206 197.649 101.785 197.834 102.215V102.332H196.414ZM194.165 101.299C194.59 101.299 194.993 101.189 195.374 100.97C195.754 100.75 196.03 100.464 196.201 100.113V98.4866H195.139C193.479 98.4866 192.649 98.9725 192.649 99.9442C192.649 100.369 192.791 100.701 193.074 100.94C193.357 101.18 193.721 101.299 194.165 101.299ZM201.152 102.332H199.797V91.0818H201.152V102.332ZM204.8 102.332H203.445V91.0818H204.8V102.332ZM210.264 102.478C209.189 102.478 208.315 102.127 207.642 101.424C206.968 100.716 206.631 99.7708 206.631 98.5892V98.3401C206.631 97.554 206.78 96.8533 207.078 96.2381C207.38 95.618 207.8 95.1346 208.337 94.7879C208.879 94.4363 209.465 94.2606 210.095 94.2606C211.125 94.2606 211.926 94.5999 212.498 95.2786C213.069 95.9573 213.354 96.929 213.354 98.1937V98.7576H207.986C208.005 99.5389 208.232 100.171 208.667 100.655C209.106 101.133 209.663 101.372 210.337 101.372C210.815 101.372 211.221 101.275 211.553 101.079C211.885 100.884 212.175 100.625 212.424 100.303L213.252 100.948C212.588 101.968 211.592 102.478 210.264 102.478ZM210.095 95.3738C209.548 95.3738 209.089 95.574 208.718 95.9744C208.347 96.3699 208.118 96.9266 208.03 97.6443H212V97.5418C211.96 96.8533 211.775 96.3211 211.443 95.9451C211.111 95.5643 210.662 95.3738 210.095 95.3738ZM216.768 92.4881V94.407H218.247V95.4544H216.768V100.369C216.768 100.686 216.833 100.926 216.965 101.087C217.097 101.243 217.322 101.321 217.639 101.321C217.795 101.321 218.01 101.292 218.284 101.233V102.332C217.927 102.43 217.581 102.478 217.244 102.478C216.638 102.478 216.182 102.295 215.874 101.929C215.566 101.563 215.413 101.043 215.413 100.369V95.4544H213.97V94.407H215.413V92.4881H216.768Z" fill="white"/>
<path d="M319.566 0H255.337C250.765 0 247.06 3.7151 247.06 8.29791V72.6864C247.06 77.2692 250.765 80.9843 255.337 80.9843H319.566C324.138 80.9843 327.844 77.2692 327.844 72.6864V8.29791C327.844 3.7151 324.138 0 319.566 0Z" fill="#DFF1FE"/>
<path fill-rule="evenodd" clip-rule="evenodd" d="M276.991 60.7374V50.9774H267.253V52.062C267.254 54.3631 268.166 56.5697 269.789 58.1966C271.413 59.8235 273.614 60.7374 275.909 60.7374H276.991ZM282.762 60.7374H292.14V50.9774H282.761L282.762 60.7374ZM297.91 60.7374H298.993C301.288 60.7368 303.488 59.8225 305.111 58.1957C306.734 56.5689 307.646 54.3626 307.647 52.062V28.9216C307.647 26.6204 306.735 24.4135 305.112 22.7862C303.489 21.1588 301.288 20.2443 298.993 20.2436H282.761V45.1921H307.647V50.9774H297.911L297.91 60.7374ZM276.991 20.2436H275.909C273.614 20.2436 271.412 21.1579 269.788 22.7853C268.165 24.4127 267.253 26.62 267.253 28.9216V30.0061H276.991V20.2436ZM267.253 35.7914V45.1921H276.991V35.7914H267.253Z" fill="white"/>
<path d="M266.675 101.181H271.729V102.331H265.262V91.6672H266.675V101.181ZM276.409 102.478C275.335 102.478 274.461 102.126 273.787 101.423C273.113 100.715 272.776 99.7703 272.776 98.5886V98.3396C272.776 97.5535 272.925 96.8528 273.223 96.2375C273.526 95.6174 273.946 95.134 274.483 94.7874C275.025 94.4358 275.611 94.26 276.241 94.26C277.271 94.26 278.072 94.5994 278.643 95.2781C279.214 95.9568 279.5 96.9285 279.5 98.1931V98.7571H274.131C274.151 99.5383 274.378 100.171 274.812 100.654C275.252 101.133 275.809 101.372 276.482 101.372C276.961 101.372 277.366 101.274 277.698 101.079C278.03 100.884 278.321 100.625 278.57 100.302L279.397 100.947C278.733 101.968 277.737 102.478 276.409 102.478ZM276.241 95.3733C275.694 95.3733 275.235 95.5735 274.864 95.9739C274.493 96.3694 274.263 96.926 274.175 97.6438H278.145V97.5413C278.106 96.8528 277.92 96.3206 277.588 95.9446C277.256 95.5637 276.807 95.3733 276.241 95.3733ZM280.745 98.303C280.745 97.0872 281.033 96.1106 281.609 95.3733C282.186 94.6311 282.94 94.26 283.873 94.26C284.8 94.26 285.535 94.5774 286.077 95.2122V91.0813H287.432V102.331H286.187L286.121 101.482C285.579 102.146 284.825 102.478 283.858 102.478C282.94 102.478 282.19 102.102 281.609 101.35C281.033 100.598 280.745 99.6165 280.745 98.4055V98.303ZM282.1 98.4568C282.1 99.3552 282.286 100.058 282.657 100.566C283.028 101.074 283.541 101.328 284.195 101.328C285.054 101.328 285.682 100.942 286.077 100.171V96.5305C285.672 95.7834 285.049 95.4099 284.209 95.4099C283.545 95.4099 283.028 95.6663 282.657 96.179C282.286 96.6917 282.1 97.4509 282.1 98.4568ZM289.219 98.303C289.219 97.0676 289.505 96.0862 290.076 95.3586C290.647 94.6262 291.404 94.26 292.347 94.26C293.313 94.26 294.068 94.6018 294.61 95.2854L294.676 94.4065H295.914V102.141C295.914 103.166 295.608 103.974 294.998 104.565C294.393 105.156 293.577 105.451 292.552 105.451C291.98 105.451 291.421 105.329 290.875 105.085C290.328 104.841 289.91 104.507 289.622 104.082L290.325 103.269C290.906 103.987 291.617 104.345 292.457 104.345C293.116 104.345 293.628 104.16 293.995 103.789C294.366 103.418 294.551 102.895 294.551 102.221V101.54C294.009 102.165 293.27 102.478 292.332 102.478C291.404 102.478 290.652 102.104 290.076 101.357C289.505 100.61 289.219 99.592 289.219 98.303ZM290.582 98.4568C290.582 99.3503 290.765 100.053 291.131 100.566C291.497 101.074 292.01 101.328 292.669 101.328C293.523 101.328 294.151 100.94 294.551 100.163V96.5452C294.136 95.7883 293.514 95.4099 292.684 95.4099C292.024 95.4099 291.509 95.6663 291.138 96.179C290.767 96.6917 290.582 97.4509 290.582 98.4568ZM301.253 102.478C300.179 102.478 299.305 102.126 298.631 101.423C297.957 100.715 297.62 99.7703 297.62 98.5886V98.3396C297.62 97.5535 297.769 96.8528 298.067 96.2375C298.37 95.6174 298.79 95.134 299.327 94.7874C299.869 94.4358 300.455 94.26 301.084 94.26C302.115 94.26 302.916 94.5994 303.487 95.2781C304.058 95.9568 304.344 96.9285 304.344 98.1931V98.7571H298.975C298.995 99.5383 299.222 100.171 299.656 100.654C300.096 101.133 300.652 101.372 301.326 101.372C301.805 101.372 302.21 101.274 302.542 101.079C302.874 100.884 303.165 100.625 303.414 100.302L304.241 100.947C303.577 101.968 302.581 102.478 301.253 102.478ZM301.084 95.3733C300.538 95.3733 300.079 95.5735 299.708 95.9739C299.336 96.3694 299.107 96.926 299.019 97.6438H302.989V97.5413C302.95 96.8528 302.764 96.3206 302.432 95.9446C302.1 95.5637 301.651 95.3733 301.084 95.3733ZM309.749 95.6223C309.544 95.5881 309.322 95.571 309.083 95.571C308.194 95.571 307.591 95.9495 307.273 96.7063V102.331H305.918V94.4065H307.237L307.259 95.322C307.703 94.614 308.333 94.26 309.148 94.26C309.412 94.26 309.612 94.2942 309.749 94.3625V95.6223Z" fill="white"/>
<path d="M431.723 0H367.493C362.922 0 359.216 3.7151 359.216 8.29791V72.6864C359.216 77.2692 362.922 80.9843 367.493 80.9843H431.723C436.294 80.9843 440 77.2692 440 72.6864V8.29791C440 3.7151 436.294 0 431.723 0Z" fill="#C8EBFF"/>
<path d="M399.706 34.8685V18.0835L386.412 40.9725L399.706 34.8685Z" fill="#6CB3DB"/>
<path d="M399.707 34.8685V18.0835L413.001 40.9725L399.707 34.8685Z" fill="#4A6C9B"/>
<path d="M399.706 53.1797L386.412 44.0246L399.706 37.5904L412.999 44.0246L399.706 53.1797Z" fill="white"/>
<path d="M399.706 49.3633V34.8685L386.412 40.9725L399.706 49.3633Z" fill="white"/>
<path d="M399.707 49.3633V34.8685L413.001 40.9725L399.707 49.3633Z" fill="white"/>
<path d="M385.675 47.839C385.627 46.5269 385.88 45.2213 386.413 44.022L399.706 53.1779C399.7 54.8375 399.211 56.4592 398.299 57.8446C395.345 62.4226 390.105 60.0444 387.886 56.2299C386.294 53.7327 385.521 50.7988 385.675 47.839Z" fill="#6CB3DB"/>
<path d="M413.738 47.839C413.785 46.5269 413.533 45.2213 413 44.022L399.706 53.1796C399.713 54.8397 400.202 56.462 401.113 57.848C404.067 62.4259 409.308 60.0477 411.527 56.2332C413.12 53.735 413.893 50.7998 413.738 47.839Z" fill="#4A6C9B"/>
<path d="M393.798 60.0462C398.229 60.0462 399.706 55.4683 399.706 53.1797C399.706 55.4683 401.183 60.0462 405.615 60.0462C408.569 60.0462 410.785 56.9942 411.523 56.2292C410.331 58.3155 408.611 60.0492 406.536 61.255C404.461 62.4608 402.105 63.0958 399.707 63.0958C397.308 63.0958 394.952 62.4608 392.877 61.255C390.803 60.0492 389.082 58.3155 387.89 56.2292C388.628 56.9951 390.844 60.0462 393.798 60.0462Z" fill="#509CBA"/>
<path d="M382.817 98.1565V102.331H381.411V91.6672H385.344C386.511 91.6672 387.424 91.9651 388.083 92.5608C388.748 93.1565 389.08 93.9451 389.08 94.9265C389.08 95.9617 388.755 96.76 388.105 97.3215C387.461 97.8782 386.536 98.1565 385.33 98.1565H382.817ZM382.817 97.0066H385.344C386.096 97.0066 386.672 96.8308 387.073 96.4792C387.473 96.1228 387.673 95.6101 387.673 94.9412C387.673 94.3064 387.473 93.7986 387.073 93.4177C386.672 93.0369 386.123 92.8391 385.425 92.8245H382.817V97.0066ZM390.2 98.2957C390.2 97.5193 390.352 96.821 390.654 96.2009C390.962 95.5808 391.387 95.1023 391.929 94.7654C392.476 94.4285 393.098 94.26 393.796 94.26C394.875 94.26 395.747 94.6335 396.411 95.3806C397.08 96.1277 397.415 97.1213 397.415 98.3616V98.4568C397.415 99.2283 397.266 99.9216 396.968 100.537C396.675 101.147 396.252 101.623 395.701 101.965C395.154 102.307 394.524 102.478 393.811 102.478C392.737 102.478 391.865 102.104 391.196 101.357C390.532 100.61 390.2 99.6213 390.2 98.3909V98.2957ZM391.562 98.4568C391.562 99.3357 391.765 100.041 392.17 100.573C392.581 101.106 393.127 101.372 393.811 101.372C394.5 101.372 395.046 101.103 395.452 100.566C395.857 100.024 396.06 99.2673 396.06 98.2957C396.06 97.4265 395.852 96.7234 395.437 96.1863C395.027 95.6443 394.48 95.3733 393.796 95.3733C393.127 95.3733 392.588 95.6394 392.178 96.1716C391.768 96.7039 391.562 97.4656 391.562 98.4568ZM402.944 95.6223C402.739 95.5881 402.517 95.571 402.278 95.571C401.389 95.571 400.786 95.9495 400.469 96.7063V102.331H399.114V94.4065H400.432L400.454 95.322C400.898 94.614 401.528 94.26 402.344 94.26C402.607 94.26 402.808 94.2942 402.944 94.3625V95.6223ZM406.401 92.4875V94.4065H407.881V95.4539H406.401V100.368C406.401 100.686 406.467 100.925 406.599 101.086C406.731 101.242 406.956 101.321 407.273 101.321C407.429 101.321 407.644 101.291 407.917 101.233V102.331C407.561 102.429 407.214 102.478 406.877 102.478C406.272 102.478 405.815 102.295 405.508 101.928C405.2 101.562 405.046 101.042 405.046 100.368V95.4539H403.604V94.4065H405.046V92.4875H406.401ZM410.942 102.331H409.587V94.4065H410.942V102.331ZM409.478 92.3044C409.478 92.0847 409.543 91.8992 409.675 91.7478C409.812 91.5964 410.012 91.5208 410.276 91.5208C410.54 91.5208 410.74 91.5964 410.876 91.7478C411.013 91.8992 411.082 92.0847 411.082 92.3044C411.082 92.5242 411.013 92.7073 410.876 92.8538C410.74 93.0002 410.54 93.0735 410.276 93.0735C410.012 93.0735 409.812 93.0002 409.675 92.8538C409.543 92.7073 409.478 92.5242 409.478 92.3044ZM417.732 100.229C417.732 99.863 417.593 99.5798 417.314 99.3796C417.041 99.1746 416.56 98.9988 415.872 98.8523C415.188 98.7058 414.644 98.53 414.238 98.325C413.838 98.1199 413.54 97.8757 413.345 97.5925C413.154 97.3093 413.059 96.9724 413.059 96.5818C413.059 95.9324 413.333 95.3831 413.879 94.9338C414.431 94.4846 415.134 94.26 415.989 94.26C416.887 94.26 417.615 94.4919 418.171 94.9558C418.733 95.4197 419.014 96.0129 419.014 96.7356H417.651C417.651 96.3645 417.493 96.0447 417.175 95.7761C416.863 95.5076 416.467 95.3733 415.989 95.3733C415.496 95.3733 415.11 95.4807 414.832 95.6956C414.553 95.9104 414.414 96.1912 414.414 96.5378C414.414 96.865 414.543 97.1116 414.802 97.2776C415.061 97.4436 415.527 97.6023 416.201 97.7537C416.88 97.905 417.429 98.0857 417.849 98.2957C418.269 98.5056 418.579 98.7595 418.779 99.0574C418.984 99.3503 419.087 99.7092 419.087 100.134C419.087 100.842 418.804 101.411 418.237 101.841C417.671 102.265 416.936 102.478 416.033 102.478C415.398 102.478 414.836 102.365 414.348 102.141C413.86 101.916 413.477 101.604 413.198 101.203C412.925 100.798 412.788 100.361 412.788 99.8923H414.143C414.167 100.346 414.348 100.708 414.685 100.976C415.027 101.24 415.476 101.372 416.033 101.372C416.545 101.372 416.956 101.269 417.263 101.064C417.576 100.854 417.732 100.576 417.732 100.229Z" fill="white"/>
<path d="M72.5078 125.329H8.27839C3.7069 125.329 0.000976562 129.044 0.000976562 133.627V198.016C0.000976562 202.598 3.7069 206.313 8.27839 206.313H72.5078C77.0793 206.313 80.7852 202.598 80.7852 198.016V133.627C80.7852 129.044 77.0793 125.329 72.5078 125.329Z" fill="#E6E3FF"/>
<path d="M19.2021 144.578V187.063H30.9751V156.38H61.5825V144.578H19.2021Z" fill="#6851FF"/>
<path d="M40.3931 165.821V177.623H49.8111V187.064C56.8751 187.064 61.5841 181.163 61.5841 176.443V165.821H40.3931Z" fill="#6851FF"/>
<path d="M15.2397 222.951H10.7646V227.66H9.3584V216.996H15.9648V218.154H10.7646V221.801H15.2397V222.951ZM16.917 223.625C16.917 222.848 17.0684 222.15 17.3711 221.53C17.6787 220.91 18.1035 220.431 18.6455 220.094C19.1924 219.758 19.8149 219.589 20.5132 219.589C21.5923 219.589 22.4639 219.963 23.1279 220.71C23.7969 221.457 24.1313 222.45 24.1313 223.691V223.786C24.1313 224.557 23.9824 225.251 23.6846 225.866C23.3916 226.476 22.9692 226.952 22.4175 227.294C21.8706 227.636 21.2407 227.807 20.5278 227.807C19.4536 227.807 18.582 227.433 17.9131 226.686C17.249 225.939 16.917 224.95 16.917 223.72V223.625ZM18.2793 223.786C18.2793 224.665 18.4819 225.37 18.8872 225.903C19.2974 226.435 19.8442 226.701 20.5278 226.701C21.2163 226.701 21.7632 226.432 22.1685 225.895C22.5737 225.353 22.7764 224.596 22.7764 223.625C22.7764 222.756 22.5688 222.052 22.1538 221.515C21.7437 220.973 21.1968 220.702 20.5132 220.702C19.8442 220.702 19.3047 220.969 18.8945 221.501C18.4844 222.033 18.2793 222.795 18.2793 223.786ZM29.6611 220.951C29.4561 220.917 29.2339 220.9 28.9946 220.9C28.106 220.9 27.5029 221.279 27.1855 222.035V227.66H25.8306V219.736H27.1489L27.1709 220.651C27.6152 219.943 28.2451 219.589 29.0605 219.589C29.3242 219.589 29.5244 219.623 29.6611 219.692V220.951ZM33.1182 217.817V219.736H34.5977V220.783H33.1182V225.698C33.1182 226.015 33.1841 226.254 33.3159 226.415C33.4478 226.572 33.6724 226.65 33.9897 226.65C34.146 226.65 34.3608 226.62 34.6343 226.562V227.66C34.2778 227.758 33.9312 227.807 33.5942 227.807C32.9888 227.807 32.5322 227.624 32.2246 227.258C31.917 226.891 31.7632 226.371 31.7632 225.698V220.783H30.3203V219.736H31.7632V217.817H33.1182ZM37.4614 219.736L37.498 220.615C38.0791 219.931 38.8628 219.589 39.8491 219.589C40.9575 219.589 41.7119 220.014 42.1123 220.864C42.376 220.483 42.7178 220.175 43.1377 219.941C43.5625 219.706 44.063 219.589 44.6392 219.589C46.3774 219.589 47.2612 220.51 47.2905 222.35V227.66H45.9355V222.431C45.9355 221.865 45.8062 221.442 45.5474 221.164C45.2886 220.881 44.854 220.739 44.2437 220.739C43.7407 220.739 43.3232 220.89 42.9912 221.193C42.6592 221.491 42.4663 221.894 42.4126 222.402V227.66H41.0503V222.468C41.0503 221.315 40.4863 220.739 39.3584 220.739C38.4697 220.739 37.8618 221.117 37.5347 221.874V227.66H36.1797V219.736H37.4614ZM54.2339 227.66C54.1558 227.504 54.0923 227.226 54.0435 226.825C53.4136 227.48 52.6616 227.807 51.7876 227.807C51.0063 227.807 50.3643 227.587 49.8613 227.148C49.3633 226.703 49.1143 226.142 49.1143 225.463C49.1143 224.638 49.4268 223.998 50.0518 223.544C50.6816 223.085 51.5654 222.856 52.7031 222.856H54.0215V222.233C54.0215 221.76 53.8799 221.384 53.5967 221.105C53.3135 220.822 52.896 220.68 52.3442 220.68C51.8608 220.68 51.4556 220.802 51.1284 221.047C50.8013 221.291 50.6377 221.586 50.6377 221.933H49.2754C49.2754 221.537 49.4146 221.156 49.6929 220.79C49.9761 220.419 50.3569 220.126 50.8354 219.911C51.3188 219.697 51.8486 219.589 52.4248 219.589C53.3379 219.589 54.0532 219.819 54.5708 220.278C55.0884 220.732 55.3569 221.359 55.3765 222.16V225.807C55.3765 226.535 55.4692 227.114 55.6548 227.543V227.66H54.2339ZM51.9854 226.628C52.4102 226.628 52.813 226.518 53.1938 226.298C53.5747 226.078 53.8506 225.793 54.0215 225.441V223.815H52.9595C51.2993 223.815 50.4692 224.301 50.4692 225.273C50.4692 225.698 50.6108 226.03 50.894 226.269C51.1772 226.508 51.541 226.628 51.9854 226.628ZM59.3389 217.817V219.736H60.8184V220.783H59.3389V225.698C59.3389 226.015 59.4048 226.254 59.5366 226.415C59.6685 226.572 59.8931 226.65 60.2104 226.65C60.3667 226.65 60.5815 226.62 60.855 226.562V227.66C60.4985 227.758 60.1519 227.807 59.8149 227.807C59.2095 227.807 58.7529 227.624 58.4453 227.258C58.1377 226.891 57.9839 226.371 57.9839 225.698V220.783H56.541V219.736H57.9839V217.817H59.3389ZM63.8799 227.66H62.5249V219.736H63.8799V227.66ZM62.415 217.634C62.415 217.414 62.481 217.228 62.6128 217.077C62.7495 216.926 62.9497 216.85 63.2134 216.85C63.4771 216.85 63.6772 216.926 63.814 217.077C63.9507 217.228 64.019 217.414 64.019 217.634C64.019 217.853 63.9507 218.036 63.814 218.183C63.6772 218.329 63.4771 218.403 63.2134 218.403C62.9497 218.403 62.7495 218.329 62.6128 218.183C62.481 218.036 62.415 217.853 62.415 217.634ZM69.2339 226.701C69.7173 226.701 70.1396 226.554 70.501 226.261C70.8623 225.969 71.0625 225.602 71.1016 225.163H72.3833C72.3589 225.617 72.2026 226.049 71.9146 226.459C71.6265 226.869 71.2407 227.197 70.7573 227.441C70.2788 227.685 69.771 227.807 69.2339 227.807C68.1548 227.807 67.2954 227.448 66.6558 226.73C66.021 226.008 65.7036 225.021 65.7036 223.771V223.544C65.7036 222.773 65.8452 222.087 66.1284 221.486C66.4116 220.885 66.8169 220.419 67.3442 220.087C67.8765 219.755 68.5039 219.589 69.2266 219.589C70.1152 219.589 70.8525 219.855 71.4385 220.387C72.0293 220.92 72.3442 221.611 72.3833 222.46H71.1016C71.0625 221.948 70.8672 221.528 70.5156 221.2C70.1689 220.868 69.7393 220.702 69.2266 220.702C68.5381 220.702 68.0034 220.951 67.6226 221.449C67.2466 221.943 67.0586 222.658 67.0586 223.595V223.852C67.0586 224.765 67.2466 225.468 67.6226 225.961C67.9985 226.454 68.5356 226.701 69.2339 226.701Z" fill="white"/>
<path d="M319.507 125.329H255.277C250.706 125.329 247 129.044 247 133.627V198.016C247 202.598 250.706 206.313 255.277 206.313H319.507C324.078 206.313 327.784 202.598 327.784 198.016V133.627C327.784 129.044 324.078 125.329 319.507 125.329Z" fill="#FFEAEC"/>
<path fill-rule="evenodd" clip-rule="evenodd" d="M282.253 144.624L279.17 149.497L273.002 151.926V163.143C273.002 166.784 273.718 169.139 274.691 170.882C275.738 172.586 277.046 174.113 278.567 175.409C281.356 177.826 284.286 180.075 287.341 182.145C290.735 179.614 296.186 175.436 298.267 173.459C300.798 171.06 301.777 167.778 301.777 163.142V151.926L295.609 149.502L292.531 144.624L305.891 149.022V163.143C305.891 168.254 304.815 172.769 301.178 176.218C298.607 178.661 291.705 183.873 288.654 186.125L287.445 187.017L286.197 186.173C282.523 183.725 279.004 181.051 275.66 178.167L275.595 178.106C273.809 176.556 272.277 174.734 271.057 172.706C269.511 169.764 268.764 166.466 268.891 163.143V149.022L282.253 144.624Z" fill="#FC354A"/>
<path d="M287.392 176.789L282.253 172.889L287.392 163.144L292.532 172.89L287.392 176.789Z" fill="#FC354A"/>
<path d="M287.389 155.346L279.17 169.966C276.703 167.627 276.086 166.066 276.086 163.143L287.389 144.624C290.13 148.848 296.229 158.465 298.695 163.143C298.695 167.043 296.639 168.666 295.612 169.966L287.389 155.346Z" fill="#FC354A"/>
<path d="M257.417 224.877H252.95L251.946 227.66H250.496L254.568 216.996H255.799L259.878 227.66H258.436L257.417 224.877ZM253.375 223.72H257L255.184 218.732L253.375 223.72ZM265.906 226.877C265.379 227.497 264.605 227.807 263.584 227.807C262.74 227.807 262.095 227.563 261.651 227.074C261.211 226.581 260.989 225.854 260.984 224.892V219.736H262.339V224.855C262.339 226.056 262.828 226.657 263.804 226.657C264.839 226.657 265.528 226.271 265.87 225.5V219.736H267.225V227.66H265.936L265.906 226.877ZM271.128 217.817V219.736H272.608V220.783H271.128V225.698C271.128 226.015 271.194 226.254 271.326 226.415C271.458 226.572 271.683 226.65 272 226.65C272.156 226.65 272.371 226.62 272.645 226.562V227.66C272.288 227.758 271.941 227.807 271.604 227.807C270.999 227.807 270.542 227.624 270.235 227.258C269.927 226.891 269.773 226.371 269.773 225.698V220.783H268.331V219.736H269.773V217.817H271.128ZM275.552 220.695C276.153 219.958 276.934 219.589 277.896 219.589C279.571 219.589 280.416 220.534 280.43 222.424V227.66H279.075V222.416C279.07 221.845 278.938 221.423 278.68 221.149C278.426 220.876 278.028 220.739 277.486 220.739C277.046 220.739 276.661 220.856 276.329 221.091C275.997 221.325 275.738 221.633 275.552 222.013V227.66H274.197V216.41H275.552V220.695ZM285.748 227.807C284.673 227.807 283.799 227.455 283.125 226.752C282.452 226.044 282.115 225.099 282.115 223.918V223.669C282.115 222.883 282.264 222.182 282.562 221.567C282.864 220.947 283.284 220.463 283.821 220.116C284.363 219.765 284.949 219.589 285.579 219.589C286.609 219.589 287.41 219.928 287.981 220.607C288.553 221.286 288.838 222.258 288.838 223.522V224.086H283.47C283.489 224.867 283.716 225.5 284.151 225.983C284.59 226.462 285.147 226.701 285.821 226.701C286.299 226.701 286.705 226.603 287.037 226.408C287.369 226.213 287.659 225.954 287.908 225.632L288.736 226.276C288.072 227.297 287.076 227.807 285.748 227.807ZM285.579 220.702C285.032 220.702 284.573 220.903 284.202 221.303C283.831 221.698 283.602 222.255 283.514 222.973H287.483V222.87C287.444 222.182 287.259 221.65 286.927 221.274C286.595 220.893 286.146 220.702 285.579 220.702ZM294.244 220.951C294.039 220.917 293.816 220.9 293.577 220.9C292.688 220.9 292.085 221.279 291.768 222.035V227.66H290.413V219.736H291.731L291.753 220.651C292.198 219.943 292.828 219.589 293.643 219.589C293.907 219.589 294.107 219.623 294.244 219.692V220.951ZM298.638 227.807C297.564 227.807 296.69 227.455 296.016 226.752C295.342 226.044 295.005 225.099 295.005 223.918V223.669C295.005 222.883 295.154 222.182 295.452 221.567C295.755 220.947 296.175 220.463 296.712 220.116C297.254 219.765 297.84 219.589 298.47 219.589C299.5 219.589 300.301 219.928 300.872 220.607C301.443 221.286 301.729 222.258 301.729 223.522V224.086H296.36C296.38 224.867 296.607 225.5 297.042 225.983C297.481 226.462 298.038 226.701 298.711 226.701C299.19 226.701 299.595 226.603 299.927 226.408C300.259 226.213 300.55 225.954 300.799 225.632L301.626 226.276C300.962 227.297 299.966 227.807 298.638 227.807ZM298.47 220.702C297.923 220.702 297.464 220.903 297.093 221.303C296.722 221.698 296.492 222.255 296.404 222.973H300.374V222.87C300.335 222.182 300.149 221.65 299.817 221.274C299.485 220.893 299.036 220.702 298.47 220.702ZM308.196 226.877C307.669 227.497 306.895 227.807 305.875 227.807C305.03 227.807 304.385 227.563 303.941 227.074C303.501 226.581 303.279 225.854 303.274 224.892V219.736H304.629V224.855C304.629 226.056 305.118 226.657 306.094 226.657C307.129 226.657 307.818 226.271 308.16 225.5V219.736H309.515V227.66H308.226L308.196 226.877ZM312.854 219.736L312.891 220.615C313.472 219.931 314.256 219.589 315.242 219.589C316.351 219.589 317.105 220.014 317.505 220.864C317.769 220.483 318.111 220.175 318.531 219.941C318.956 219.706 319.456 219.589 320.032 219.589C321.771 219.589 322.654 220.51 322.684 222.35V227.66H321.329V222.431C321.329 221.865 321.199 221.442 320.94 221.164C320.682 220.881 320.247 220.739 319.637 220.739C319.134 220.739 318.716 220.89 318.384 221.193C318.052 221.491 317.859 221.894 317.806 222.402V227.66H316.443V222.468C316.443 221.315 315.879 220.739 314.751 220.739C313.863 220.739 313.255 221.117 312.928 221.874V227.66H311.573V219.736H312.854Z" fill="white"/>
<path d="M431.723 125.329H367.493C362.922 125.329 359.216 129.044 359.216 133.627V198.016C359.216 202.598 362.922 206.313 367.493 206.313H431.723C436.294 206.313 440 202.598 440 198.016V133.627C440 129.044 436.294 125.329 431.723 125.329Z" fill="#D9E8FF"/>
<path fill-rule="evenodd" clip-rule="evenodd" d="M379.996 157.351V144.647H404.769V186.994H392.383V157.351H379.996ZM413.027 157.351C414.287 157.38 415.526 157.032 416.587 156.352C417.649 155.671 418.484 154.689 418.985 153.531C419.487 152.373 419.634 151.091 419.406 149.849C419.178 148.607 418.585 147.461 417.705 146.558C416.824 145.655 415.695 145.035 414.462 144.778C413.229 144.521 411.947 144.639 410.78 145.115C409.614 145.592 408.615 146.406 407.913 147.454C407.21 148.502 406.834 149.736 406.834 150.999C406.816 152.665 407.457 154.27 408.619 155.461C409.78 156.652 411.366 157.332 413.027 157.351Z" fill="#438BF3"/>
<path d="M389.673 218.154H386.245V227.66H384.846V218.154H381.426V216.996H389.673V218.154ZM389.951 223.625C389.951 222.848 390.103 222.15 390.405 221.53C390.713 220.91 391.138 220.431 391.68 220.094C392.227 219.758 392.849 219.589 393.547 219.589C394.626 219.589 395.498 219.963 396.162 220.71C396.831 221.457 397.166 222.45 397.166 223.691V223.786C397.166 224.557 397.017 225.251 396.719 225.866C396.426 226.476 396.003 226.952 395.452 227.294C394.905 227.636 394.275 227.807 393.562 227.807C392.488 227.807 391.616 227.433 390.947 226.686C390.283 225.939 389.951 224.95 389.951 223.72V223.625ZM391.313 223.786C391.313 224.665 391.516 225.37 391.921 225.903C392.332 226.435 392.878 226.701 393.562 226.701C394.25 226.701 394.797 226.432 395.203 225.895C395.608 225.353 395.811 224.596 395.811 223.625C395.811 222.756 395.603 222.052 395.188 221.515C394.778 220.973 394.231 220.702 393.547 220.702C392.878 220.702 392.339 220.969 391.929 221.501C391.519 222.033 391.313 222.795 391.313 223.786ZM402.695 220.951C402.49 220.917 402.268 220.9 402.029 220.9C401.14 220.9 400.537 221.279 400.22 222.035V227.66H398.865V219.736H400.183L400.205 220.651C400.649 219.943 401.279 219.589 402.095 219.589C402.358 219.589 402.559 219.623 402.695 219.692V220.951ZM408.84 226.877C408.313 227.497 407.539 227.807 406.519 227.807C405.674 227.807 405.029 227.563 404.585 227.074C404.146 226.581 403.923 225.854 403.918 224.892V219.736H405.273V224.855C405.273 226.056 405.762 226.657 406.738 226.657C407.773 226.657 408.462 226.271 408.804 225.5V219.736H410.159V227.66H408.87L408.84 226.877ZM416.838 225.558C416.838 225.192 416.699 224.909 416.421 224.709C416.147 224.504 415.667 224.328 414.978 224.181C414.294 224.035 413.75 223.859 413.345 223.654C412.944 223.449 412.646 223.205 412.451 222.922C412.261 222.638 412.166 222.302 412.166 221.911C412.166 221.261 412.439 220.712 412.986 220.263C413.538 219.814 414.241 219.589 415.095 219.589C415.994 219.589 416.721 219.821 417.278 220.285C417.839 220.749 418.12 221.342 418.12 222.065H416.758C416.758 221.694 416.599 221.374 416.282 221.105C415.969 220.837 415.574 220.702 415.095 220.702C414.602 220.702 414.216 220.81 413.938 221.025C413.66 221.24 413.521 221.52 413.521 221.867C413.521 222.194 413.65 222.441 413.909 222.607C414.167 222.773 414.634 222.931 415.308 223.083C415.986 223.234 416.536 223.415 416.956 223.625C417.375 223.835 417.686 224.089 417.886 224.386C418.091 224.679 418.193 225.038 418.193 225.463C418.193 226.171 417.91 226.74 417.344 227.17C416.777 227.594 416.042 227.807 415.139 227.807C414.504 227.807 413.943 227.695 413.455 227.47C412.966 227.245 412.583 226.933 412.305 226.532C412.031 226.127 411.895 225.69 411.895 225.221H413.25C413.274 225.676 413.455 226.037 413.792 226.305C414.133 226.569 414.583 226.701 415.139 226.701C415.652 226.701 416.062 226.598 416.37 226.393C416.682 226.183 416.838 225.905 416.838 225.558Z" fill="white"/>
<path d="M429.531 242.796H369.686C365.115 242.796 361.409 246.511 361.409 251.094V311.087C361.409 315.67 365.115 319.385 369.686 319.385H429.531C434.102 319.385 437.808 315.67 437.808 311.087V251.094C437.808 246.511 434.102 242.796 429.531 242.796Z" fill="#ADF4EC"/>
<path d="M399.609 302.283C411.284 302.283 420.749 292.795 420.749 281.091C420.749 269.387 411.284 259.899 399.609 259.899C387.934 259.899 378.469 269.387 378.469 281.091C378.469 292.795 387.934 302.283 399.609 302.283Z" fill="#4794A2"/>
<path fill-rule="evenodd" clip-rule="evenodd" d="M394.201 268.862C396.606 267.819 399.267 267.521 401.842 268.009C404.417 268.496 406.787 269.746 408.646 271.596C410.506 273.447 411.77 275.814 412.274 278.392C412.779 280.969 412.501 283.639 411.478 286.057L397.312 280.028H406.187C405.976 278.38 405.172 276.866 403.927 275.769C402.682 274.672 401.081 274.068 399.423 274.069C398.731 274.064 398.042 274.167 397.382 274.376L394.201 268.862ZM392.604 280.919C392.605 282.732 393.324 284.471 394.602 285.753C395.881 287.034 397.615 287.755 399.423 287.756C399.924 287.751 400.423 287.696 400.913 287.59L404.191 293.145C401.829 294.066 399.251 294.281 396.769 293.764C394.287 293.247 392.008 292.02 390.208 290.231C388.408 288.442 387.163 286.169 386.624 283.686C386.086 281.203 386.277 278.617 387.174 276.24L392.949 278.775C392.721 279.467 392.605 280.191 392.604 280.919Z" fill="white"/>
<path d="M386.39 329.625L389.876 338.326L393.362 329.625H395.186V340.289H393.78V336.136L393.912 331.653L390.411 340.289H389.334L385.84 331.675L385.979 336.136V340.289H384.573V329.625H386.39ZM400.745 340.435C399.671 340.435 398.797 340.083 398.123 339.38C397.449 338.672 397.112 337.728 397.112 336.546V336.297C397.112 335.511 397.261 334.81 397.559 334.195C397.862 333.575 398.282 333.091 398.819 332.745C399.361 332.393 399.947 332.217 400.577 332.217C401.607 332.217 402.408 332.557 402.979 333.235C403.55 333.914 403.836 334.886 403.836 336.15V336.714H398.467C398.487 337.496 398.714 338.128 399.148 338.611C399.588 339.09 400.145 339.329 400.818 339.329C401.297 339.329 401.702 339.231 402.034 339.036C402.366 338.841 402.657 338.582 402.906 338.26L403.733 338.904C403.069 339.925 402.073 340.435 400.745 340.435ZM400.577 333.331C400.03 333.331 399.571 333.531 399.2 333.931C398.829 334.327 398.599 334.883 398.511 335.601H402.481V335.499C402.442 334.81 402.256 334.278 401.924 333.902C401.592 333.521 401.143 333.331 400.577 333.331ZM412.427 338.421L413.951 332.364H415.306L412.999 340.289H411.9L409.974 334.283L408.099 340.289H407L404.7 332.364H406.048L407.608 338.296L409.454 332.364H410.545L412.427 338.421Z" fill="white"/>
</svg>
