<svg width="75" height="73" viewBox="0 0 75 73" fill="none" xmlns="http://www.w3.org/2000/svg">
<path d="M45.3757 59.3747C61.7366 59.3747 74.9999 46.0832 74.9999 29.6873C74.9999 13.2915 61.7366 0 45.3757 0C29.0147 0 15.7515 13.2915 15.7515 29.6873C15.7515 46.0832 29.0147 59.3747 45.3757 59.3747Z" fill="#312F3A"/>
<path fill-rule="evenodd" clip-rule="evenodd" d="M1.09032 18.2126H11.0448C11.3335 18.2135 11.6102 18.3288 11.8144 18.5333C12.0185 18.7379 12.1336 19.0152 12.1344 19.3045V29.2779C12.1348 29.3295 12.1312 29.3811 12.1236 29.4321L17.1913 34.5106C17.2545 34.5711 17.3051 34.6437 17.34 34.7241C17.3748 34.8045 17.3933 34.8911 17.3943 34.9787C17.3954 35.0664 17.3789 35.1534 17.3459 35.2345C17.3129 35.3157 17.264 35.3895 17.2022 35.4515C17.1403 35.5134 17.0667 35.5624 16.9857 35.5955C16.9047 35.6286 16.8179 35.6451 16.7304 35.6441C16.643 35.643 16.5566 35.6245 16.4764 35.5896C16.3961 35.5546 16.3237 35.504 16.2633 35.4406L11.1956 30.3575C11.1446 30.3646 11.0932 30.3682 11.0417 30.3683H1.09032C0.801872 30.3674 0.525442 30.2524 0.321331 30.0481C0.117219 29.8438 0.00198708 29.567 0.000769404 29.2779V19.3045C0.00158156 19.0152 0.116634 18.7379 0.32079 18.5333C0.524945 18.3288 0.801606 18.2135 1.09032 18.2126ZM55.1064 48.8916V42.1059C55.106 41.9091 55.0278 41.7205 54.8889 41.5813C54.75 41.4421 54.5618 41.3638 54.3654 41.3634H47.5942C47.3978 41.3638 47.2095 41.4421 47.0706 41.5813C46.9318 41.7205 46.8536 41.9091 46.8532 42.1059V44.8418H43.2721C43.1841 44.8388 43.0963 44.8535 43.0141 44.8852C42.9319 44.9169 42.8569 44.9648 42.7935 45.0262C42.7302 45.0875 42.6798 45.161 42.6454 45.2423C42.611 45.3235 42.5933 45.4109 42.5933 45.4992C42.5933 45.5874 42.611 45.6748 42.6454 45.7561C42.6798 45.8373 42.7302 45.9108 42.7935 45.9722C42.8569 46.0335 42.9319 46.0814 43.0141 46.1131C43.0963 46.1448 43.1841 46.1595 43.2721 46.1565H46.8485V48.8924C46.849 49.0892 46.9272 49.2778 47.066 49.417C47.2049 49.5562 47.3931 49.6345 47.5895 49.635H54.3608C54.5572 49.6345 54.7454 49.5562 54.8843 49.417C55.0232 49.2778 55.1014 49.0892 55.1018 48.8924L55.1064 48.8916ZM54.0138 72.9993H44.0585C43.7698 72.9985 43.4931 72.8832 43.289 72.6786C43.0848 72.474 42.9697 72.1967 42.9689 71.9074V61.9332C42.9685 61.8816 42.9721 61.83 42.9797 61.779L37.9113 56.7036C37.848 56.6431 37.7974 56.5705 37.7626 56.4901C37.7277 56.4097 37.7092 56.3231 37.7082 56.2355C37.7072 56.1478 37.7237 56.0609 37.7567 55.9797C37.7897 55.8985 37.8385 55.8248 37.9004 55.7628C37.9622 55.7008 38.0358 55.6518 38.1168 55.6187C38.1978 55.5857 38.2846 55.5691 38.3721 55.5702C38.4596 55.5712 38.546 55.5897 38.6262 55.6247C38.7064 55.6596 38.7788 55.7103 38.8392 55.7737L43.9069 60.8521C43.9579 60.845 44.0093 60.8414 44.0608 60.8413H54.0138C54.3025 60.8422 54.5791 60.9575 54.7833 61.162C54.9874 61.3666 55.1025 61.6439 55.1033 61.9332V71.9089C55.1021 72.198 54.9869 72.4749 54.7827 72.6791C54.5786 72.8834 54.3022 72.9985 54.0138 72.9993ZM24.2726 72.9993H31.0438C31.2402 72.9989 31.4285 72.9205 31.5674 72.7813C31.7062 72.6422 31.7844 72.4535 31.7848 72.2567V65.471C31.7844 65.2742 31.7062 65.0856 31.5674 64.9464C31.4285 64.8072 31.2402 64.7289 31.0438 64.7285H28.3146V61.1444C28.3176 61.0562 28.3029 60.9682 28.2712 60.8858C28.2396 60.8035 28.1918 60.7283 28.1306 60.6648C28.0694 60.6013 27.9961 60.5508 27.915 60.5164C27.8339 60.4819 27.7467 60.4641 27.6586 60.4641C27.5705 60.4641 27.4833 60.4819 27.4023 60.5164C27.3212 60.5508 27.2478 60.6013 27.1866 60.6648C27.1254 60.7283 27.0776 60.8035 27.046 60.8858C27.0144 60.9682 26.9996 61.0562 27.0026 61.1444V64.7285H24.2718C24.0754 64.7289 23.8872 64.8072 23.7483 64.9464C23.6095 65.0856 23.5312 65.2742 23.5308 65.471V72.2567C23.5312 72.4535 23.6095 72.6422 23.7483 72.7813C23.8872 72.9205 24.0754 72.9989 24.2718 72.9993H24.2726ZM1.08955 72.9993H11.0441C11.3326 72.9987 11.6093 72.8837 11.8135 72.6794C12.0178 72.4751 12.1332 72.1981 12.1344 71.9089V61.9332C12.1348 61.8816 12.1312 61.83 12.1236 61.779L17.1913 56.7005C17.2545 56.64 17.3051 56.5674 17.34 56.487C17.3748 56.4066 17.3933 56.3201 17.3943 56.2324C17.3954 56.1448 17.3789 56.0578 17.3459 55.9766C17.3129 55.8954 17.264 55.8217 17.2022 55.7597C17.1403 55.6977 17.0667 55.6487 16.9857 55.6157C16.9047 55.5826 16.8179 55.5661 16.7304 55.5671C16.643 55.5681 16.5566 55.5866 16.4764 55.6216C16.3961 55.6565 16.3237 55.7072 16.2633 55.7706L11.1956 60.8491C11.1446 60.8419 11.0932 60.8383 11.0417 60.8383H1.08955C0.800304 60.8391 0.523179 60.9548 0.318936 61.1601C0.114693 61.3653 -1.14759e-06 61.6434 0 61.9332V71.9089C0.00121768 72.198 0.11645 72.4749 0.320561 72.6791C0.524673 72.8834 0.801102 72.9985 1.08955 72.9993ZM54.0138 18.2126H44.0585C43.7698 18.2135 43.4931 18.3288 43.289 18.5333C43.0848 18.7379 42.9697 19.0152 42.9689 19.3045V29.2779C42.9685 29.3295 42.9721 29.3811 42.9797 29.4321L37.9113 34.5098C37.848 34.5704 37.7974 34.643 37.7626 34.7234C37.7277 34.8037 37.7092 34.8903 37.7082 34.978C37.7072 35.0656 37.7237 35.1526 37.7567 35.2338C37.7897 35.315 37.8385 35.3887 37.9004 35.4507C37.9622 35.5127 38.0358 35.5616 38.1168 35.5947C38.1978 35.6278 38.2846 35.6443 38.3721 35.6433C38.4596 35.6423 38.546 35.6238 38.6262 35.5888C38.7064 35.5539 38.7788 35.5032 38.8392 35.4398L43.9084 30.3575C43.9594 30.3646 44.0109 30.3682 44.0623 30.3683H54.0138C54.3021 30.3672 54.5783 30.2521 54.7823 30.0478C54.9862 29.8436 55.1013 29.5669 55.1025 29.2779V19.3045C55.1017 19.0153 54.9868 18.7382 54.7828 18.5336C54.5788 18.3291 54.3023 18.2137 54.0138 18.2126ZM0.216218 48.8916V42.1059C0.216625 41.9091 0.294824 41.7205 0.433698 41.5813C0.572572 41.4421 0.76081 41.3638 0.957208 41.3634H7.72845C7.92485 41.3638 8.11309 41.4421 8.25196 41.5813C8.39084 41.7205 8.46904 41.9091 8.46944 42.1059V44.8418H12.0459C12.1339 44.8388 12.2217 44.8535 12.3039 44.8852C12.3861 44.9169 12.4611 44.9648 12.5245 45.0262C12.5878 45.0875 12.6382 45.161 12.6726 45.2423C12.707 45.3235 12.7247 45.4109 12.7247 45.4992C12.7247 45.5874 12.707 45.6748 12.6726 45.7561C12.6382 45.8373 12.5878 45.9108 12.5245 45.9722C12.4611 46.0335 12.3861 46.0814 12.3039 46.1131C12.2217 46.1448 12.1339 46.1595 12.0459 46.1565H8.47021V48.8924C8.4698 49.0892 8.39161 49.2778 8.25273 49.417C8.11386 49.5562 7.92562 49.6345 7.72922 49.635H0.957977C0.76158 49.6345 0.573342 49.5562 0.434468 49.417C0.295593 49.2778 0.217394 49.0892 0.216988 48.8924L0.216218 48.8916ZM24.2734 18.2126H31.0446C31.241 18.2131 31.4293 18.2914 31.5681 18.4306C31.707 18.5698 31.7852 18.7584 31.7856 18.9552V25.7409C31.7852 25.9377 31.707 26.1263 31.5681 26.2655C31.4293 26.4047 31.241 26.4831 31.0446 26.4835H28.3153V30.0675C28.3184 30.1558 28.3036 30.2437 28.272 30.3261C28.2404 30.4085 28.1926 30.4836 28.1314 30.5471C28.0702 30.6106 27.9968 30.6611 27.9157 30.6956C27.8346 30.73 27.7475 30.7478 27.6594 30.7478C27.5713 30.7478 27.4841 30.73 27.403 30.6956C27.3219 30.6611 27.2486 30.6106 27.1874 30.5471C27.1262 30.4836 27.0783 30.4085 27.0467 30.3261C27.0151 30.2437 27.0004 30.1558 27.0034 30.0675V26.4842H24.2726C24.0762 26.4838 23.888 26.4055 23.7491 26.2663C23.6102 26.1271 23.532 25.9385 23.5316 25.7417V18.956C23.532 18.7592 23.6102 18.5705 23.7491 18.4314C23.888 18.2922 24.0762 18.2138 24.2726 18.2134L24.2734 18.2126Z" fill="url(#paint0_linear_173_407)"/>
<path fill-rule="evenodd" clip-rule="evenodd" d="M28.5563 32.9453L38.0592 38.444C38.1273 38.4835 38.1931 38.527 38.2561 38.5743L27.6591 44.7053L17.0621 38.5743C17.1254 38.5273 17.1911 38.4838 17.2591 38.444L26.7619 32.9453C27.0333 32.7834 27.3433 32.698 27.6591 32.698C27.975 32.698 28.2849 32.7834 28.5563 32.9453ZM38.944 39.7649C38.9536 39.8432 38.9585 39.922 38.9586 40.0009V50.9975C38.963 51.3139 38.882 51.6255 38.7242 51.8995C38.5664 52.1736 38.3377 52.3998 38.0622 52.5544L28.5594 58.0531C28.4915 58.0928 28.421 58.1281 28.3486 58.1587V45.8982L38.9456 39.7672L38.944 39.7649ZM26.9735 58.1572C26.9013 58.126 26.8309 58.0907 26.7627 58.0515L17.2599 52.5528C16.9843 52.3984 16.7555 52.1722 16.5977 51.8981C16.4399 51.6241 16.359 51.3123 16.3635 50.996V40.0001C16.3636 39.9212 16.3685 39.8424 16.3781 39.7641L26.9751 45.8944V58.1549L26.9735 58.1572Z" fill="url(#paint1_linear_173_407)"/>
<defs>
<linearGradient id="paint0_linear_173_407" x1="27.5532" y1="18.2126" x2="27.5532" y2="72.9993" gradientUnits="userSpaceOnUse">
<stop stop-color="#F88311"/>
<stop offset="1" stop-color="#F83811"/>
</linearGradient>
<linearGradient id="paint1_linear_173_407" x1="27.661" y1="32.698" x2="27.661" y2="58.1587" gradientUnits="userSpaceOnUse">
<stop stop-color="#F88311"/>
<stop offset="1" stop-color="#F83811"/>
</linearGradient>
</defs>
</svg>
