<svg width="63" height="84" viewBox="0 0 63 84" fill="none" xmlns="http://www.w3.org/2000/svg">
<path d="M4.73984 80C4.61984 80 4.51784 79.958 4.43384 79.874C4.34984 79.79 4.30784 79.688 4.30784 79.568V69.614H0.977836C0.857836 69.614 0.755836 69.572 0.671836 69.488C0.587836 69.404 0.545836 69.302 0.545836 69.182V67.85C0.545836 67.718 0.581836 67.61 0.653836 67.526C0.737836 67.442 0.845836 67.4 0.977836 67.4H10.1578C10.2898 67.4 10.3978 67.442 10.4818 67.526C10.5658 67.61 10.6078 67.718 10.6078 67.85V69.182C10.6078 69.302 10.5658 69.404 10.4818 69.488C10.3978 69.572 10.2898 69.614 10.1578 69.614H6.84584V79.568C6.84584 79.688 6.80384 79.79 6.71984 79.874C6.63584 79.958 6.52784 80 6.39584 80H4.73984ZM13.7723 80C13.6163 80 13.4903 79.964 13.3943 79.892C13.3103 79.808 13.2383 79.694 13.1783 79.55L10.6043 71.198C10.5923 71.162 10.5863 71.108 10.5863 71.036C10.5863 70.928 10.6223 70.838 10.6943 70.766C10.7783 70.682 10.8683 70.64 10.9643 70.64H12.2963C12.4283 70.64 12.5363 70.676 12.6203 70.748C12.7043 70.82 12.7583 70.898 12.7823 70.982L14.5463 76.94L16.4183 71.036C16.4543 70.928 16.5143 70.838 16.5983 70.766C16.6943 70.682 16.8143 70.64 16.9583 70.64H17.8583C18.0023 70.64 18.1163 70.682 18.2003 70.766C18.2963 70.838 18.3623 70.928 18.3983 71.036L20.2703 76.94L22.0343 70.982C22.0463 70.898 22.0943 70.82 22.1783 70.748C22.2743 70.676 22.3823 70.64 22.5023 70.64H23.8343C23.9423 70.64 24.0323 70.682 24.1043 70.766C24.1883 70.838 24.2303 70.928 24.2303 71.036L24.1943 71.198L21.6203 79.55C21.5723 79.694 21.5003 79.808 21.4043 79.892C21.3203 79.964 21.2003 80 21.0443 80H19.8743C19.5623 80 19.3643 79.85 19.2803 79.55L17.4083 73.862L15.5363 79.55C15.4403 79.85 15.2363 80 14.9243 80H13.7723ZM26.3419 69.092C26.2219 69.092 26.1199 69.05 26.0359 68.966C25.9519 68.882 25.9099 68.78 25.9099 68.66V67.364C25.9099 67.244 25.9519 67.142 26.0359 67.058C26.1199 66.974 26.2219 66.932 26.3419 66.932H27.9799C28.0999 66.932 28.2019 66.974 28.2859 67.058C28.3819 67.142 28.4299 67.244 28.4299 67.364V68.66C28.4299 68.78 28.3879 68.882 28.3039 68.966C28.2199 69.05 28.1119 69.092 27.9799 69.092H26.3419ZM26.4139 80C26.2939 80 26.1919 79.958 26.1079 79.874C26.0239 79.79 25.9819 79.688 25.9819 79.568V71.072C25.9819 70.952 26.0239 70.85 26.1079 70.766C26.1919 70.682 26.2939 70.64 26.4139 70.64H27.9079C28.0399 70.64 28.1419 70.682 28.2139 70.766C28.2979 70.838 28.3399 70.94 28.3399 71.072V79.568C28.3399 79.688 28.2979 79.79 28.2139 79.874C28.1419 79.958 28.0399 80 27.9079 80H26.4139ZM34.958 80C33.866 80 33.044 79.718 32.492 79.154C31.952 78.578 31.682 77.738 31.682 76.634V72.548H30.26C30.14 72.548 30.038 72.506 29.954 72.422C29.87 72.326 29.828 72.218 29.828 72.098V71.072C29.828 70.952 29.87 70.85 29.954 70.766C30.038 70.682 30.14 70.64 30.26 70.64H31.682V67.652C31.682 67.52 31.724 67.418 31.808 67.346C31.892 67.262 31.994 67.22 32.114 67.22H33.572C33.704 67.22 33.806 67.262 33.878 67.346C33.962 67.418 34.004 67.52 34.004 67.652V70.64H36.254C36.386 70.64 36.488 70.682 36.56 70.766C36.644 70.838 36.686 70.94 36.686 71.072V72.098C36.686 72.23 36.644 72.338 36.56 72.422C36.476 72.506 36.374 72.548 36.254 72.548H34.004V76.454C34.004 76.97 34.094 77.36 34.274 77.624C34.454 77.888 34.754 78.02 35.174 78.02H36.416C36.536 78.02 36.638 78.062 36.722 78.146C36.806 78.23 36.848 78.332 36.848 78.452V79.568C36.848 79.688 36.806 79.79 36.722 79.874C36.65 79.958 36.548 80 36.416 80H34.958ZM42.6748 80C41.5828 80 40.7608 79.718 40.2088 79.154C39.6688 78.578 39.3988 77.738 39.3988 76.634V72.548H37.9768C37.8568 72.548 37.7548 72.506 37.6708 72.422C37.5868 72.326 37.5448 72.218 37.5448 72.098V71.072C37.5448 70.952 37.5868 70.85 37.6708 70.766C37.7548 70.682 37.8568 70.64 37.9768 70.64H39.3988V67.652C39.3988 67.52 39.4408 67.418 39.5248 67.346C39.6088 67.262 39.7108 67.22 39.8308 67.22H41.2888C41.4208 67.22 41.5228 67.262 41.5948 67.346C41.6788 67.418 41.7208 67.52 41.7208 67.652V70.64H43.9708C44.1028 70.64 44.2048 70.682 44.2768 70.766C44.3608 70.838 44.4028 70.94 44.4028 71.072V72.098C44.4028 72.23 44.3608 72.338 44.2768 72.422C44.1928 72.506 44.0908 72.548 43.9708 72.548H41.7208V76.454C41.7208 76.97 41.8108 77.36 41.9908 77.624C42.1708 77.888 42.4708 78.02 42.8908 78.02H44.1328C44.2528 78.02 44.3548 78.062 44.4388 78.146C44.5228 78.23 44.5648 78.332 44.5648 78.452V79.568C44.5648 79.688 44.5228 79.79 44.4388 79.874C44.3668 79.958 44.2648 80 44.1328 80H42.6748ZM50.1936 80.18C48.8616 80.18 47.7996 79.796 47.0076 79.028C46.2276 78.248 45.8136 77.156 45.7656 75.752L45.7476 75.302L45.7656 74.852C45.8256 73.484 46.2456 72.41 47.0256 71.63C47.8176 70.85 48.8736 70.46 50.1936 70.46C51.6096 70.46 52.7016 70.892 53.4696 71.756C54.2496 72.62 54.6396 73.772 54.6396 75.212V75.59C54.6396 75.71 54.5976 75.812 54.5136 75.896C54.4296 75.98 54.3216 76.022 54.1896 76.022H48.2136V76.166C48.2376 76.826 48.4176 77.384 48.7536 77.84C49.1016 78.284 49.5756 78.506 50.1756 78.506C50.8836 78.506 51.4536 78.23 51.8856 77.678C51.9936 77.546 52.0776 77.462 52.1376 77.426C52.2096 77.39 52.3116 77.372 52.4436 77.372H53.9916C54.0996 77.372 54.1896 77.408 54.2616 77.48C54.3456 77.54 54.3876 77.618 54.3876 77.714C54.3876 78.002 54.2136 78.344 53.8656 78.74C53.5296 79.124 53.0436 79.46 52.4076 79.748C51.7716 80.036 51.0336 80.18 50.1936 80.18ZM52.1916 74.51V74.456C52.1916 73.748 52.0116 73.178 51.6516 72.746C51.3036 72.314 50.8176 72.098 50.1936 72.098C49.5696 72.098 49.0836 72.314 48.7356 72.746C48.3876 73.178 48.2136 73.748 48.2136 74.456V74.51H52.1916ZM56.9823 80C56.8623 80 56.7603 79.958 56.6763 79.874C56.5923 79.79 56.5503 79.688 56.5503 79.568V71.09C56.5503 70.97 56.5923 70.868 56.6763 70.784C56.7603 70.688 56.8623 70.64 56.9823 70.64H58.4403C58.5723 70.64 58.6803 70.682 58.7643 70.766C58.8483 70.85 58.8903 70.958 58.8903 71.09V71.828C59.1783 71.444 59.5383 71.15 59.9703 70.946C60.4143 70.742 60.9183 70.64 61.4823 70.64H62.2203C62.3523 70.64 62.4543 70.682 62.5263 70.766C62.6103 70.838 62.6523 70.94 62.6523 71.072V72.368C62.6523 72.488 62.6103 72.59 62.5263 72.674C62.4543 72.758 62.3523 72.8 62.2203 72.8H60.8163C60.2523 72.8 59.8083 72.962 59.4843 73.286C59.1603 73.61 58.9983 74.054 58.9983 74.618V79.568C58.9983 79.688 58.9563 79.79 58.8723 79.874C58.7883 79.958 58.6803 80 58.5483 80H56.9823Z" fill="white"/>
<path fill-rule="evenodd" clip-rule="evenodd" d="M45.3227 18.1521C45.3343 18.452 45.3382 18.7516 45.3382 19.0514C45.3382 28.1409 38.9442 38.6342 27.2518 38.6342C23.6601 38.6342 20.3203 37.4895 17.5063 35.5407C18.0038 35.5953 18.5089 35.6362 19.0218 35.6362C21.9999 35.6362 24.7427 34.5322 26.9184 32.6789C24.1368 32.638 21.788 30.6347 20.9779 27.9093C21.3668 27.991 21.7673 28.032 22.1768 28.032C22.7544 28.032 23.3151 27.9504 23.8525 27.7868C20.9417 27.16 18.7492 24.38 18.7492 21.0413C18.7492 21.0004 18.7492 20.9867 18.7492 20.9595C19.6071 21.4637 20.589 21.777 21.6316 21.8178C19.9236 20.5777 18.8009 18.4656 18.8009 16.0808C18.8009 14.827 19.1136 13.6414 19.6639 12.6193C22.7983 16.7893 27.4843 19.5285 32.7673 19.8147C32.6587 19.3104 32.6032 18.7791 32.6032 18.2476C32.6032 14.4456 35.4494 11.3657 38.961 11.3657C40.7891 11.3657 42.4403 12.1971 43.5992 13.5326C45.0501 13.2328 46.4093 12.6605 47.6392 11.8701C47.1625 13.4781 46.156 14.827 44.8408 15.6719C46.1276 15.5083 47.355 15.1407 48.4933 14.5956C47.6393 15.9719 46.5643 17.1846 45.3227 18.1521Z" fill="#F87A11"/>
</svg>
