<svg width="80" height="84" viewBox="0 0 80 84" fill="none" xmlns="http://www.w3.org/2000/svg">
<path d="M4.72323 80C4.60323 80 4.50123 79.958 4.41723 79.874C4.33323 79.79 4.29123 79.688 4.29123 79.568V69.614H0.961234C0.841234 69.614 0.739234 69.572 0.655234 69.488C0.571234 69.404 0.529234 69.302 0.529234 69.182V67.85C0.529234 67.718 0.565234 67.61 0.637234 67.526C0.721234 67.442 0.829234 67.4 0.961234 67.4H10.1412C10.2732 67.4 10.3812 67.442 10.4652 67.526C10.5492 67.61 10.5912 67.718 10.5912 67.85V69.182C10.5912 69.302 10.5492 69.404 10.4652 69.488C10.3812 69.572 10.2732 69.614 10.1412 69.614H6.82923V79.568C6.82923 79.688 6.78723 79.79 6.70323 79.874C6.61923 79.958 6.51123 80 6.37923 80H4.72323ZM14.5813 80.18C13.2493 80.18 12.1873 79.796 11.3953 79.028C10.6153 78.248 10.2013 77.156 10.1533 75.752L10.1353 75.302L10.1533 74.852C10.2133 73.484 10.6333 72.41 11.4133 71.63C12.2053 70.85 13.2613 70.46 14.5813 70.46C15.9973 70.46 17.0893 70.892 17.8573 71.756C18.6373 72.62 19.0273 73.772 19.0273 75.212V75.59C19.0273 75.71 18.9853 75.812 18.9013 75.896C18.8173 75.98 18.7093 76.022 18.5773 76.022H12.6013V76.166C12.6253 76.826 12.8053 77.384 13.1413 77.84C13.4893 78.284 13.9633 78.506 14.5633 78.506C15.2713 78.506 15.8413 78.23 16.2733 77.678C16.3813 77.546 16.4653 77.462 16.5253 77.426C16.5973 77.39 16.6993 77.372 16.8313 77.372H18.3793C18.4873 77.372 18.5773 77.408 18.6493 77.48C18.7333 77.54 18.7753 77.618 18.7753 77.714C18.7753 78.002 18.6013 78.344 18.2533 78.74C17.9173 79.124 17.4313 79.46 16.7953 79.748C16.1593 80.036 15.4213 80.18 14.5813 80.18ZM16.5793 74.51V74.456C16.5793 73.748 16.3993 73.178 16.0393 72.746C15.6913 72.314 15.2053 72.098 14.5813 72.098C13.9573 72.098 13.4713 72.314 13.1233 72.746C12.7753 73.178 12.6013 73.748 12.6013 74.456V74.51H16.5793ZM21.388 80C21.268 80 21.166 79.958 21.082 79.874C20.998 79.79 20.956 79.688 20.956 79.568V67.652C20.956 67.52 20.998 67.418 21.082 67.346C21.166 67.262 21.268 67.22 21.388 67.22H22.882C23.014 67.22 23.116 67.262 23.188 67.346C23.272 67.418 23.314 67.52 23.314 67.652V79.568C23.314 79.688 23.272 79.79 23.188 79.874C23.116 79.958 23.014 80 22.882 80H21.388ZM29.7337 80.18C28.4017 80.18 27.3397 79.796 26.5477 79.028C25.7677 78.248 25.3537 77.156 25.3057 75.752L25.2877 75.302L25.3057 74.852C25.3657 73.484 25.7857 72.41 26.5657 71.63C27.3577 70.85 28.4137 70.46 29.7337 70.46C31.1497 70.46 32.2417 70.892 33.0097 71.756C33.7897 72.62 34.1797 73.772 34.1797 75.212V75.59C34.1797 75.71 34.1377 75.812 34.0537 75.896C33.9697 75.98 33.8617 76.022 33.7297 76.022H27.7537V76.166C27.7777 76.826 27.9577 77.384 28.2937 77.84C28.6417 78.284 29.1157 78.506 29.7157 78.506C30.4237 78.506 30.9937 78.23 31.4257 77.678C31.5337 77.546 31.6177 77.462 31.6777 77.426C31.7497 77.39 31.8517 77.372 31.9837 77.372H33.5317C33.6397 77.372 33.7297 77.408 33.8017 77.48C33.8857 77.54 33.9277 77.618 33.9277 77.714C33.9277 78.002 33.7537 78.344 33.4057 78.74C33.0697 79.124 32.5837 79.46 31.9477 79.748C31.3117 80.036 30.5737 80.18 29.7337 80.18ZM31.7317 74.51V74.456C31.7317 73.748 31.5517 73.178 31.1917 72.746C30.8437 72.314 30.3577 72.098 29.7337 72.098C29.1097 72.098 28.6237 72.314 28.2757 72.746C27.9277 73.178 27.7537 73.748 27.7537 74.456V74.51H31.7317ZM40.3203 83.96C39.2523 83.96 38.3883 83.78 37.7283 83.42C37.0683 83.072 36.6003 82.67 36.3243 82.214C36.0483 81.758 35.9103 81.368 35.9103 81.044C35.9103 80.936 35.9523 80.84 36.0363 80.756C36.1323 80.672 36.2343 80.63 36.3423 80.63H37.9083C38.0163 80.63 38.1063 80.654 38.1783 80.702C38.2623 80.762 38.3283 80.864 38.3763 81.008C38.4963 81.332 38.6883 81.602 38.9523 81.818C39.2283 82.046 39.6543 82.16 40.2303 82.16C40.9503 82.16 41.4783 81.998 41.8143 81.674C42.1623 81.35 42.3363 80.792 42.3363 80V78.776C41.6763 79.556 40.7523 79.946 39.5643 79.946C38.3163 79.946 37.3743 79.562 36.7383 78.794C36.1143 78.026 35.7783 76.994 35.7303 75.698L35.7123 75.212L35.7303 74.726C35.7783 73.454 36.1203 72.428 36.7563 71.648C37.3923 70.856 38.3283 70.46 39.5643 70.46C40.2003 70.46 40.7583 70.58 41.2383 70.82C41.7183 71.06 42.1203 71.39 42.4443 71.81V71.09C42.4443 70.958 42.4863 70.85 42.5703 70.766C42.6543 70.682 42.7563 70.64 42.8763 70.64H44.3343C44.4543 70.64 44.5563 70.688 44.6403 70.784C44.7243 70.868 44.7663 70.97 44.7663 71.09L44.7843 79.766C44.7843 81.098 44.4123 82.13 43.6683 82.862C42.9243 83.594 41.8083 83.96 40.3203 83.96ZM40.2303 78.038C40.9143 78.038 41.4243 77.822 41.7603 77.39C42.1083 76.958 42.3003 76.43 42.3363 75.806C42.3483 75.71 42.3543 75.512 42.3543 75.212C42.3543 74.924 42.3483 74.732 42.3363 74.636C42.3003 74 42.1083 73.466 41.7603 73.034C41.4243 72.602 40.9143 72.386 40.2303 72.386C38.9343 72.386 38.2503 73.184 38.1783 74.78L38.1603 75.212C38.1603 76.064 38.3103 76.748 38.6103 77.264C38.9223 77.78 39.4623 78.038 40.2303 78.038ZM47.6141 80C47.4941 80 47.3921 79.958 47.3081 79.874C47.2241 79.79 47.1821 79.688 47.1821 79.568V71.09C47.1821 70.97 47.2241 70.868 47.3081 70.784C47.3921 70.688 47.4941 70.64 47.6141 70.64H49.0721C49.2041 70.64 49.3121 70.682 49.3961 70.766C49.4801 70.85 49.5221 70.958 49.5221 71.09V71.828C49.8101 71.444 50.1701 71.15 50.6021 70.946C51.0461 70.742 51.5501 70.64 52.1141 70.64H52.8521C52.9841 70.64 53.0861 70.682 53.1581 70.766C53.2421 70.838 53.2841 70.94 53.2841 71.072V72.368C53.2841 72.488 53.2421 72.59 53.1581 72.674C53.0861 72.758 52.9841 72.8 52.8521 72.8H51.4481C50.8841 72.8 50.4401 72.962 50.1161 73.286C49.7921 73.61 49.6301 74.054 49.6301 74.618V79.568C49.6301 79.688 49.5881 79.79 49.5041 79.874C49.4201 79.958 49.3121 80 49.1801 80H47.6141ZM57.2654 80.18C56.6534 80.18 56.0894 80.06 55.5734 79.82C55.0694 79.568 54.6674 79.232 54.3674 78.812C54.0794 78.392 53.9354 77.93 53.9354 77.426C53.9354 76.61 54.2654 75.95 54.9254 75.446C55.5854 74.942 56.4914 74.6 57.6434 74.42L60.1094 74.06V73.682C60.1094 73.154 59.9774 72.758 59.7134 72.494C59.4494 72.23 59.0234 72.098 58.4354 72.098C58.0394 72.098 57.7154 72.176 57.4634 72.332C57.2234 72.476 57.0314 72.62 56.8874 72.764C56.7434 72.92 56.6474 73.022 56.5994 73.07C56.5514 73.214 56.4614 73.286 56.3294 73.286H54.9434C54.8354 73.286 54.7394 73.25 54.6554 73.178C54.5834 73.106 54.5474 73.01 54.5474 72.89C54.5594 72.59 54.7034 72.248 54.9794 71.864C55.2674 71.48 55.7054 71.15 56.2934 70.874C56.8814 70.598 57.6014 70.46 58.4534 70.46C59.8694 70.46 60.9014 70.778 61.5494 71.414C62.1974 72.05 62.5214 72.884 62.5214 73.916V79.568C62.5214 79.688 62.4794 79.79 62.3954 79.874C62.3234 79.958 62.2214 80 62.0894 80H60.6314C60.5114 80 60.4094 79.958 60.3254 79.874C60.2414 79.79 60.1994 79.688 60.1994 79.568V78.866C59.9354 79.25 59.5574 79.568 59.0654 79.82C58.5854 80.06 57.9854 80.18 57.2654 80.18ZM57.8774 78.47C58.5374 78.47 59.0774 78.254 59.4974 77.822C59.9174 77.39 60.1274 76.76 60.1274 75.932V75.554L58.3274 75.842C57.6314 75.95 57.1034 76.124 56.7434 76.364C56.3954 76.604 56.2214 76.898 56.2214 77.246C56.2214 77.63 56.3834 77.93 56.7074 78.146C57.0314 78.362 57.4214 78.47 57.8774 78.47ZM65.2626 80C65.1426 80 65.0406 79.958 64.9566 79.874C64.8726 79.79 64.8306 79.688 64.8306 79.568V71.072C64.8306 70.952 64.8726 70.85 64.9566 70.766C65.0406 70.682 65.1426 70.64 65.2626 70.64H66.6666C66.7866 70.64 66.8886 70.682 66.9726 70.766C67.0566 70.85 67.0986 70.952 67.0986 71.072V71.684C67.7226 70.868 68.5926 70.46 69.7086 70.46C71.0406 70.46 71.9706 70.994 72.4986 72.062C72.7866 71.582 73.1946 71.198 73.7226 70.91C74.2506 70.61 74.8206 70.46 75.4326 70.46C76.4166 70.46 77.2206 70.796 77.8446 71.468C78.4686 72.14 78.7806 73.118 78.7806 74.402V79.568C78.7806 79.688 78.7386 79.79 78.6546 79.874C78.5826 79.958 78.4806 80 78.3486 80H76.8726C76.7526 80 76.6506 79.958 76.5666 79.874C76.4826 79.79 76.4406 79.688 76.4406 79.568V74.546C76.4406 73.79 76.2786 73.244 75.9546 72.908C75.6426 72.56 75.2226 72.386 74.6946 72.386C74.2266 72.386 73.8246 72.56 73.4886 72.908C73.1646 73.256 73.0026 73.802 73.0026 74.546V79.568C73.0026 79.688 72.9606 79.79 72.8766 79.874C72.7926 79.958 72.6906 80 72.5706 80H71.0946C70.9746 80 70.8726 79.958 70.7886 79.874C70.7046 79.79 70.6626 79.688 70.6626 79.568V74.546C70.6626 73.79 70.4946 73.244 70.1586 72.908C69.8346 72.56 69.4206 72.386 68.9166 72.386C68.4366 72.386 68.0286 72.56 67.6926 72.908C67.3686 73.256 67.2066 73.802 67.2066 74.546V79.568C67.2066 79.688 67.1646 79.79 67.0806 79.874C66.9966 79.958 66.8946 80 66.7746 80H65.2626Z" fill="white"/>
<path d="M51.178 11.6938L21.0757 23.3044C19.0212 24.1287 19.0334 25.2746 20.7012 25.7856L28.2088 28.1289L31.0814 36.936C31.4306 37.8999 31.2585 38.2822 32.2707 38.2822C33.0519 38.2822 33.3984 37.9261 33.8335 37.5011C34.1102 37.2303 35.7529 35.6332 37.5871 33.8499L45.3964 39.6198C46.8334 40.4126 47.871 40.0019 48.2289 38.2852L53.3551 14.1284C53.8799 12.0243 52.5529 11.0698 51.178 11.6938ZM29.3871 27.5905L46.3093 16.9142C47.154 16.4019 47.9286 16.6773 47.2927 17.2418L32.8028 30.3153L32.2386 36.3328L29.3871 27.5905Z" fill="#F87A11"/>
</svg>
