<svg width="48" height="55" viewBox="0 0 48 55" fill="none" xmlns="http://www.w3.org/2000/svg">
<path fill-rule="evenodd" clip-rule="evenodd" d="M23.8164 0L35.7241 6.87539L47.6317 13.7508V41.2492L35.7241 48.1246L23.8164 55L11.9084 48.1246L0 41.2492V13.75L11.9076 6.87461L23.8164 0Z" fill="url(#paint0_linear_173_160)"/>
<path fill-rule="evenodd" clip-rule="evenodd" d="M29.6076 27.3796V33.4128L33.3333 37.1377V27.3787C33.3106 24.8699 32.2979 22.4715 30.5158 20.7055C28.7337 18.9395 26.3265 17.9487 23.8175 17.9487C21.3086 17.9487 18.9013 18.9395 17.1192 20.7055C15.3372 22.4715 14.3244 24.8699 14.3018 27.3787V35.2752C14.3117 35.7627 14.5125 36.2268 14.8608 36.5681C15.209 36.9093 15.6771 37.1004 16.1646 37.1004C16.6522 37.1004 17.1202 36.9093 17.4685 36.5681C17.8168 36.2268 18.0175 35.7627 18.0275 35.2752V32.9505H22.8116C23.3051 32.9491 23.7779 32.7523 24.1269 32.4034C24.4758 32.0544 24.6727 31.5815 24.6741 31.088C24.6727 30.5945 24.4758 30.1216 24.1269 29.7727C23.7779 29.4237 23.3051 29.2271 22.8116 29.2256H18.0275V27.3796C18.0186 26.6136 18.162 25.8533 18.4489 25.143C18.7359 24.4328 19.1607 23.7865 19.6992 23.2417C20.2378 22.6969 20.8791 22.2644 21.586 21.9692C22.2929 21.674 23.0515 21.5219 23.8175 21.5219C24.5836 21.5219 25.3421 21.674 26.049 21.9692C26.7559 22.2644 27.3973 22.6969 27.9358 23.2417C28.4744 23.7865 28.8991 24.4328 29.1861 25.143C29.4731 25.8533 29.6164 26.6136 29.6076 27.3796Z" fill="#1F1C2B"/>
<defs>
<linearGradient id="paint0_linear_173_160" x1="23.8159" y1="0" x2="23.8159" y2="55" gradientUnits="userSpaceOnUse">
<stop stop-color="#F88311"/>
<stop offset="1" stop-color="#F83811"/>
</linearGradient>
</defs>
</svg>
