<svg width="48" height="50" viewBox="0 0 48 50" fill="none" xmlns="http://www.w3.org/2000/svg">
<path fill-rule="evenodd" clip-rule="evenodd" d="M6.68846 32.455V21.3303L-0.000976562 14.462V32.4559C0.0321682 37.0869 1.84639 41.5172 5.04742 44.7798C8.24845 48.0424 12.5767 49.8726 17.0871 49.8726C21.5975 49.8726 25.9249 48.0424 29.126 44.7798C32.327 41.5172 34.1421 37.0869 34.1753 32.4559V17.8966C34.1826 17.4408 34.1012 16.9884 33.9365 16.5651C33.7717 16.1418 33.5268 15.7567 33.2155 15.4317C32.9042 15.1067 32.5328 14.8482 32.1233 14.672C31.7138 14.4958 31.2741 14.4055 30.8301 14.4055C30.3861 14.4055 29.9464 14.4958 29.5369 14.672C29.1274 14.8482 28.7569 15.1067 28.4456 15.4317C28.1343 15.7567 27.8885 16.1418 27.7237 16.5651C27.559 16.9884 27.4785 17.4408 27.4858 17.8966V32.4559C27.46 35.2702 26.3529 37.9599 24.4056 39.9406C22.4583 41.9212 19.8282 43.0329 17.0871 43.0329C14.3461 43.0329 11.7151 41.9212 9.76778 39.9406C7.82047 37.9599 6.71428 35.2702 6.68846 32.4559V32.455Z" fill="url(#paint0_linear_173_150)"/>
<path fill-rule="evenodd" clip-rule="evenodd" d="M41.2271 17.5453V28.67L47.9165 35.5393V17.5453C47.8834 12.9143 46.0692 8.48494 42.8681 5.22235C39.6671 1.95975 35.3388 0.128662 30.8284 0.128662C26.318 0.128662 21.9906 1.95975 18.7896 5.22235C15.5885 8.48494 13.7743 12.9143 13.7412 17.5453V32.1046C13.7338 32.5604 13.8143 33.0128 13.9791 33.4361C14.1439 33.8594 14.3896 34.2455 14.7009 34.5705C15.0123 34.8955 15.3828 35.153 15.7923 35.3292C16.2017 35.5054 16.6415 35.5966 17.0855 35.5966C17.5294 35.5966 17.9692 35.5054 18.3786 35.3292C18.7881 35.153 19.1587 34.8955 19.47 34.5705C19.7813 34.2455 20.027 33.8594 20.1918 33.4361C20.3566 33.0128 20.4371 32.5604 20.4297 32.1046V17.5453C20.4555 14.731 21.5626 12.0413 23.5099 10.0607C25.4573 8.07999 28.0874 6.96928 30.8284 6.96928C33.5695 6.96928 36.2005 8.07999 38.1478 10.0607C40.0951 12.0413 41.2013 14.731 41.2271 17.5453Z" fill="url(#paint1_linear_173_150)"/>
<defs>
<linearGradient id="paint0_linear_173_150" x1="17.0874" y1="14.4055" x2="17.0874" y2="49.8726" gradientUnits="userSpaceOnUse">
<stop stop-color="#F88311"/>
<stop offset="1" stop-color="#F83811"/>
</linearGradient>
<linearGradient id="paint1_linear_173_150" x1="30.8286" y1="0.128662" x2="30.8286" y2="35.5966" gradientUnits="userSpaceOnUse">
<stop stop-color="#F88311"/>
<stop offset="1" stop-color="#F83811"/>
</linearGradient>
</defs>
</svg>
