<svg width="69" height="84" viewBox="0 0 69 84" fill="none" xmlns="http://www.w3.org/2000/svg">
<path d="M2.26123 80C2.12923 80 2.02123 79.964 1.93723 79.892C1.85323 79.808 1.81123 79.7 1.81123 79.568V67.85C1.81123 67.718 1.85323 67.61 1.93723 67.526C2.02123 67.442 2.12923 67.4 2.26123 67.4H3.68323C3.93523 67.4 4.11523 67.514 4.22323 67.742L7.69723 74.222L11.2072 67.742C11.3272 67.514 11.5072 67.4 11.7472 67.4H13.1512C13.2832 67.4 13.3912 67.442 13.4752 67.526C13.5592 67.61 13.6012 67.718 13.6012 67.85V79.568C13.6012 79.7 13.5592 79.808 13.4752 79.892C13.3912 79.964 13.2832 80 13.1512 80H11.6392C11.5192 80 11.4172 79.958 11.3332 79.874C11.2492 79.79 11.2072 79.688 11.2072 79.568V71.774L8.68723 76.58C8.53123 76.844 8.32723 76.976 8.07523 76.976H7.33723C7.08523 76.976 6.88123 76.844 6.72523 76.58L4.20523 71.774V79.568C4.20523 79.688 4.16323 79.79 4.07923 79.874C4.00723 79.958 3.90523 80 3.77323 80H2.26123ZM20.2171 80.18C18.8851 80.18 17.8231 79.796 17.0311 79.028C16.2511 78.248 15.8371 77.156 15.7891 75.752L15.7711 75.302L15.7891 74.852C15.8491 73.484 16.2691 72.41 17.0491 71.63C17.8411 70.85 18.8971 70.46 20.2171 70.46C21.6331 70.46 22.7251 70.892 23.4931 71.756C24.2731 72.62 24.6631 73.772 24.6631 75.212V75.59C24.6631 75.71 24.6211 75.812 24.5371 75.896C24.4531 75.98 24.3451 76.022 24.2131 76.022H18.2371V76.166C18.2611 76.826 18.4411 77.384 18.7771 77.84C19.1251 78.284 19.5991 78.506 20.1991 78.506C20.9071 78.506 21.4771 78.23 21.9091 77.678C22.0171 77.546 22.1011 77.462 22.1611 77.426C22.2331 77.39 22.3351 77.372 22.4671 77.372H24.0151C24.1231 77.372 24.2131 77.408 24.2851 77.48C24.3691 77.54 24.4111 77.618 24.4111 77.714C24.4111 78.002 24.2371 78.344 23.8891 78.74C23.5531 79.124 23.0671 79.46 22.4311 79.748C21.7951 80.036 21.0571 80.18 20.2171 80.18ZM22.2151 74.51V74.456C22.2151 73.748 22.0351 73.178 21.6751 72.746C21.3271 72.314 20.8411 72.098 20.2171 72.098C19.5931 72.098 19.1071 72.314 18.7591 72.746C18.4111 73.178 18.2371 73.748 18.2371 74.456V74.51H22.2151ZM30.0477 80.18C28.8357 80.18 27.9057 79.79 27.2577 79.01C26.6097 78.23 26.2617 77.192 26.2137 75.896L26.1957 75.302L26.2137 74.726C26.2497 73.466 26.5917 72.44 27.2397 71.648C27.8997 70.856 28.8357 70.46 30.0477 70.46C31.2117 70.46 32.1357 70.856 32.8197 71.648V67.652C32.8197 67.52 32.8617 67.418 32.9457 67.346C33.0297 67.262 33.1317 67.22 33.2517 67.22H34.7817C34.9137 67.22 35.0157 67.262 35.0877 67.346C35.1717 67.418 35.2137 67.52 35.2137 67.652V79.568C35.2137 79.688 35.1717 79.79 35.0877 79.874C35.0157 79.958 34.9137 80 34.7817 80H33.3597C33.2397 80 33.1377 79.958 33.0537 79.874C32.9697 79.79 32.9277 79.688 32.9277 79.568V78.902C32.2437 79.754 31.2837 80.18 30.0477 80.18ZM30.7137 78.254C31.4097 78.254 31.9257 78.032 32.2617 77.588C32.5977 77.144 32.7837 76.598 32.8197 75.95C32.8317 75.806 32.8377 75.572 32.8377 75.248C32.8377 74.936 32.8317 74.708 32.8197 74.564C32.7957 73.964 32.6037 73.454 32.2437 73.034C31.8957 72.602 31.3857 72.386 30.7137 72.386C29.4177 72.386 28.7277 73.184 28.6437 74.78L28.6257 75.32L28.6437 75.86C28.7277 77.456 29.4177 78.254 30.7137 78.254ZM37.9728 69.092C37.8528 69.092 37.7508 69.05 37.6668 68.966C37.5828 68.882 37.5408 68.78 37.5408 68.66V67.364C37.5408 67.244 37.5828 67.142 37.6668 67.058C37.7508 66.974 37.8528 66.932 37.9728 66.932H39.6108C39.7308 66.932 39.8328 66.974 39.9168 67.058C40.0128 67.142 40.0608 67.244 40.0608 67.364V68.66C40.0608 68.78 40.0188 68.882 39.9348 68.966C39.8508 69.05 39.7428 69.092 39.6108 69.092H37.9728ZM38.0448 80C37.9248 80 37.8228 79.958 37.7388 79.874C37.6548 79.79 37.6128 79.688 37.6128 79.568V71.072C37.6128 70.952 37.6548 70.85 37.7388 70.766C37.8228 70.682 37.9248 70.64 38.0448 70.64H39.5388C39.6708 70.64 39.7728 70.682 39.8448 70.766C39.9288 70.838 39.9708 70.94 39.9708 71.072V79.568C39.9708 79.688 39.9288 79.79 39.8448 79.874C39.7728 79.958 39.6708 80 39.5388 80H38.0448ZM45.8329 80.18C44.7289 80.18 43.8589 79.82 43.2229 79.1C42.5869 78.368 42.2689 77.378 42.2689 76.13V71.072C42.2689 70.952 42.3109 70.85 42.3949 70.766C42.4789 70.682 42.5809 70.64 42.7009 70.64H44.2849C44.4169 70.64 44.5189 70.682 44.5909 70.766C44.6749 70.838 44.7169 70.94 44.7169 71.072V76.022C44.7169 77.51 45.3709 78.254 46.6789 78.254C47.3029 78.254 47.7949 78.056 48.1549 77.66C48.5269 77.264 48.7129 76.718 48.7129 76.022V71.072C48.7129 70.952 48.7549 70.85 48.8389 70.766C48.9229 70.682 49.0249 70.64 49.1449 70.64H50.7289C50.8609 70.64 50.9629 70.682 51.0349 70.766C51.1189 70.838 51.1609 70.94 51.1609 71.072V79.568C51.1609 79.688 51.1189 79.79 51.0349 79.874C50.9629 79.958 50.8609 80 50.7289 80H49.2709C49.1509 80 49.0489 79.958 48.9649 79.874C48.8809 79.79 48.8389 79.688 48.8389 79.568V78.83C48.1669 79.73 47.1649 80.18 45.8329 80.18ZM53.9706 80C53.8506 80 53.7486 79.958 53.6646 79.874C53.5806 79.79 53.5386 79.688 53.5386 79.568V71.072C53.5386 70.952 53.5806 70.85 53.6646 70.766C53.7486 70.682 53.8506 70.64 53.9706 70.64H55.3746C55.4946 70.64 55.5966 70.682 55.6806 70.766C55.7646 70.85 55.8066 70.952 55.8066 71.072V71.684C56.4306 70.868 57.3006 70.46 58.4166 70.46C59.7486 70.46 60.6786 70.994 61.2066 72.062C61.4946 71.582 61.9026 71.198 62.4306 70.91C62.9586 70.61 63.5286 70.46 64.1406 70.46C65.1246 70.46 65.9286 70.796 66.5526 71.468C67.1766 72.14 67.4886 73.118 67.4886 74.402V79.568C67.4886 79.688 67.4466 79.79 67.3626 79.874C67.2906 79.958 67.1886 80 67.0566 80H65.5806C65.4606 80 65.3586 79.958 65.2746 79.874C65.1906 79.79 65.1486 79.688 65.1486 79.568V74.546C65.1486 73.79 64.9866 73.244 64.6626 72.908C64.3506 72.56 63.9306 72.386 63.4026 72.386C62.9346 72.386 62.5326 72.56 62.1966 72.908C61.8726 73.256 61.7106 73.802 61.7106 74.546V79.568C61.7106 79.688 61.6686 79.79 61.5846 79.874C61.5006 79.958 61.3986 80 61.2786 80H59.8026C59.6826 80 59.5806 79.958 59.4966 79.874C59.4126 79.79 59.3706 79.688 59.3706 79.568V74.546C59.3706 73.79 59.2026 73.244 58.8666 72.908C58.5426 72.56 58.1286 72.386 57.6246 72.386C57.1446 72.386 56.7366 72.56 56.4006 72.908C56.0766 73.256 55.9146 73.802 55.9146 74.546V79.568C55.9146 79.688 55.8726 79.79 55.7886 79.874C55.7046 79.958 55.6026 80 55.4826 80H53.9706Z" fill="white"/>
<path d="M37.6689 24.9998C37.6689 31.5343 32.4077 36.8319 25.9175 36.8319C19.4273 36.8319 14.1665 31.5359 14.1665 24.9998C14.1665 18.4637 19.4277 13.1682 25.9175 13.1682C32.4073 13.1682 37.6689 18.4653 37.6689 24.9998ZM50.5604 24.9998C50.5604 31.1513 47.9296 36.1376 44.6847 36.1376C41.4398 36.1376 38.809 31.1497 38.809 24.9998C38.809 18.85 41.4398 13.8621 44.6847 13.8621C47.9296 13.8621 50.5604 18.85 50.5604 24.9998ZM55.8332 24.9998C55.8332 30.5112 54.9078 34.9788 53.7666 34.9788C52.6254 34.9788 51.7 30.5096 51.7 24.9998C51.7 19.49 52.6254 15.0209 53.767 15.0209C54.9086 15.0209 55.8332 19.4888 55.8332 24.9998Z" fill="#F87A11"/>
</svg>
