<svg width="71" height="86" viewBox="0 0 71 86" fill="none" xmlns="http://www.w3.org/2000/svg">
<g filter="url(#filter0_bd_356_1856)">
<path d="M23 13H48V53L35.5 45.5L23 53V13Z" fill="url(#paint0_linear_356_1856)" shape-rendering="crispEdges"/>
<path d="M35.2428 45.0713L23.5 52.1169V13.5H47.5V52.1169L35.7572 45.0713L35.5 44.9169L35.2428 45.0713Z" stroke="url(#paint1_linear_356_1856)" shape-rendering="crispEdges"/>
</g>
<path opacity="0.7" fill-rule="evenodd" clip-rule="evenodd" d="M30.0873 26.6554C29.5992 26.1672 29.5992 25.3758 30.0873 24.8876C30.5755 24.3994 31.3669 24.3994 31.8551 24.8876L35.5298 28.5624L39.2046 24.8876C39.6927 24.3994 40.4842 24.3994 40.9724 24.8876C41.4605 25.3758 41.4605 26.1672 40.9724 26.6554L37.3108 30.3169L40.9724 33.9785C41.4605 34.4667 41.4605 35.2581 40.9724 35.7463C40.4842 36.2344 39.6927 36.2344 39.2046 35.7463L35.5298 32.0715L31.8551 35.7463C31.3669 36.2344 30.5755 36.2344 30.0873 35.7463C29.5992 35.2581 29.5992 34.4667 30.0873 33.9785L33.7489 30.3169L30.0873 26.6554Z" fill="#CFCFCF"/>
<defs>
<filter id="filter0_bd_356_1856" x="-4" y="-14" width="79" height="100" filterUnits="userSpaceOnUse" color-interpolation-filters="sRGB">
<feFlood flood-opacity="0" result="BackgroundImageFix"/>
<feGaussianBlur in="BackgroundImage" stdDeviation="13.5"/>
<feComposite in2="SourceAlpha" operator="in" result="effect1_backgroundBlur_356_1856"/>
<feColorMatrix in="SourceAlpha" type="matrix" values="0 0 0 0 0 0 0 0 0 0 0 0 0 0 0 0 0 0 127 0" result="hardAlpha"/>
<feMorphology radius="1" operator="erode" in="SourceAlpha" result="effect2_dropShadow_356_1856"/>
<feOffset dy="10"/>
<feGaussianBlur stdDeviation="12"/>
<feComposite in2="hardAlpha" operator="out"/>
<feColorMatrix type="matrix" values="0 0 0 0 0 0 0 0 0 0 0 0 0 0 0 0 0 0 0.2 0"/>
<feBlend mode="normal" in2="effect1_backgroundBlur_356_1856" result="effect2_dropShadow_356_1856"/>
<feBlend mode="normal" in="SourceGraphic" in2="effect2_dropShadow_356_1856" result="shape"/>
</filter>
<linearGradient id="paint0_linear_356_1856" x1="23" y1="13" x2="38" y2="26.5" gradientUnits="userSpaceOnUse">
<stop stop-color="white" stop-opacity="0.33"/>
<stop offset="1" stop-color="white" stop-opacity="0.1"/>
</linearGradient>
<linearGradient id="paint1_linear_356_1856" x1="24.3934" y1="13" x2="51.7454" y2="15.8428" gradientUnits="userSpaceOnUse">
<stop stop-color="white" stop-opacity="0.5"/>
<stop offset="0.442708" stop-color="white" stop-opacity="0"/>
<stop offset="0.635417" stop-color="white" stop-opacity="0"/>
<stop offset="1" stop-color="white" stop-opacity="0.5"/>
</linearGradient>
</defs>
</svg>
