<svg xmlns="http://www.w3.org/2000/svg" width="1920.5" height="882.607" viewBox="0 0 1920.5 882.607"><defs><style>.a{opacity:0.895;mix-blend-mode:lighten;isolation:isolate;}.b{fill:#b3b3b3;}.c{fill:#666;}.d{fill:#333;}</style></defs><g transform="translate(0 -174.122)"><g class="a" transform="translate(-65.589 192.698)"><path class="b" d="M98.3,794.176,130.808,775.4l32.5,18.776,32.61-18.833.1-.05V737.755l32.314-18.661,32.509,18.769,32.609-18.826.094-.058v-37.53l32.315-18.661,32.315,18.661v37.53l32.7,18.884,32.609-18.826.094-.058V681.212l-32.509-18.769V625.136l32.415-18.711.094-.057V568.823L455.9,550.169l32.307,18.653v37.544l32.5,18.769v37.537l32.516,18.769v37.537l32.7,18.884,32.609-18.826.1-.058V681.212l-32.509-18.769V625.136l32.408-18.711.1-.057V568.823l32.307-18.653,32.315,18.653v37.544l32.71,18.884,32.6-18.826.108-.057V568.6l-32.516-18.769V512.524l32.322-18.661,32.3,18.654v37.544L813.3,568.83v37.537l32.71,18.884,32.609-18.826.1-.057V568.823l32.408-18.7.1-.057V512.517l32.307-18.654,32.315,18.654v37.544l32.71,18.884,32.494-18.776,32.322,18.653v37.544l32.71,18.884,32.6-18.826.094-.057V568.6l-32.5-18.769V512.294L1073.57,493.4l-32.516,18.769-32.3-18.653V455.981l-32.509-18.776v-37.3l32.315-18.654,32.494,18.761,32.71-18.884V343.6l32.322-18.654,32.307,18.654v37.53l32.5,18.776V437.45l32.516,18.769v37.537l32.71,18.884,32.61-18.826.1-.058V455.988l-32.516-18.783v-37.3l32.516-18.776V343.6l32.307-18.654,32.307,18.654v37.53l32.71,18.884,32.71-18.884V343.362l-32.516-18.769V287.286l32.315-18.654,32.307,18.654v37.544l32.509,18.769v37.53l32.71,18.884,32.71-18.884V343.6l32.5-18.769V287.286l32.315-18.654,32.315,18.654v37.544l32.5,18.769v37.53l32.71,18.884,32.71-18.884V343.607l32.509-18.776V287.286l32.315-18.654,32.5,18.776,32.71-18.884V230.98l32.315-18.646,32.307,18.646v37.544l32.71,18.884,32.71-18.884V230.75l-32.516-18.769V174.444l-32.7-18.884L1886.3,174.329,1853.8,155.561l-32.71,18.884v37.537l-32.307,18.654-32.516-18.761-32.71,18.877v37.537l-32.307,18.661-32.307-18.661V230.75l-32.509-18.769V174.675l32.509-18.769V118.369l32.307-18.654,32.516,18.769L1756.47,99.6V61.833l-32.516-18.776V5.527l-32.71-18.884-32.71,18.884v37.53l-32.5,18.776V99.37l-32.315,18.654-32.509-18.769-32.71,18.884v37.767l32.516,18.769v37.307L1528.5,230.75v37.537l-32.307,18.661-32.308-18.661V230.75l-32.508-18.769V174.444l-32.509-18.769V118.138l-32.71-18.884-32.71,18.884v37.767l32.516,18.769v37.307l-32.516,18.769v37.537l-32.307,18.661-32.307-18.661V230.75l-32.71-18.884-32.71,18.884v37.775l32.509,18.761v37.307L1203.6,343.254,1171.3,324.593V287.056l-32.71-18.884-32.5,18.776-32.322-18.661V230.75l-32.71-18.884-32.494,18.769-32.315-18.654V174.444l-32.71-18.884-32.71,18.884v37.767l32.509,18.769v37.544l32.71,18.884,32.516-18.776,32.3,18.654v37.307l-32.3,18.661-32.516-18.776-32.71,18.884v37.544l-32.509,18.776v37.523l-32.509,18.776v37.537l-32.307,18.653-32.315-18.653V455.981l-32.509-18.769v-37.53l-32.5-18.776V343.362l-32.71-18.884-32.71,18.884v37.767l32.516,18.776v37.3l-32.516,18.776v37.537l-32.315,18.653-32.307-18.653V455.981L585.931,437.1l-32.7,18.884v37.775l32.509,18.761v37.314l-32.315,18.646-32.307-18.646V512.294L488.4,493.4l-32.5,18.769-32.322-18.653V455.981l-32.7-18.884-32.509,18.769L325.861,437.1l-32.7,18.884v37.775l32.7,18.884,32.509-18.776,32.307,18.654v37.314l-32.307,18.646-32.509-18.761-32.609,18.826-.094.058v37.537l-32.415,18.711-.094.058v37.537L228.334,681.1l-32.509-18.769-32.609,18.826-.1.058v37.537L130.808,737.4,98.3,718.641,65.683,737.467l-.094.058v37.767Zm97.325-19.121L163.31,793.715,131,775.055V737.748l32.307-18.654,12.877,7.431,19.438,11.222Zm97.534-56.306-32.315,18.661-32.315-18.661v-37.3l32.315-18.661L277,672.119l16.157,9.33Zm32.9-93.613,32.307-18.654,8.359,4.827,23.948,13.827v37.307L358.369,681.1l-32.307-18.654Zm97.131,93.613-32.315,18.661-32.307-18.661v-37.3l32.307-18.661,32.315,18.661Zm0-112.612L390.878,624.8l-32.307-18.661V568.823l32.307-18.653,16.157,9.33,16.157,9.323Zm97.922,19,32.307-18.654,4.295,2.475,28.02,16.179v37.307l-10.467,6.043L553.422,681.1l-32.307-18.654Zm97.124,93.613-32.307,18.661-32.307-18.661v-37.3l26.344-15.215,5.964-3.446,32.307,18.661Zm0-112.612-32.3,18.661-32.315-18.661V568.823l32.315-18.653,16.15,9.33,16.15,9.323Zm70.773-109.058,26.761,15.445v37.307l-32.315,18.646-32.315-18.646V512.524l32.315-18.661Zm59.263,109.058-32.3,18.661-32.315-18.661V568.823l32.315-18.653,32.3,18.653Zm130.042,0L846.008,624.8l-32.315-18.661V568.83l32.315-18.661,6.028,3.482,26.279,15.179Zm32.509-56.306-32.307,18.646L846.21,549.831V512.524l32.307-18.661,16.15,9.33,16.157,9.33Zm227.562,56.306-32.3,18.661-32.322-18.661V568.83l32.322-18.661,32.3,18.661Zm-32.5-93.613v37.307l-32.314,18.646-32.308-18.646V512.524l32.308-18.661Zm-65.025,37.307-32.3,18.646-32.315-18.646V512.524l32.315-18.661,32.3,18.661Zm-32.509-56.313-32.308,18.653-32.314-18.653v-37.3l6.532-3.777,25.783-14.884,32.308,18.661Zm32.7-93.958-32.3-18.654V343.6l32.3-18.654,16.164,9.33,16.157,9.323v37.307Zm130.244.345,16.15-9.33,16.157-9.323,32.307,18.654v37.3l-3.359,1.957-28.948,16.7L1171.3,437.205Zm97.123,93.613-32.3,18.653L1203.8,493.518v-37.3l32.322-18.661,32.3,18.661Zm-32.3-93.958-25.782-14.884-6.539-3.77V343.6l32.322-18.654,16.157,9.33,16.15,9.323v37.307Zm129.841-112.274v37.307l-32.322,18.661-32.307-18.661V287.286l32.307-18.654Zm32.5,93.62-32.307,18.654-32.307-18.654V343.6l6.453-3.734,25.855-14.92,32.307,18.654Zm97.728,18.654-32.308-18.654V343.6l32.308-18.654,16.157,9.33L1528.5,343.6v37.307Zm32.509-56.306-16.157-9.33-16.157-9.33V287.286l32.315-18.654,16.157,9.33,16.157,9.323v37.307Zm32.7-131.272V174.675l29.423-16.985,2.892-1.669,32.307,18.654v37.307l-32.307,18.654-16.15-9.323Zm162.148,168.925-32.307,18.654-32.307-18.654V343.6l16.15-9.323,16.157-9.33,32.307,18.654Zm.208-37.652-29.423-16.992-2.892-1.669V287.286l32.315-18.654,27.265,15.747,5.036,2.906v37.307Zm97.519-56.306-32.307-18.661V230.98l32.307-18.646,16.165,9.323,16.15,9.323v37.307Zm162.35-18.661-32.307,18.661-32.314-18.661V230.98l16.164-9.323,16.15-9.323,32.307,18.646Zm-32.509-93.613v37.307l-16.157,9.33-16.15,9.323L1886.5,211.982V174.675l32.315-18.654ZM1853.8,156.021l32.307,18.654v37.307L1853.8,230.635l-16.157-9.323-16.157-9.33V174.675Zm-97.534,56.313,32.315,18.646v37.307l-32.315,18.661-20.847-12.042-11.46-6.618V230.98ZM1691.05,324.593l-16.157,9.33-16.15,9.33-32.315-18.661V287.286l16.157-9.323,16.157-9.33,32.307,18.654Zm-32.516-56.306-16.157,9.33-16.15,9.33-32.307-18.661V230.98l4.13-2.388,28.178-16.258,32.307,18.646Zm0-112.612-32.307,18.654-28.265-16.323-4.043-2.331V118.369l32.307-18.654,32.307,18.654Zm97.533-56.306-32.307,18.654L1691.445,99.37V62.063l4.036-2.331,28.279-16.323,32.307,18.654ZM1691.244-12.9l32.307,18.654v37.3l-32.307,18.661-16.157-9.33-16.15-9.33V5.757Zm-32.5,56.306,16.15,9.323,16.157,9.33V99.37l-32.307,18.654-25.977-15-6.338-3.654V62.063ZM1528.9,118.369l32.307-18.654,32.307,18.654v37.307l-32.307,18.654L1528.9,155.676Zm32.307,93.965,16.15,9.323,16.157,9.323v37.307l-32.307,18.661-16.157-9.33-16.15-9.33V230.98ZM1496,324.593l-6.467,3.741-25.855,14.92-32.3-18.661V287.286l16.143-9.323,16.157-9.33L1496,287.286Zm-32.516-56.306-16.157,9.33-16.157,9.33-32.3-18.661V230.98l32.307-18.646,32.307,18.646Zm-32.5-56.306-25.667,14.812-6.647,3.841-16.157-9.323-16.157-9.33V174.675l16.157-9.323,16.157-9.33,32.315,18.654Zm-97.131-93.613,32.307-18.654,32.307,18.654v37.307L1382.313,165l-16.157,9.33-32.307-18.654Zm32.307,93.965,16.157,9.323,16.15,9.323v37.307l-32.307,18.661L1340.3,272.021l-6.453-3.734V230.98ZM1300.93,324.593l-32.307,18.661-16.15-9.33-16.157-9.33V287.286l32.307-18.654,32.307,18.654ZM1203.8,230.98l32.322-18.646,32.307,18.646v37.307l-4.546,2.633-27.761,16.021L1203.8,268.287Zm-.388,149.926-16.157,9.33L1171.1,399.56l-32.307-18.654V343.6l16.157-9.323,16.15-9.33,32.314,18.654Zm-32.516-93.62v37.307l-16.157,9.33-16.15,9.33-32.307-18.661V287.286l32.307-18.654Zm-65.01,37.307-32.314,18.661-16.157-9.33-16.15-9.33V287.286l16.15-9.323,16.157-9.33,32.314,18.654ZM911.227,174.675l32.307-18.654,32.315,18.654v37.307l-16.157,9.33-16.157,9.323-32.307-18.654Zm32.5,93.613V230.98l16.157-9.323,16.157-9.323,32.308,18.646v37.307l-32.308,18.661Zm65.025-37.307,32.3-18.646,32.322,18.646v37.307l-16.157,9.33-16.164,9.33-32.3-18.661Zm-32.71,93.965,32.308,18.654v37.307L976.043,399.56l-25.783-14.884-6.532-3.77V343.6Zm-32.509,56.306,32.307,18.654v37.3l-32.307,18.661-16.157-9.33-16.15-9.33v-37.3Zm-64.816,74.967,32.3-18.661,16.157,9.33,16.157,9.33v37.3l-32.315,18.653-16.15-9.323-16.15-9.33Zm-32.9,93.613L813.5,568.477l-32.315-18.646V512.524L813.5,493.863l32.315,18.661ZM813.3,493.518l-32.314,18.653-32.3-18.653v-37.3l32.3-18.661L813.3,456.218Zm-32.509-56.313-28.272,16.33-4.028,2.331-16.165-9.33-16.157-9.33v-37.3l32.322-18.654,32.3,18.654ZM683.659,343.6l32.315-18.654L748.281,343.6v37.307l-4.036,2.331L715.973,399.56l-32.315-18.654Zm0,112.619,32.315-18.661,16.15,9.33,16.157,9.33v37.3l-32.307,18.653-32.315-18.653Zm-32.9,93.613L618.44,568.477l-16.15-9.316-16.157-9.33V512.524l32.307-18.661,32.315,18.661Zm-97.131-93.62,32.307-18.654,32.307,18.654v37.307l-32.307,18.653-32.307-18.653Zm-.4,149.926L520.913,624.8l-32.3-18.661V568.823l32.3-18.653,32.315,18.653Zm-32.516-93.613v37.307L488.4,568.477,456.1,549.831V512.524L488.4,493.863ZM455.7,549.831l-32.315,18.646-16.157-9.316-16.157-9.33V512.524l32.315-18.661L455.7,512.524ZM293.546,493.518V456.211l32.315-18.654,32.315,18.654v37.307l-32.315,18.653Zm65.025-37.307,32.307-18.654,32.315,18.654v37.307l-32.315,18.653-32.307-18.653ZM293.546,568.823l32.315-18.653,32.315,18.653v37.314L325.861,624.8l-16.157-9.33-16.157-9.33Zm-32.5,56.313,32.307-18.654,16.157,9.33,16.15,9.323v37.307L293.352,681.1l-16.157-9.323-16.15-9.33Zm-97.534,56.313,32.315-18.661,32.307,18.661v37.3l-32.307,18.661-10.654-6.158-21.661-12.5Zm-97.519,56.3L98.3,719.094l32.307,18.654v37.307L98.3,793.715,65.992,775.055Z" transform="translate(0 32.325)"/><path class="c" d="M1951.321-8.14l-32.509,18.769L1886.3-8.14l-32.609,18.826-.094.058V48.281l-32.322,18.654-32.5-18.769-32.61,18.826-.1.065v37.53L1723.76,123.24l-32.315-18.654V67.057l-32.7-18.891-32.609,18.826-.1.065v37.767l32.5,18.761v37.307l-32.4,18.718-.1.058v37.537l-32.307,18.654L1561.4,217.206V179.669l-32.5-18.776V123.355l-32.516-18.761V67.05l-32.7-18.884-32.609,18.826-.093.058v37.775l32.5,18.761v37.307l-32.408,18.718-.093.058v37.537l-32.315,18.654-32.315-18.654V179.669l-32.71-18.891-32.6,18.833-.1.058v37.767l32.509,18.769v37.307l-32.307,18.654-32.307-18.654V235.974l-32.516-18.769V179.669l-32.71-18.891L1171,179.6l-.1.065v37.537l-32.4,18.711-.1.058v37.537l-32.307,18.654-32.315-18.654V235.974l-32.717-18.884-32.494,18.769-32.315-18.654V179.669l-32.71-18.891-32.6,18.826-.1.065v37.767l32.5,18.769v37.537l32.71,18.884,32.516-18.769,32.3,18.654v37.537l32.516,18.769v37.307l-32.322,18.661-32.494-18.776-32.71,18.884v37.537L943.535,461.09l-32.3-18.661V404.892l-32.516-18.769V348.586L846.21,329.825V292.28L813.5,273.4,780.89,292.223l-.094.058v37.767l32.5,18.769v37.307l-32.509,18.769v37.537l-32.3,18.661-32.322-18.661V404.892l-32.71-18.884-32.7,18.884v37.767l32.509,18.776v37.3L650.948,517.4l-32.3-18.653V461.205l-32.516-18.776V404.892l-32.71-18.884-32.71,18.884v37.537l-32.5,18.776v37.537L455.9,517.4l-32.322-18.653V461.205l-32.5-18.776V404.892l-32.71-18.884-32.7,18.884v37.537l-32.509,18.776v37.53L260.843,517.4l-32.509-18.769-32.71,18.884v37.537L163.317,573.7l-32.307-18.653V517.511L98.3,498.627l-32.71,18.884v37.775L98.1,574.047v37.544l32.71,18.884L163.317,611.7l32.509,18.776,32.7-18.884V574.047l32.315-18.654,32.509,18.769,32.71-18.876V517.741l32.307-18.653,32.307,18.653v37.544l32.516,18.761v37.314l-32.516,18.761v37.544l-32.307,18.654-32.509-18.776-32.7,18.891V724.2l32.509,18.769v37.537l32.7,18.884,32.71-18.884V742.972l32.5-18.769V686.666L455.9,668.012l32.5,18.769,32.71-18.884V630.123l-32.5-18.761V574.047l32.5-18.761V517.741l32.307-18.653,32.315,18.653v37.544l32.509,18.761v37.544l32.509,18.761V667.9l32.7,18.884,32.71-18.884V630.123l-32.509-18.761V574.047l32.509-18.761V517.741l32.322-18.653,32.3,18.653v37.544l32.71,18.876,32.71-18.876V517.511l-32.516-18.769V461.435l32.315-18.654,32.307,18.654v37.537l32.71,18.884,32.509-18.768,32.315,18.653v37.544l32.71,18.876,32.494-18.769,32.322,18.654v37.544l32.71,18.884,32.7-18.884V573.817l-32.509-18.769V517.511l-32.71-18.884L1041.054,517.4l-32.3-18.653V461.435l32.3-18.654,32.516,18.761,32.71-18.884v-37.53l32.509-18.776V348.816l32.509-18.769V292.51l32.307-18.654,32.314,18.654v37.537l32.509,18.769v37.537l32.509,18.776v37.53l32.7,18.884,32.71-18.884V404.892l-32.5-18.769V348.816l32.5-18.769V292.51l32.315-18.654,32.315,18.654v37.537l32.7,18.884,32.7-18.884V292.28l-32.5-18.769V236.2l32.308-18.653L1528.5,236.2v37.537l32.71,18.884,32.516-18.769,32.307,18.654v37.537l32.71,18.884,32.5-18.761,32.516,18.761,32.71-18.884V292.28L1723.76,273.4l-32.516,18.769-32.307-18.654V236.2l32.307-18.653,32.516,18.769,32.6-18.826.108-.058V179.892l32.408-18.7.094-.058V123.586l32.307-18.654,32.516,18.776,32.609-18.833.1-.05V67.28l32.307-18.654,32.509,18.769,32.61-18.826.1-.058V10.744Zm-97.332,19.114L1886.3-7.68l32.315,18.654V48.281L1886.3,66.934,1873.427,59.5l-19.438-11.222ZM1756.47,67.28l32.308-18.654,32.307,18.654v37.307l-32.307,18.654-16.157-9.323-16.15-9.33Zm-32.919,93.613-32.307,18.661-8.359-4.827-23.948-13.834V123.586l32.307-18.654,32.307,18.654ZM1626.428,67.28l32.315-18.654L1691.05,67.28v37.307l-32.307,18.654-32.315-18.654Zm0,112.612,32.315-18.654,32.307,18.654v37.314l-32.307,18.654-16.157-9.33-16.157-9.323Zm-97.929-19-32.307,18.661-4.287-2.482-28.013-16.179V123.586l10.453-6.036,21.848-12.618,32.307,18.654ZM1431.375,67.28l32.307-18.654L1496,67.28v37.307L1469.653,119.8l-5.971,3.439-32.307-18.654Zm0,112.612,32.3-18.654L1496,179.892v37.314l-32.322,18.654-16.143-9.33-16.157-9.323ZM1360.6,288.957l-26.754-15.445V236.2l32.307-18.653,32.315,18.653v37.307l-32.315,18.654ZM1301.34,179.892l32.3-18.654,32.322,18.654v37.314l-32.322,18.654-32.3-18.654Zm-130.042,0,32.307-18.654,32.314,18.654v37.314L1203.6,235.859l-6.021-3.482L1171.3,217.206ZM1138.789,236.2l32.315-18.653,32.307,18.653v37.307L1171.1,292.165l-16.157-9.323-16.157-9.33ZM911.235,179.892l32.3-18.654,32.315,18.654v37.314l-32.315,18.654-32.3-18.654Zm32.5,93.62V236.2l32.307-18.653,32.322,18.653v37.307l-32.322,18.654Zm65.018-37.307,32.3-18.653,32.322,18.653v37.307l-32.322,18.654-32.3-18.654Zm32.516,56.306,32.3-18.654,32.314,18.654v37.314l-6.532,3.762-25.782,14.884-32.3-18.646Zm-32.71,93.965,32.3,18.653v37.3l-32.3,18.661L992.4,451.76l-16.157-9.33v-37.3Zm-130.244-.353-16.15,9.33-16.157,9.33L813.7,386.123V348.816l3.367-1.942,28.941-16.711,32.307,18.654ZM781.192,292.5,813.5,273.857,845.814,292.5v37.314L813.5,348.471l-32.307-18.653ZM813.5,386.476l25.783,14.877,6.532,3.777v37.3L813.5,461.09l-16.157-9.33-16.157-9.33v-37.3ZM683.659,498.742V461.435l32.315-18.654,32.307,18.654v37.307L715.973,517.4Zm-32.5-93.613,32.3-18.653,32.322,18.653v37.3l-6.467,3.741-25.855,14.92-32.3-18.661Zm-97.735-18.653,32.315,18.653v37.3L553.422,461.09l-16.157-9.33-16.15-9.33v-37.3Zm-32.509,56.306,16.157,9.33,16.157,9.323v37.307L520.913,517.4l-16.15-9.33-16.15-9.323V461.435Zm-32.7,131.265v37.307l-29.415,16.985-2.892,1.669-32.322-18.646V574.047L455.9,555.393l16.157,9.33ZM326.062,405.129l32.307-18.653,32.307,18.653v37.3l-16.15,9.33-16.157,9.33-32.307-18.661Zm-.2,37.652,29.415,16.977,2.9,1.676v37.307L325.861,517.4,298.6,501.656l-5.05-2.914V461.435Zm-97.526,56.306,32.307,18.653v37.307L228.334,573.7l-16.157-9.33-16.15-9.323V517.741ZM65.992,517.741,98.3,499.088l32.307,18.653v37.307l-16.157,9.323L98.3,573.7,65.992,555.048ZM98.5,611.361V574.047l16.15-9.323,16.157-9.33,32.307,18.654v37.314l-32.307,18.646Zm97.325,18.646-32.307-18.646V574.047l32.307-18.654,16.157,9.33,16.15,9.323v37.314ZM293.352,573.7l-32.307-18.653V517.741l32.307-18.653L314.2,511.123l11.46,6.618v37.307Zm65.219-112.266,16.15-9.323,16.157-9.33,32.315,18.654v37.307l-16.157,9.323-16.157,9.33-32.307-18.653Zm32.509,56.306,16.15-9.33,16.157-9.323L455.7,517.741v37.307l-4.137,2.388L423.387,573.7,391.08,555.048Zm0,112.612L423.387,611.7l28.272,16.323,4.043,2.331v37.314l-32.315,18.654L391.08,667.667Zm-97.534,56.313,32.315-18.654,32.307,18.654v37.307l-4.036,2.331-28.272,16.323-32.315-18.654Zm64.823,112.266-32.307-18.654V742.972l32.307-18.654,16.15,9.33,16.157,9.323v37.307Zm32.509-56.306-16.157-9.33-16.15-9.323V686.666l32.307-18.654L416.855,683l6.338,3.662v37.307Zm129.834-74.959L488.4,686.321,456.1,667.667V630.353L488.4,611.7l32.307,18.653Zm-32.3-93.966-16.157-9.33L456.1,555.048V517.741l32.314-18.653,16.143,9.323,16.157,9.33v37.307Zm65.212-112.266,6.46-3.734,25.854-14.92,32.307,18.654v37.307l-16.15,9.323-16.157,9.33-32.315-18.653Zm32.509,56.306,16.157-9.33,16.157-9.323,32.307,18.653v37.307L618.44,573.7l-32.307-18.653Zm32.516,56.306L644.3,559.235l6.647-3.841,16.157,9.33,16.157,9.323v37.314l-16.157,9.323-16.157,9.323-32.3-18.646Zm97.131,93.62-32.322,18.654L651.15,667.667V630.353l16.157-9.33,16.15-9.323,32.322,18.653ZM683.457,573.7l-16.15-9.33-16.157-9.323V517.741l32.307-18.653,25.855,14.92,6.467,3.734v37.307Zm65.226-112.266,32.307-18.654,16.15,9.33,16.157,9.323v37.307L780.991,517.4l-32.307-18.653Zm97.131,93.613L813.5,573.7l-32.315-18.653V517.741l4.546-2.626L813.5,499.088l32.315,18.653Zm.4-149.919,16.157-9.33,16.157-9.323,32.3,18.653v37.3l-16.15,9.33-16.15,9.33L846.21,442.429Zm32.509,93.613V461.435l16.157-9.33,16.15-9.323,32.307,18.654v37.307L911.026,517.4Zm65.018-37.307,32.307-18.654L992.2,452.1l16.157,9.33v37.307L992.2,508.065l-16.157,9.33-32.307-18.653Zm194.657,149.926-32.307,18.646-32.315-18.646V574.047l16.15-9.323,16.164-9.33,32.307,18.654Zm-32.509-93.62v37.307l-16.157,9.323-16.157,9.33-32.3-18.653V517.741l32.3-18.653Zm-65.025,37.307-32.3,18.653-32.315-18.653V517.741l16.157-9.33,16.157-9.323,32.3,18.653Zm32.71-93.958-32.3-18.661v-37.3l32.3-18.653,25.782,14.877,6.532,3.777v37.3Zm32.516-56.306-32.315-18.661V348.816l32.315-18.654,16.157,9.33,16.15,9.323v37.307Zm64.809-74.959-32.3,18.646-16.157-9.323-16.157-9.323V292.51l32.315-18.654,16.15,9.323,16.15,9.33Zm32.912-93.62,32.314-18.653,32.307,18.653v37.307l-32.307,18.654-32.314-18.654Zm32.509,56.306,32.315-18.654,32.307,18.654v37.314l-32.307,18.646-32.315-18.646Zm32.516,56.306,28.265-16.323,4.043-2.331,16.15,9.33,16.157,9.323v37.307l-32.307,18.661-32.307-18.661Zm97.131,93.613L1333.64,461.09l-32.3-18.661v-37.3l4.035-2.338,28.265-16.316,32.322,18.653Zm0-112.6-32.322,18.646-16.15-9.323-16.15-9.323V292.51l32.3-18.654,32.322,18.654Zm32.9-93.62,32.315-18.653,16.15,9.323,16.15,9.33v37.307l-32.3,18.654-32.315-18.654ZM1496,329.825l-32.315,18.646-32.307-18.646V292.51l32.307-18.654L1496,292.51Zm.388-149.933,32.322-18.654,32.307,18.654v37.314l-32.307,18.654-32.322-18.654Zm32.516,93.62V236.2l32.307-18.653,32.307,18.653v37.307l-32.307,18.654Zm65.017-37.307,32.307-18.653,16.157,9.323,16.15,9.33v37.307l-32.307,18.654-32.307-18.654Zm162.148,56.306v37.314l-32.307,18.646-32.315-18.646V292.51l32.315-18.654Zm-65.018,37.314-32.307,18.646-32.315-18.646V292.51l32.315-18.654,32.307,18.654Zm65.018-112.619-32.307,18.654-32.315-18.654V179.892l32.315-18.654,16.15,9.33,16.157,9.323Zm32.509-56.313-32.315,18.661-16.15-9.33-16.157-9.33V123.586l32.307-18.654,16.157,9.33,16.157,9.323Zm97.526-56.306L1853.8,123.24l-32.307-18.654V67.28L1853.8,48.626l10.647,6.151,21.661,12.5Zm97.526-56.306-32.307,18.654-32.314-18.654V10.974L1951.321-7.68l32.307,18.654Z" transform="translate(0 64.638)"/><path class="d" d="M1986.089,225.653a2.257,2.257,0,0,0-4.108-1.295l-30.466-17.589V169.233l-30.667-17.7a2.141,2.141,0,0,0,.223-.95,2.259,2.259,0,1,0-4.3.95L1886.3,169.117,1853.8,150.349l-30.667,17.7a2.253,2.253,0,1,0-2.043,3.532V206.77l-30.466,17.589a2.248,2.248,0,0,0-3.69,0l-30.667-17.7-30.66,17.7a2.255,2.255,0,1,0-2.05,3.532v35.185l-32.307,18.654-30.466-17.589a2.331,2.331,0,0,0,.216-.95,2.248,2.248,0,0,0-2.058-2.237V225.538l-30.667-17.7a2.193,2.193,0,0,0,.223-.95,2.254,2.254,0,0,0-2.065-2.237V169.463l30.466-17.589a2.254,2.254,0,1,0,2.043-3.539V113.15L1689.4,95.568a2.265,2.265,0,0,0,3.7,0l30.667,17.7,30.66-17.7a2.23,2.23,0,0,0,1.841.957,2.252,2.252,0,0,0,.209-4.5V56.614L1725.8,38.91a2.093,2.093,0,0,0,.216-.95,2.248,2.248,0,0,0-2.058-2.237V.308l-32.71-18.884-30.66,17.7a2.256,2.256,0,0,0-1.842-.964,2.264,2.264,0,0,0-2.266,2.259,2.26,2.26,0,0,0,2.058,2.244V37.845l-30.459,17.589a2.254,2.254,0,1,0-2.043,3.539V94.151l-30.466,17.6a2.247,2.247,0,0,0-1.849-.971,2.224,2.224,0,0,0-1.841.971l-30.667-17.7-32.61,18.819-.1.065v35.408a2.252,2.252,0,0,0,.208,4.5,2.226,2.226,0,0,0,1.834-.957l30.473,17.589v35.185a2.254,2.254,0,0,0-2.065,2.237,2.191,2.191,0,0,0,.216.95L1528.6,225.481l-.1.058v37.537l-30.466,17.589a2.246,2.246,0,0,0-1.842-.964,2.27,2.27,0,0,0-1.849.964l-30.459-17.589V225.538l-32.508-18.769V171.585a2.253,2.253,0,1,0-2.05-3.532l-30.459-17.589V112.927l-30.674-17.711a2.094,2.094,0,0,0,.223-.95,2.263,2.263,0,1,0-4.3.957l-30.567,17.639-.1.065v35.408a2.256,2.256,0,0,0,.194,4.5,2.24,2.24,0,0,0,1.849-.964l30.473,17.589V206.77l-30.473,17.589a2.255,2.255,0,1,0-2.043,3.532v35.185l-30.459,17.589a2.255,2.255,0,0,0-3.7,0l-30.458-17.589V227.891a2.252,2.252,0,0,0-.209-4.5,2.279,2.279,0,0,0-1.849.964l-30.653-17.7L1203.5,225.481l-.094.058v35.415a2.252,2.252,0,0,0,.194,4.5,2.272,2.272,0,0,0,1.856-.964l30.458,17.589v35.185a2.259,2.259,0,0,0-2.064,2.237,2.2,2.2,0,0,0,.223.95l-30.473,17.6L1171.3,319.382V281.844l-32.71-18.884-30.667,17.7a2.241,2.241,0,0,0-3.683,0l-30.473-17.589V225.538l-32.71-18.884-30.653,17.7a2.255,2.255,0,0,0-3.7,0L976.245,206.77V171.585a2.252,2.252,0,0,0-.2-4.5,2.236,2.236,0,0,0-1.842.964l-30.667-17.7-32.609,18.826-.1.058v35.415a2.253,2.253,0,1,0,2.05,3.532l30.458,17.589v35.185a2.253,2.253,0,1,0,2.05,3.532l30.66,17.7,32.509-18.769,30.466,17.589a2.321,2.321,0,0,0-.216.95,2.248,2.248,0,0,0,2.058,2.237v35.185l-32.3,18.661-30.473-17.6a2.2,2.2,0,0,0,.223-.95,2.262,2.262,0,0,0-4.525,0,2.326,2.326,0,0,0,.216.95l-30.566,17.646-.1.058v35.415a2.254,2.254,0,0,0-2.065,2.237,2.158,2.158,0,0,0,.23.957l-30.674,17.7v35.415a2.248,2.248,0,0,0-2.057,2.237,2.163,2.163,0,0,0,.216.942l-30.667,17.711v37.537L847.85,505.9a2.248,2.248,0,0,0-3.69,0l-30.466-17.589V453.121a2.252,2.252,0,1,0-2.036-3.539L781.185,432V396.816a2.256,2.256,0,1,0-2.043-3.532l-30.459-17.6V338.15l-30.674-17.7a2.114,2.114,0,0,0,.216-.95,2.255,2.255,0,1,0-4.51,0,2.321,2.321,0,0,0,.209.95l-30.559,17.646-.1.058v37.775l30.66,17.7a2.313,2.313,0,0,0-.209.942,2.255,2.255,0,0,0,2.065,2.244V432l-30.473,17.582a2.257,2.257,0,1,0-2.043,3.539v35.185L650.948,506.96l-32.307-18.654V450.762l-30.667-17.7a2.167,2.167,0,0,0,.216-.95,2.259,2.259,0,0,0-4.518,0,2.191,2.191,0,0,0,.216.95l-30.66,17.7v35.422a2.252,2.252,0,1,0,2.043,3.532l30.466,17.589V542.49a2.259,2.259,0,0,0-2.065,2.237,2.353,2.353,0,0,0,.216.95l-30.466,17.6-30.458-17.6a2.472,2.472,0,0,0,.209-.95,2.258,2.258,0,0,0-2.058-2.237V507.075L488.4,488.191l-30.66,17.7a2.255,2.255,0,0,0-3.7,0l-30.466-17.589V450.762l-30.653-17.7a2.414,2.414,0,0,0,.209-.95,2.259,2.259,0,0,0-4.518,0,2.191,2.191,0,0,0,.216.95l-30.466,17.589-32.509-18.769-30.667,17.7a2.254,2.254,0,1,0-2.036,3.539v35.415l32.7,18.884,30.66-17.7a2.255,2.255,0,0,0,3.7,0L390.677,507.3v37.314L360.218,562.2a2.255,2.255,0,0,0-3.7,0l-30.66-17.7L295.2,562.2a2.258,2.258,0,0,0-4.108,1.295,2.254,2.254,0,0,0,2.065,2.237v35.185l-32.516,18.769V655.1a2.26,2.26,0,0,0-2.057,2.245,2.216,2.216,0,0,0,.216.95l-30.466,17.589-32.509-18.769-30.667,17.7a2.254,2.254,0,1,0-2.05,3.539V713.53l-30.458,17.6a2.248,2.248,0,0,0-3.69,0l-30.667-17.7-32.7,18.884v37.767l30.667,17.7a2.22,2.22,0,0,0-.223.95,2.262,2.262,0,0,0,4.525,0,2.12,2.12,0,0,0-.223-.95l30.466-17.6,32.509,18.776,30.667-17.7a2.255,2.255,0,1,0,2.043-3.532V732.536l30.466-17.589a2.258,2.258,0,0,0,3.69,0l30.667,17.7,32.7-18.884V676.23l32.315-18.654,30.466,17.582a2.256,2.256,0,0,0,1.842,3.194v35.415l32.71,18.884,30.667-17.7a2.261,2.261,0,0,0,4.108-1.295,2.267,2.267,0,0,0-2.072-2.245V676l-32.509-18.769V622.046a2.261,2.261,0,0,0,2.065-2.244,2.471,2.471,0,0,0-.209-.95l30.653-17.7V565.733a2.255,2.255,0,0,0,2.072-2.237,2.22,2.22,0,0,0-.223-.95L455.9,544.957l32.307,18.654V598.8a2.252,2.252,0,1,0,2.043,3.532l30.459,17.6v37.53l30.667,17.7a2.327,2.327,0,0,0-.216.95,2.266,2.266,0,0,0,2.065,2.244v35.415l30.66,17.7a2.289,2.289,0,0,0-.216.95,2.259,2.259,0,1,0,4.518,0,2.289,2.289,0,0,0-.216-.95l30.667-17.7V678.352a2.252,2.252,0,0,0-.2-4.5,2.23,2.23,0,0,0-1.842.957l-30.466-17.582V622.046A2.255,2.255,0,0,0,588.2,619.8a2.14,2.14,0,0,0-.223-.95l30.667-17.7V563.611l30.466-17.589a2.246,2.246,0,0,0,1.842.964,2.282,2.282,0,0,0,1.856-.964l30.459,17.589V598.8a2.252,2.252,0,1,0,2.043,3.532l30.667,17.7,32.71-18.884V565.733a2.253,2.253,0,1,0-2.05-3.532l-30.466-17.589V509.427a2.243,2.243,0,0,0,2.057-2.237,2.115,2.115,0,0,0-.216-.95l30.48-17.582,30.458,17.582a2.114,2.114,0,0,0-.216.95,2.248,2.248,0,0,0,2.057,2.237v35.415l30.66,17.7a2.323,2.323,0,0,0-.216.95,2.254,2.254,0,0,0,2.065,2.237v35.415l30.667,17.7a2.247,2.247,0,0,0,2.043,3.208,2.235,2.235,0,0,0,2.043-3.208l30.667-17.7V565.733a2.242,2.242,0,0,0,2.05-2.237,2.321,2.321,0,0,0-.209-.95l30.667-17.7V509.427a2.248,2.248,0,0,0,2.057-2.237,2.218,2.218,0,0,0-.216-.95l30.466-17.582,32.315,18.646V542.49a2.252,2.252,0,0,0,.194,4.5,2.236,2.236,0,0,0,1.842-.964l30.674,17.7,30.66-17.7a2.248,2.248,0,0,0,3.69,0l30.466,17.589V598.8a2.252,2.252,0,1,0,2.043,3.532l30.667,17.7,32.7-18.884V565.733a2.252,2.252,0,1,0-2.043-3.532l-30.459-17.589V507.075l-30.667-17.7a2.254,2.254,0,1,0-4.295-.957,2.147,2.147,0,0,0,.216.957l-30.48,17.589-32.3-18.654V453.121a2.253,2.253,0,1,0-2.05-3.539L976.245,432V394.686L1006.7,377.1a2.265,2.265,0,0,0,3.7,0l30.653,17.7,32.617-18.826.094-.058V340.51a2.266,2.266,0,0,0,2.064-2.245,2.215,2.215,0,0,0-.216-.95l30.473-17.589,30.459,17.589a2.208,2.208,0,0,0-.208.95,2.254,2.254,0,0,0,2.057,2.245v35.415l32.5,18.761v35.192a2.253,2.253,0,1,0,2.05,3.532L1203.411,451v35.185a2.252,2.252,0,1,0,2.043,3.532l30.667,17.7,32.71-18.876V453.121a2.24,2.24,0,0,0,2.05-2.23,2.258,2.258,0,0,0-4.108-1.3L1236.315,432V394.686l32.415-18.7.1-.058V338.388l32.307-18.661,30.466,17.589a2.22,2.22,0,0,0-.223.95,2.261,2.261,0,0,0,2.065,2.245v35.415l32.71,18.884,30.66-17.7a2.257,2.257,0,1,0,2.05-3.539V338.15l-32.516-18.769V284.2a2.266,2.266,0,0,0,2.065-2.244,2.117,2.117,0,0,0-.223-.95l30.473-17.589,32.307,18.654v35.185a2.253,2.253,0,1,0,2.05,3.539l30.459,17.589v35.178a2.253,2.253,0,1,0,2.05,3.539l30.66,17.7,32.609-18.826.1-.058V340.51a2.26,2.26,0,0,0,2.057-2.245,2.329,2.329,0,0,0-.216-.95l30.566-17.646.093-.058V284.2a2.267,2.267,0,0,0,2.072-2.244,2.223,2.223,0,0,0-.223-.95l30.466-17.589,32.315,18.654v35.185a2.253,2.253,0,1,0,2.043,3.539l30.459,17.589v37.537l30.667,17.7a2.31,2.31,0,0,0-.208.942,2.259,2.259,0,1,0,4.518,0,2.213,2.213,0,0,0-.223-.942l30.566-17.646.1-.058V340.51a2.255,2.255,0,0,0,2.058-2.245,2.115,2.115,0,0,0-.216-.95l30.566-17.646.1-.058V284.2a2.248,2.248,0,0,0,2.065-2.237,2.325,2.325,0,0,0-.216-.95l30.466-17.589,32.5,18.769,30.667-17.7a2.253,2.253,0,1,0,2.043-3.532V225.769l32.315-18.654,30.466,17.589a2.214,2.214,0,0,0-.216.95,2.248,2.248,0,0,0,2.057,2.237v35.415l30.66,17.7a2.318,2.318,0,0,0-.209.95,2.259,2.259,0,1,0,4.518,0,2.329,2.329,0,0,0-.216-.95l30.566-17.646.1-.058V227.891A2.248,2.248,0,0,0,1986.089,225.653ZM1853.8,150.809l32.307,18.654V206.77L1853.8,225.423l-16.157-9.33-16.157-9.323V171.585a2.248,2.248,0,0,0,2.065-2.237,2.327,2.327,0,0,0-.216-.95Zm-290.543,57.025a2.2,2.2,0,0,0,.223-.95,2.255,2.255,0,0,0-2.072-2.237V169.463l30.322-17.51,1.993-1.144L1599.25,154l26.775,15.459v35.185a2.247,2.247,0,0,0-2.05,2.237,2.185,2.185,0,0,0,.209.95l-30.466,17.589-16.15-9.33ZM1756.067,56.844V92.029a2.248,2.248,0,0,0-2.057,2.237,2.29,2.29,0,0,0,.208.95L1723.76,112.8l-30.473-17.589a2.2,2.2,0,0,0,.223-.95,2.248,2.248,0,0,0-2.065-2.237V56.844l30.466-17.589a2.248,2.248,0,0,0,3.69,0Zm-64.823-74.959L1723.551.538V35.723a2.248,2.248,0,0,0-2.058,2.237,2.1,2.1,0,0,0,.223.95L1691.244,56.5l-16.157-9.323-16.15-9.33V2.66a2.248,2.248,0,0,0,2.058-2.237,2.331,2.331,0,0,0-.216-.95Zm-32.5,56.306,16.15,9.33,16.157,9.323V92.029a2.254,2.254,0,0,0-2.065,2.237,2.3,2.3,0,0,0,.216.95L1658.742,112.8l-32.315-18.654V58.973a2.266,2.266,0,0,0,2.065-2.244,2.218,2.218,0,0,0-.223-.95ZM1626.226,94.5l8.294,4.784,24.013,13.87v35.185a2.255,2.255,0,0,0-2.058,2.244,2.144,2.144,0,0,0,.223.95l-30.473,17.589-32.307-18.661V115.279a2.254,2.254,0,0,0,2.057-2.244,2.476,2.476,0,0,0-.208-.95ZM1528.9,148.335V113.15L1561.209,94.5l30.458,17.589a2.35,2.35,0,0,0-.209.95,2.255,2.255,0,0,0,2.058,2.244v35.178l-5.05,2.921-27.257,15.74-30.466-17.589a2.356,2.356,0,0,0,.216-.95A2.255,2.255,0,0,0,1528.9,148.335Zm-97.922,23.25V206.77l-23.725,13.7-6.748,3.892a2.248,2.248,0,0,0-3.69,0l-14.309-8.266-16.157-9.323V169.463l32.315-18.654L1429.13,168.4a2.123,2.123,0,0,0-.223.95A2.249,2.249,0,0,0,1430.979,171.585Zm-97.131-23.25V113.15l30.458-17.582a2.243,2.243,0,0,0,1.849.957,2.292,2.292,0,0,0,1.849-.957l30.459,17.582v37.307l-32.307,18.661-30.466-17.6a2.293,2.293,0,0,0,.216-.942A2.26,2.26,0,0,0,1333.849,148.335ZM1300.93,284.2v35.178l-32.307,18.661-16.15-9.33-14.316-8.266a2.2,2.2,0,0,0,.223-.95,2.259,2.259,0,0,0-2.065-2.237V282.074l32.307-18.654L1299.1,281.01a2.22,2.22,0,0,0-.223.95A2.26,2.26,0,0,0,1300.93,284.2Zm-97.131-23.25V225.769l32.322-18.654,30.459,17.589a2.32,2.32,0,0,0-.208.95,2.248,2.248,0,0,0,2.057,2.237v35.185l-32.307,18.654-30.473-17.589a2.222,2.222,0,0,0,.223-.95A2.255,2.255,0,0,0,1203.8,260.953ZM911.227,204.648V169.463l32.307-18.654L974,168.4a2.319,2.319,0,0,0-.216.942,2.261,2.261,0,0,0,2.065,2.244V206.77l-32.315,18.654-30.466-17.589a2.236,2.236,0,0,0-1.842-3.187Zm34.35,59.493a2.214,2.214,0,0,0,.216-.95,2.254,2.254,0,0,0-2.065-2.237V225.769l32.314-18.654,30.466,17.589a2.328,2.328,0,0,0-.216.95,2.242,2.242,0,0,0,2.058,2.237v35.185l-32.308,18.654Zm63.176-1.065V227.891a2.248,2.248,0,0,0,2.057-2.237,2.112,2.112,0,0,0-.216-.95l30.459-17.589,32.322,18.654v37.307l-30.466,17.589a2.248,2.248,0,0,0-3.69,0ZM941.693,377.1a2.24,2.24,0,0,0,1.842.957,2.263,2.263,0,0,0,1.849-.957l12.445,7.187,18.013,10.4V432l-32.307,18.646-16.157-9.33-14.308-8.258a2.163,2.163,0,0,0,.216-.942,2.248,2.248,0,0,0-2.057-2.237V394.686Zm-160.9,19.711V432l-28.272,16.316-2.194,1.266a2.258,2.258,0,0,0-3.69,0l-14.308-8.266L716.167,432V396.816a2.255,2.255,0,0,0,2.057-2.244,2.106,2.106,0,0,0-.216-.942l30.48-17.6,30.458,17.6a2.1,2.1,0,0,0-.209.942A2.248,2.248,0,0,0,780.789,396.816Zm-97.131-21.128v-37.3l30.466-17.6a2.253,2.253,0,0,0,3.69.007l30.459,17.589v37.3l-30.459,17.6a2.239,2.239,0,0,0-3.69,0Zm-130.035,110.5V451l30.459-17.589a2.255,2.255,0,0,0,3.7,0L618.238,451v37.307l-1.122.647L585.931,506.96l-30.466-17.589a2.222,2.222,0,0,0-1.842-3.187ZM325.861,506.96l-32.315-18.654V453.121a2.255,2.255,0,0,0,2.072-2.237,2.2,2.2,0,0,0-.223-.95l30.466-17.6L358.168,451v35.185a2.25,2.25,0,0,0-1.842,3.187Zm32.71-20.776V451l30.466-17.589a2.248,2.248,0,0,0,3.69,0L423.193,451v37.307l-1.8,1.036L390.878,506.96l-30.466-17.589a2.236,2.236,0,0,0-1.842-3.187Zm-32.71,58.773,30.466,17.589a2.21,2.21,0,0,0-.209.95,2.241,2.241,0,0,0,2.05,2.237v35.185l-16.15,9.33L327.7,618.507a2.258,2.258,0,0,0-3.69,0L309.7,610.248l-16.157-9.33V565.733a2.255,2.255,0,0,0,2.072-2.237,2.219,2.219,0,0,0-.223-.95Zm-32.509,56.306,16.157,9.33,14.3,8.258a2.472,2.472,0,0,0-.209.95,2.26,2.26,0,0,0,2.057,2.244v35.185l-32.307,18.654-16.157-9.33L262.886,658.3a2.216,2.216,0,0,0,.216-.95,2.26,2.26,0,0,0-2.057-2.245V619.924ZM98.3,786.468a2.262,2.262,0,0,0-1.856.964L65.992,769.85V732.536l32.3-18.654,30.473,17.582a2.3,2.3,0,0,0-.223.95,2.261,2.261,0,0,0,2.065,2.244V769.85l-30.466,17.582A2.246,2.246,0,0,0,98.3,786.468Zm65.01,2.029L131,769.85V734.658a2.255,2.255,0,0,0,2.057-2.244,2.283,2.283,0,0,0-.209-.95l30.458-17.582,26.934,15.546,5.381,3.108v35.185a2.254,2.254,0,0,0-2.065,2.237,2.326,2.326,0,0,0,.216.95Zm32.516-56.306-20.79-12.007-11.524-6.654V678.352a2.266,2.266,0,0,0,2.065-2.244,2.215,2.215,0,0,0-.216-.95l30.466-17.582,32.307,18.654v35.178a2.26,2.26,0,0,0-2.057,2.245,2.215,2.215,0,0,0,.216.95Zm65.018,0L230.377,714.6a2.216,2.216,0,0,0,.216-.95,2.26,2.26,0,0,0-2.065-2.245V676.23l30.466-17.589a2.253,2.253,0,0,0,1.849.957,2.23,2.23,0,0,0,1.842-.957L277,666.9l16.157,9.33v37.3Zm65.219-74.959V622.046a2.242,2.242,0,0,0,1.842-3.194l14.316-8.258,16.15-9.33,30.466,17.589a2.242,2.242,0,0,0,1.842,3.194v35.185l-16.157,9.323-14.3,8.258a2.265,2.265,0,0,0-3.7,0Zm97.131,54.177a2.266,2.266,0,0,0-2.065,2.245,2.215,2.215,0,0,0,.216.95L390.878,732.19,358.571,713.53V678.352a2.254,2.254,0,0,0,2.057-2.244,2.214,2.214,0,0,0-.216-.95l14.308-8.258,16.157-9.323,32.315,18.654Zm-30.466-92.9a2.258,2.258,0,0,0-3.69,0l-24.186-13.956-6.28-3.633V565.733a2.242,2.242,0,0,0,2.057-2.237,2.214,2.214,0,0,0-.216-.95l30.466-17.589,16.157,9.33,14.308,8.259a2.214,2.214,0,0,0-.216.95,2.254,2.254,0,0,0,2.065,2.237v35.185Zm30.66-57.27a2.246,2.246,0,0,0-1.842.964l-14.316-8.258-16.157-9.33V507.305l32.315-18.646,30.459,17.582a2.443,2.443,0,0,0-.209.95,2.253,2.253,0,0,0,2.057,2.237v35.185L425.236,562.2A2.259,2.259,0,0,0,423.387,561.237Zm32.71-51.81a2.248,2.248,0,0,0,2.057-2.237,2.214,2.214,0,0,0-.216-.95L488.4,488.659l32.307,18.646V542.49a2.258,2.258,0,0,0-2.057,2.237,2.143,2.143,0,0,0,.223.95l-14.323,8.266-16.15,9.33L456.1,544.612ZM488.613,598.8V563.611l16.15-9.323,14.308-8.266a2.248,2.248,0,0,0,3.69,0l30.466,17.589v37.307l-16.157,9.33-16.157,9.33L490.448,601.99a2.242,2.242,0,0,0-1.834-3.194Zm32.5,58.435V619.924l16.15-9.33,16.157-9.33,30.466,17.589a2.241,2.241,0,0,0,1.849,3.194v35.185l-30.466,17.582a2.265,2.265,0,0,0-3.7,0Zm97.124,21.121v35.185L587.78,731.126a2.255,2.255,0,0,0-3.7,0l-30.459-17.589V678.352a2.228,2.228,0,0,0,1.842-3.194l24.919-14.38,5.546-3.2L616.4,675.158a2.256,2.256,0,0,0,1.842,3.194ZM587.78,618.507a2.258,2.258,0,0,0-3.69,0l-27.768-16.028-2.7-1.561V563.611l30.466-17.589a2.248,2.248,0,0,0,3.69,0l14.309,8.266,16.15,9.323v37.307Zm30.66-55.234-16.15-9.33-14.316-8.266a2.141,2.141,0,0,0,.223-.95,2.264,2.264,0,0,0-2.065-2.237V507.305l32.307-18.646,32.315,18.646V542.49a2.259,2.259,0,0,0-2.065,2.237,2.144,2.144,0,0,0,.223.95Zm32.71-20.783V507.305l32.307-18.646,30.466,17.582a2.321,2.321,0,0,0-.209.95,2.248,2.248,0,0,0,2.065,2.237v35.185l-32.322,18.661L653,545.677a2.348,2.348,0,0,0,.209-.95A2.258,2.258,0,0,0,651.15,542.49Zm97.124,23.243v35.185l-32.3,18.661L685.508,601.99a2.352,2.352,0,0,0,.216-.95,2.261,2.261,0,0,0-2.065-2.244V563.611l4.151-2.388,28.164-16.265,30.458,17.589a2.32,2.32,0,0,0-.209.95A2.242,2.242,0,0,0,748.273,565.733Zm-32.3-60.8a2.259,2.259,0,0,0-1.849.964l-26.5-15.3-3.964-2.288V453.121a2.259,2.259,0,0,0,2.065-2.237,2.3,2.3,0,0,0-.216-.95l30.466-17.6,16.15,9.33,14.308,8.266a2.321,2.321,0,0,0-.209.95,2.247,2.247,0,0,0,2.05,2.237v35.185L717.815,505.9A2.256,2.256,0,0,0,715.973,504.931Zm32.71-16.625V453.121a2.247,2.247,0,0,0,2.05-2.237,2.294,2.294,0,0,0-.209-.95l30.459-17.6,30.466,17.6a2.3,2.3,0,0,0-.216.95,2.259,2.259,0,0,0,2.065,2.237v35.185l-16.157,9.33-14.3,8.258a2.255,2.255,0,0,0-3.7,0Zm32.5,56.306V509.427a2.248,2.248,0,0,0,2.065-2.237,2.214,2.214,0,0,0-.216-.95l14.308-8.266,16.157-9.316,30.466,17.582a2.215,2.215,0,0,0-.216.95,2.254,2.254,0,0,0,2.065,2.237v35.185l-2.388,1.374L815.341,562.2a2.241,2.241,0,0,0-3.683,0Zm66.665,73.895a2.24,2.24,0,0,0-1.842-.957,2.276,2.276,0,0,0-1.856.957l-30.458-17.589V565.733a2.254,2.254,0,0,0,2.065-2.237,2.326,2.326,0,0,0-.216-.95l30.466-17.589,30.466,17.589a2.326,2.326,0,0,0-.216.95,2.248,2.248,0,0,0,2.057,2.237v35.185ZM880.366,562.2a2.255,2.255,0,0,0-3.7,0l-25.955-14.992-4.5-2.6V509.427a2.254,2.254,0,0,0,2.065-2.237,2.222,2.222,0,0,0-.223-.95l30.466-17.582,16.15,9.316,14.316,8.266a2.218,2.218,0,0,0-.216.95,2.248,2.248,0,0,0,2.057,2.237v35.185Zm30.653-57.27a2.256,2.256,0,0,0-1.842.964l-14.308-8.258-16.15-9.33V451l30.458-17.589a2.255,2.255,0,0,0,3.7,0l14.3,8.258L943.333,451v37.307L912.875,505.9A2.262,2.262,0,0,0,911.019,504.931Zm227.367,60.8v35.185l-32.3,18.661-30.473-17.589a2.239,2.239,0,0,0,.216-.95,2.266,2.266,0,0,0-2.064-2.244V563.611l32.322-18.654,30.459,17.589a2.207,2.207,0,0,0-.208.95A2.241,2.241,0,0,0,1138.386,565.733ZM1073.57,490.68a2.259,2.259,0,0,0,1.849-.964l30.466,17.589v37.307l-7.726,4.46-24.588,14.2-30.459-17.6a2.349,2.349,0,0,0,.208-.95,2.259,2.259,0,0,0-2.064-2.237V507.305l30.473-17.589A2.256,2.256,0,0,0,1073.57,490.68Zm-32.71,51.81a2.258,2.258,0,0,0-2.058,2.237,2.348,2.348,0,0,0,.216.95l-30.459,17.6-30.466-17.6a2.354,2.354,0,0,0,.216-.95,2.265,2.265,0,0,0-2.065-2.237V507.305l16.157-9.33,16.157-9.316,32.3,18.646Zm-32.509-89.368v35.185l-16.15,9.33-16.157,9.323-32.314-18.654V451l6.532-3.77,25.783-14.891,30.466,17.6a2.193,2.193,0,0,0-.216.95A2.247,2.247,0,0,0,1008.351,453.121Zm-32.308-58.781-30.466-17.582a2.241,2.241,0,0,0-1.849-3.194V338.388l30.473-17.6a2.246,2.246,0,0,0,3.683.007l30.466,17.589v35.178a2.242,2.242,0,0,0-2.058,2.237,2.361,2.361,0,0,0,.216.957Zm65.01,0L1010.6,376.759a2.137,2.137,0,0,0,.208-.957,2.241,2.241,0,0,0-2.05-2.237V338.388l32.3-18.661,16.164,9.33,14.316,8.258a2.116,2.116,0,0,0-.216.95,2.254,2.254,0,0,0,2.057,2.245v35.178Zm32.516-58.335a2.275,2.275,0,0,0-1.842.964l-14.316-8.259-16.15-9.33V284.2a2.248,2.248,0,0,0,2.057-2.237,2.324,2.324,0,0,0-.208-.95l30.459-17.589,30.466,17.589a2.323,2.323,0,0,0-.216.95,2.254,2.254,0,0,0,2.064,2.237v35.185l-30.466,17.589A2.278,2.278,0,0,0,1073.57,336.006Zm32.71-16.625V284.2a2.254,2.254,0,0,0,2.065-2.237,2.22,2.22,0,0,0-.223-.95l30.466-17.589,32.307,18.654v37.307l-30.459,17.589a2.255,2.255,0,0,0-3.7,0Zm32.509,21.128a2.254,2.254,0,0,0,2.058-2.245,2.218,2.218,0,0,0-.216-.95l30.466-17.589,32.314,18.661v35.178a2.256,2.256,0,0,0-1.849,3.194L1171.1,394.341l-32.307-18.654Zm32.509,89.369V394.686l21.538-12.431,8.927-5.151a2.264,2.264,0,0,0,3.7,0l12.445,7.187,18.006,10.4V432l-7.719,4.46L1203.6,450.647l-30.458-17.589a2.381,2.381,0,0,0,.209-.942A2.248,2.248,0,0,0,1171.3,429.878Zm97.123,23.243v35.185l-32.3,18.654-30.473-17.589a2.222,2.222,0,0,0,.223-.95,2.245,2.245,0,0,0-2.072-2.237V451l32.322-18.661,30.459,17.6a2.328,2.328,0,0,0-.208.957A2.245,2.245,0,0,0,1268.421,453.121Zm.007-77.434-32.307,18.654-30.473-17.582a2.228,2.228,0,0,0-1.849-3.194V338.388l30.473-17.589a2.258,2.258,0,0,0,3.691,0l14.308,8.258,16.157,9.33Zm32.912-56.306V284.2a2.253,2.253,0,0,0,2.05-2.244,2.322,2.322,0,0,0-.208-.95l30.458-17.589,8.251,4.762,22.222,12.827a2.22,2.22,0,0,0-.223.95,2.267,2.267,0,0,0,2.072,2.244v35.178l-30.473,17.589a2.248,2.248,0,0,0-3.691,0Zm97.123,54.184a2.248,2.248,0,0,0-2.057,2.237,2.476,2.476,0,0,0,.209.957l-30.459,17.582-32.307-18.654V340.51a2.26,2.26,0,0,0,2.057-2.245,2.327,2.327,0,0,0-.216-.95l30.466-17.589,32.307,18.661ZM1366.156,279.7a2.269,2.269,0,0,0-1.849.964l-30.458-17.589V227.891a2.248,2.248,0,0,0,2.057-2.237,2.327,2.327,0,0,0-.216-.95l30.466-17.589,16.157,9.323,14.3,8.266a2.44,2.44,0,0,0-.209.95,2.248,2.248,0,0,0,2.057,2.237v35.185L1368,280.664A2.256,2.256,0,0,0,1366.156,279.7Zm32.71-51.81a2.248,2.248,0,0,0,2.058-2.237,2.216,2.216,0,0,0-.216-.95l10.517-6.072,19.948-11.517,32.307,18.654v37.307l-32.307,18.654-32.307-18.654Zm32.509,89.369V282.074l32.3-18.654,30.473,17.589a2.218,2.218,0,0,0-.216.95A2.266,2.266,0,0,0,1496,284.2v35.178l-32.322,18.661-30.458-17.6a2.209,2.209,0,0,0,.208-.95A2.247,2.247,0,0,0,1431.375,317.259Zm64.816,77.082-30.458-17.582a2.482,2.482,0,0,0,.208-.957,2.248,2.248,0,0,0-2.058-2.237V338.388l32.308-18.661,16.157,9.33,14.309,8.258a2.213,2.213,0,0,0-.216.95,2.26,2.26,0,0,0,2.058,2.245v35.178Zm34.35-57.371a2.241,2.241,0,0,0-3.683,0l-14.316-8.259-16.157-9.33V284.2a2.26,2.26,0,0,0,2.065-2.244,2.216,2.216,0,0,0-.216-.95l30.466-17.589,16.157,9.323,14.309,8.266a2.215,2.215,0,0,0-.216.95,2.266,2.266,0,0,0,2.065,2.244v35.178Zm30.667-57.27a2.27,2.27,0,0,0-1.849.964l-14.308-8.258-16.15-9.33V225.769l30.458-17.589a2.255,2.255,0,0,0,3.7,0l14.3,8.258,16.157,9.33v37.307l-30.459,17.589A2.249,2.249,0,0,0,1561.209,279.7Zm32.71-53.932,30.458-17.589a2.255,2.255,0,0,0,3.7,0l30.459,17.589v35.185a2.248,2.248,0,0,0-2.058,2.237,2.122,2.122,0,0,0,.223.95l-30.473,17.589-32.307-18.654Zm32.509,91.491V282.074l30.466-17.589a2.248,2.248,0,0,0,3.69,0l30.466,17.589v37.307l-32.307,18.661-30.473-17.6a2.218,2.218,0,0,0,.223-.95A2.254,2.254,0,0,0,1626.428,317.259Zm66.665,76.024a2.245,2.245,0,0,0-3.7,0l-30.459-17.6v-37.3l32.307-18.661,4.136,2.388,26.336,15.2a2.123,2.123,0,0,0-.223.95,2.26,2.26,0,0,0,2.058,2.245v35.178ZM1725.6,336.97a2.248,2.248,0,0,0-3.69,0l-30.466-17.589V282.074l32.307-18.654,30.466,17.589a2.316,2.316,0,0,0-.208.95,2.247,2.247,0,0,0,2.05,2.237v35.185Zm30.66-57.27a2.236,2.236,0,0,0-1.841.964l-20.107-11.611-10.359-5.978V227.891a2.248,2.248,0,0,0,2.058-2.237,2.114,2.114,0,0,0-.216-.95l30.466-17.589,30.473,17.589a2.223,2.223,0,0,0-.223.95,2.248,2.248,0,0,0,2.064,2.237v35.185l-30.465,17.589A2.24,2.24,0,0,0,1756.261,279.7Zm65.018,2.029-32.307-18.654V227.891a2.248,2.248,0,0,0,2.058-2.237,2.213,2.213,0,0,0-.208-.95l30.458-17.589,16.165,9.323,16.15,9.33v35.185a2.248,2.248,0,0,0-2.057,2.237,2.216,2.216,0,0,0,.216.95ZM1886.5,206.77V169.463l30.466-17.589a2.258,2.258,0,0,0,3.69,0l30.466,17.589V206.77l-30.466,17.589a2.248,2.248,0,0,0-3.69,0Zm66.665,73.895a2.248,2.248,0,0,0-3.691,0l-30.466-17.589V227.891a2.249,2.249,0,0,0,2.065-2.237,2.214,2.214,0,0,0-.216-.95l30.465-17.589,30.466,17.589a2.214,2.214,0,0,0-.216.95,2.248,2.248,0,0,0,2.057,2.237v35.185Z" transform="translate(0 0)"/></g></g></svg>