<svg xmlns="http://www.w3.org/2000/svg" xmlns:xlink="http://www.w3.org/1999/xlink" width="168.516" height="41.147" viewBox="0 0 168.516 41.147"><defs><style>.a,.b{fill-rule:evenodd;}.a{fill:url(#a);}.b,.c{fill:#fff;}.c{font-size:34px;font-family:WorkSans-Regular, Work Sans;}</style><linearGradient id="a" x1="0.5" x2="0.5" y2="1" gradientUnits="objectBoundingBox"><stop offset="0" stop-color="#f88311"/><stop offset="1" stop-color="#f83811"/></linearGradient></defs><g transform="translate(-149 -109)"><g transform="translate(149 109)"><path class="a" d="M17.817,0l8.909,5.143,8.908,5.143V30.86L26.726,36l-8.909,5.143L8.908,36,0,30.86V10.287L8.908,5.143Z" transform="translate(0)"/><path class="b" d="M1151.847,1442.66v-4.514l-2.787-2.787v7.3a7.119,7.119,0,1,0,14.237,0v-5.907a1.393,1.393,0,0,0-2.787,0v5.907a4.332,4.332,0,0,1-8.664,0Z" transform="translate(-1138.362 -1421.996)"/><text class="c" transform="translate(50.516 32)"><tspan x="0" y="0">USDAO</tspan></text></g></g></svg>